<?xml version="1.0" encoding="UTF-8"?>
<svg id="Layer_1" xmlns="http://www.w3.org/2000/svg" version="1.1" viewBox="0 0 148 80.7">
  <!-- Generator: Adobe Illustrator 29.0.1, SVG Export Plug-In . SVG Version: 2.1.0 Build 192)  -->
  <defs>
    <style>
      .st0 {
        fill: #008838;
      }
    </style>
  </defs>
  <g id="Layer_2">
    <g id="Component_57_1">
      <g id="Professional_Services">
        <g>
          <path class="st0" d="M6.2,63c0,0-.2,0-.2,0,0,0,0-.2,0-.2v-3.6l-3.6-5.9h0v-.2c0,0,0-.2,0-.2q0,0,.2,0h.5c0,0,0,0,0,.2l3.2,5.2,3.2-5.2c0,0,0,0,.2-.2,0,0,0,0,.2,0h.3c0,0,.2,0,.2,0q0,0,0,.2h0v.2l-3.6,5.9v3.6c0,0,0,.2,0,.2q-.2,0-.3,0h-.4Z"/>
          <path class="st0" d="M13.9,63.2c-.6,0-1.2,0-1.8-.4-.5-.3-.8-.7-1.1-1.2-.3-.5-.4-1.1-.4-1.7v-1.2c0-.6.2-1.2.4-1.7.2-.5.6-.9,1.1-1.2,1.1-.6,2.4-.6,3.6,0,.5.3.8.7,1.1,1.2.3.5.4,1.1.4,1.7v1.2c0,.6,0,1.2-.4,1.7-.2.5-.6.9-1,1.2-.7.2-1.3.4-1.9.4ZM13.9,62.3c.6,0,1.2-.2,1.7-.7s.7-1.2.7-1.9v-1.1c0-.7-.2-1.4-.7-1.9s-1.1-.7-1.7-.7-1.2.2-1.7.7-.7,1.2-.7,1.9v1.1c0,.7.2,1.4.7,1.9.4.5,1,.7,1.7.7Z"/>
          <path class="st0" d="M22.1,63.2c-.6,0-1.2,0-1.7-.4-.4-.3-.8-.7-1-1.2s-.3-1.1-.3-1.7v-4.2c0,0,0-.2,0-.2,0,0,.2,0,.2,0h.3c.2,0,.3,0,.3.3h0v4.1c0,1.7.7,2.5,2.2,2.5s1.2-.2,1.7-.7c.4-.5.7-1.2.6-1.8v-4.1c0-.2,0-.3.3-.3h.2c.2,0,.3,0,.3.3h0v7c0,0,0,.2,0,.2,0,0-.2,0-.2,0h-.2c0,0-.2,0-.2,0,0,0,0-.2,0-.2v-.7c-.3.3-.6.6-1,.8-.4.3-.9.4-1.4.4Z"/>
          <path class="st0" d="M32.2,63c-.1,0-.2,0-.2,0-.1,0-.1-.2-.1-.2v-9.7c0,0,0-.2.1-.2.1,0,.2,0,.2,0h.3c.1,0,.2,0,.2,0h.1c0,0,5.4,8.4,5.4,8.4v-8.2c0,0,0-.2.1-.2q.1,0,.2,0h.3c.1,0,.2,0,.2,0,.1,0,.1.2.1.2v9.7c0,0,0,.2-.1.2-.1,0-.2,0-.2,0h-.3c-.1,0-.2,0-.2,0h-.1c0,0-5.4-8.4-5.4-8.4v8.2c0,0,0,.2-.1.2-.1,0-.2,0-.2,0h-.3Z"/>
          <path class="st0" d="M43.8,63.2c-.5,0-.9,0-1.3-.3s-.7-.4-1-.8c-.2-.3-.4-.7-.4-1.1,0-.6.3-1.2.8-1.6.6-.4,1.4-.7,2.1-.8l2.3-.3v-.5c0-.5-.1-.9-.5-1.2s-1-.5-1.5-.5-.9,0-1.2.3-.5.5-.6.8c0,0-.2.2-.3.2h-.2c-.1,0-.2,0-.2,0v-.3c0-.2.1-.4.2-.5.1-.2.3-.4.5-.6.2-.2.5-.4.8-.5.4,0,.8-.2,1.3-.2s1,0,1.4.2c.6.2,1.1.8,1.3,1.5.1.3.1.6.1.9v5c0,0,0,.2-.1.2-.1,0-.2,0-.2,0h-.2c-.1,0-.2,0-.2,0-.1,0-.1-.2-.1-.2v-.8c-.1.2-.3.4-.5.5-.3.2-.5.3-.8.4-.6.2-1,.3-1.5.3ZM44,62.3c.4,0,.9,0,1.2-.3.4-.2.7-.5.9-.9.2-.5.3-1,.3-1.5v-.5l-1.9.3c-.6,0-1.3.2-1.8.6-.4.2-.6.6-.6,1s.1.6.3.8c.2.2.4.4.7.5.2-.1.6,0,.9,0Z"/>
          <path class="st0" d="M50,63c-.1,0-.2,0-.2,0-.1,0-.1-.2-.1-.2v-7c0,0,0-.2.1-.2q.1,0,.2,0h.3c.1,0,.2,0,.2,0,.1,0,.1.2.1.2v.5c.5-.7,1.3-1,2.1-1,1,0,1.9.5,2.4,1.4.2-.4.6-.8,1-1,.5-.3,1-.4,1.5-.4s1,0,1.4.4c.4.2.8.6,1,1.1.3.6.4,1.2.4,1.8v4.3c0,0,0,.2-.1.2-.1,0-.2,0-.2,0h-.4c-.1,0-.2,0-.2,0-.1,0-.1-.2-.1-.2v-4.2c0-.5-.1-1-.3-1.5-.2-.3-.4-.6-.7-.8-.3,0-.7-.2-1-.2s-.6,0-.9.2c-.3.2-.6.4-.8.7-.2.5-.3,1-.3,1.5v4.2c0,0,0,.2-.1.2-.1,0-.2,0-.2,0h-.2c-.1,0-.2,0-.2,0-.1,0-.1-.2-.1-.2v-4.1c0-.5-.1-1-.3-1.5-.2-.3-.4-.6-.8-.8-.3,0-.7-.2-1-.2s-.6,0-.9.2c-.3.2-.6.4-.8.8-.2.5-.3,1-.3,1.5v4.2c0,0,0,.2-.1.2q-.1,0-.2,0h-.2Z"/>
          <path class="st0" d="M65.5,63.2c-.9,0-1.7-.3-2.3-.9-.6-.7-1-1.6-1-2.5v-1.2c0-.6.2-1.2.5-1.8.2-.5.6-.9,1.1-1.2s1.1-.4,1.7-.4,1.2,0,1.8.5c.5.3.9.8,1.1,1.3.3.6.4,1.3.4,2v.2c0,0,0,.2-.1.2-.1,0-.2,0-.2,0h-5.3v.2c0,.4.1.9.3,1.3s.4.7.8,1c.4.3.8.4,1.2.4s.7,0,1.1-.2c.2,0,.5-.2.7-.4.1,0,.2-.2.3-.3.1,0,.1-.2.2-.2h.4c.1,0,.2,0,.2,0q.1,0,.1.2c0,.2-.1.4-.2.5-.2.2-.4.4-.6.6-.3.2-.6.4-1,.5-.4,0-.8,0-1.2,0ZM63.1,58.7h4.7c0-.6-.1-1-.3-1.4-.2-.4-.5-.7-.8-.9-.4-.2-.8-.4-1.3-.3-.4,0-.9,0-1.3.3-.4.2-.6.6-.8.9,0,.5-.2.9-.2,1.4h0Z"/>
          <path class="st0" d="M75,63c-.1,0-.2,0-.2,0-.1,0-.1-.2-.1-.2v-9.7c0-.2.1-.3.2-.3h.4c.1,0,.2,0,.2,0,.1,0,.1.2.1.2v9.7c0,0,0,.2-.1.2-.1,0-.2,0-.2,0h-.3Z"/>
          <path class="st0" d="M80.8,63c-.4,0-.9,0-1.2-.3-.3-.2-.5-.5-.6-.9s-.2-.8-.2-1.2v-4.3h-1.2c-.2,0-.3,0-.3-.3h0v-.2c0,0,0-.2.1-.2q.1,0,.2,0h1.2v-2.5c0,0,0-.2.1-.2q.1,0,.2,0h.2c.1,0,.2,0,.2,0q.1,0,.1.2v2.5h1.8c.1,0,.2,0,.2,0,.1,0,.1.2.1.2v.2c0,0,0,.2-.1.2-.1,0-.2,0-.2,0h-1.7v4.3c0,.4.1.8.3,1.2.2.3.6.5.9.4h.8c.1,0,.2,0,.2,0q.1,0,.1.2v.2c0,0,0,.2-.1.2s-.1,0-.2,0h-.9Z"/>
          <path class="st0" d="M83.7,63c-.1,0-.2,0-.2,0-.1,0-.1-.2-.1-.2v-.6c0,0,0-.2.1-.2.1,0,.2,0,.2,0h.6c.1,0,.2,0,.2,0,.1,0,.1.2.1.2v.6c0,0,0,.2-.1.2-.1,0-.2,0-.2,0h-.6ZM83.9,60.9c-.1,0-.2,0-.2,0q-.1,0-.1-.2v-7.6c0,0,0-.2.1-.2q.1,0,.2,0h.2c.1,0,.2,0,.2,0,.1,0,.1.2.1.2v7.6c0,0,0,.2-.1.2-.1,0-.2,0-.2,0h-.2Z"/>
          <path class="st0" d="M92.3,63c-.1,0-.2,0-.3,0s-.1-.2-.1-.3l-2-9.5h0v-.2c0,0,0-.2.1-.2q.1,0,.2,0h.3c.2,0,.3,0,.3.2l1.7,8.4,1.8-6c0,0,.1-.2.2-.2.1,0,.2,0,.3,0h.3c.1,0,.2,0,.3,0s.1,0,.1.2l1.8,6,1.7-8.4c0-.2.1-.2.3-.2h.3c.1,0,.2,0,.2,0q.1,0,.1.2h0v.2l-2,9.5c0,0-.1.2-.1.3-.1,0-.2,0-.3,0h-.2c-.1,0-.2,0-.3,0s-.1-.2-.2-.3l-2-6.2-2,6.2c0,0-.1.2-.2.3-.1,0-.2,0-.3,0h0Z"/>
          <path class="st0" d="M104.5,63.2c-.9,0-1.7-.3-2.3-.9-.6-.7-1-1.6-1-2.5v-1.2c0-.6.2-1.2.5-1.8.3-.5.6-.9,1.1-1.2,1.1-.6,2.4-.6,3.4,0s.9.8,1.2,1.4c.3.6.4,1.3.4,2v.2c0,0,0,.2-.1.2-.1,0-.2,0-.2,0h-5.3v.2c0,.4.1.9.3,1.3s.5.7.8,1c.4.3.8.4,1.2.4s.7,0,1.1-.2c.2,0,.5-.2.7-.4.1,0,.2-.2.3-.3.1,0,.1-.2.2-.2h.4c.1,0,.2,0,.2,0q.1,0,.1.2c0,.2-.1.4-.2.5-.2.2-.4.4-.6.6-.3.2-.6.4-1,.5-.4,0-.8,0-1.2,0ZM102.2,58.7h4.7c0-.6-.1-1-.3-1.4-.2-.4-.5-.7-.8-.9-.4-.2-.8-.4-1.3-.3-.4,0-.9,0-1.3.3-.3.2-.6.6-.8.9,0,.5-.2.9-.2,1.4h0Z"/>
          <path class="st0" d="M114.1,63c-.1,0-.2,0-.2,0-.1,0-.1-.2-.1-.2v-9.7c0,0,0-.2.1-.2.1,0,.2,0,.2,0h3.1c.8,0,1.7,0,2.5.5.6.3,1,.8,1.3,1.3.3.7.4,1.4.4,2.2v2.4c0,.8-.1,1.5-.4,2.2-.2.6-.7,1.1-1.2,1.3-.8.3-1.6.5-2.4.4h-3.3ZM114.7,62.1h2.5c.6,0,1.3,0,1.9-.3.4-.2.8-.6,1-1,.2-.6.3-1.2.3-1.8v-2.3c.1-.9-.2-1.7-.8-2.4-.7-.6-1.6-.9-2.5-.8h-2.4v8.6Z"/>
          <path class="st0" d="M126.5,63.2c-.6,0-1.2,0-1.8-.4-.5-.3-.8-.7-1.1-1.2s-.4-1.1-.4-1.7v-1.2c0-.6.2-1.2.4-1.7s.6-.9,1.1-1.2,1.2-.5,1.8-.4c.6,0,1.2,0,1.8.4.5.3.9.7,1.1,1.2.3.5.4,1.1.4,1.7v1.2c0,.6-.1,1.2-.4,1.7-.2.5-.6.9-1.1,1.2-.6.2-1.2.4-1.8.4ZM126.5,62.3c.6,0,1.2-.2,1.7-.7s.7-1.2.7-1.9v-1.1c0-.7-.2-1.4-.7-1.9-.4-.4-1.1-.7-1.7-.7s-1.2.2-1.7.7-.7,1.2-.7,1.9v1.1c0,.7.2,1.4.7,1.9.4.5,1,.7,1.7.7Z"/>
          <path class="st0" d="M136.1,63c-.1,0-.2,0-.2,0-.1,0-.1-.2-.1-.2v-9.7c0,0,0-.2.1-.2.1,0,.2,0,.2,0h.3c.1,0,.2,0,.2,0,.1,0,.1.2.1.2v9.7c0,.2-.1.3-.2.3h-.4Z"/>
          <path class="st0" d="M141.9,63c-.4,0-.8,0-1.2-.3-.3-.2-.5-.5-.6-.9s-.2-.8-.2-1.2v-4.4h-1.2c-.1,0-.2,0-.2,0q-.1,0-.1-.2v-.2c0,0,0-.2.1-.2q.1,0,.2,0h1.2v-2.5c0,0,0-.2.1-.2.1,0,.2,0,.2,0h.2c.1,0,.2,0,.2,0q.1,0,.1.2v2.5h1.8c.1,0,.2,0,.2,0,.1,0,.1.2.1.2v.2c0,0,0,.2-.1.2q-.1,0-.2,0h-1.8v4.3c0,.4.1.8.2,1.2.2.3.6.5.9.4h.8c.1,0,.2,0,.2,0q.1,0,.1.2v.2c0,0,0,.2-.1.2q-.1,0-.2,0h-.7Z"/>
          <path class="st0" d="M144.8,63c-.1,0-.2,0-.2,0-.1,0-.1-.2-.1-.2v-.6c0,0,0-.2.1-.2.1,0,.2,0,.2,0h.6c.1,0,.2,0,.2,0,.1,0,.1.2.1.2v.6c0,0,0,.2-.1.2-.1,0-.2,0-.2,0h-.6ZM144.9,60.9c-.1,0-.2,0-.2,0q-.1,0-.1-.2v-7.6c0-.2.1-.3.2-.3h.3c.1,0,.2,0,.2,0,.1,0,.1.2.1.2v7.6c0,0,0,.2-.1.2-.1,0-.2,0-.2,0h-.2Z"/>
        </g>
      </g>
      <g id="Mr_Kim">
        <g>
          <path class="st0" d="M3.5,46.1c-.3,0-.5,0-.7-.3s-.3-.4-.3-.7v-26.5c0-.3,0-.5.3-.7.2-.2.5-.3.7-.3h4.4c.4,0,.7.1,1,.4.2.2.3.3.4.5l7.2,12.9,7.2-12.9c0-.2.3-.4.4-.5.3-.3.6-.4,1-.4h4.4c.3,0,.6.1.8.3.2.2.3.5.3.7v26.5c0,.3,0,.5-.3.7-.2.2-.5.3-.8.3h-4.8c-.3,0-.6,0-.8-.3-.2-.2-.3-.4-.3-.7v-15.3l-4.6,8.5c0,.2-.3.5-.5.7-.3.2-.6.3-.9.3h-2.1c-.3,0-.6,0-.9-.3-.2-.2-.4-.4-.5-.7l-4.6-8.5v15.3c0,.3,0,.5-.3.7-.2.2-.5.3-.7.3H3.5Z"/>
          <path class="st0" d="M36.9,46.1c-.3,0-.5,0-.7-.3s-.3-.5-.3-.7v-19.2c0-.3.1-.5.3-.7s.5-.3.7-.3h4.7c.3,0,.6.1.8.3.2.2.3.4.3.7v1.6c.7-.9,1.6-1.5,2.6-2,1.1-.5,2.3-.7,3.5-.6h1.8c.6,0,1,.4,1,1v4.2c0,.3-.1.5-.3.7s-.5.3-.7.3h-4c-1.8-.2-3.3,1.1-3.5,2.9v11.2c0,.3-.1.5-.3.7s-.5.3-.8.3h-5.1Z"/>
          <path class="st0" d="M53.1,46.1c-.3,0-.5,0-.7-.3s-.3-.5-.3-.7v-5.2c0-.6.4-1,1-1h5.2c.3,0,.5,0,.7.3s.3.5.3.7v5.2c0,.3-.1.5-.3.7s-.4.3-.7.3h-5.2Z"/>
          <path class="st0" d="M74,46.1c-.3,0-.5,0-.7-.3s-.3-.5-.3-.7v-26.5c0-.3.1-.5.3-.7s.5-.3.7-.3h5.1c.3,0,.5.1.7.3.2.2.3.5.3.7v9.1l7.5-9.3c.2-.2.3-.4.6-.5.3-.2.6-.3,1-.3h5.9c.2,0,.5.1.6.3.2.2.2.4.2.6s0,.3-.1.5l-9.8,12.3,10.7,13.5c.1,0,.2.3.2.5s-.1.4-.2.6c-.2.2-.4.3-.6.3h-6.1c-.4,0-.8,0-1.1-.3-.2,0-.4-.3-.5-.5l-8.1-10.1v9.9c0,.3-.1.5-.3.7s-.5.3-.7.3h-5.3Z"/>
          <path class="st0" d="M100.6,21.8c-.6,0-1-.4-1-1v-3.7c0-.3.1-.5.3-.7s.5-.3.7-.3h4.9c.3,0,.5.1.7.3.2.2.3.4.3.7v3.7c0,.3-.1.5-.3.7s-.4.3-.7.3h-4.9ZM100.6,46.1c-.3,0-.5,0-.7-.3s-.3-.5-.3-.7v-19.2c0-.6.4-1,1-1h4.8c.3,0,.5.1.7.3.2.2.3.5.3.7v19.2c0,.3-.1.5-.3.7s-.5.3-.7.3h-4.8Z"/>
          <path class="st0" d="M113.6,46.1c-.3,0-.5,0-.7-.3s-.3-.5-.3-.7v-19.2c0-.3.1-.5.3-.7s.5-.3.7-.3h4.4c.6,0,1,.4,1,1v1.4c.6-.8,1.4-1.5,2.3-1.9,1.1-.6,2.3-.9,3.5-.9,3.2-.1,5.3,1.1,6.5,3.5.7-1.1,1.6-1.9,2.7-2.5,2.4-1.3,5.3-1.3,7.6,0,1.2.7,2.1,1.7,2.7,2.9.7,1.6,1.1,3.4,1,5.1v11.6c0,.3-.1.5-.3.7s-.5.3-.7.3h-4.7c-.3,0-.6,0-.8-.3s-.3-.4-.3-.7v-11.3c0-.8-.1-1.6-.4-2.3-.2-.5-.6-.9-1.1-1.2s-1-.4-1.6-.4-1,0-1.4.4c-.5.3-.9.7-1.1,1.2-.3.7-.5,1.5-.4,2.3v11.3c0,.3-.1.5-.3.7s-.5.3-.7.3h-4.7c-.3,0-.5,0-.7-.3s-.3-.5-.3-.7v-11.3c0-.8-.1-1.6-.4-2.3-.2-.5-.6-.9-1.1-1.2-.9-.5-2.1-.5-3,0-.5.3-.9.7-1.1,1.2-.3.7-.5,1.5-.4,2.2v11.4c0,.6-.4,1-1,1h-5.2Z"/>
        </g>
      </g>
    </g>
  </g>
</svg>