<?xml version="1.0" encoding="UTF-8"?>
<svg id="Layer_1" xmlns="http://www.w3.org/2000/svg" version="1.1" viewBox="0 0 150 150">
  <!-- Generator: Adobe Illustrator 29.0.0, SVG Export Plug-In . SVG Version: 2.1.0 Build 186)  -->
  <defs>
    <style>
      .st0 {
        fill: #010101;
      }

      .st1 {
        fill: #fff;
      }

      .st2 {
        fill: #c47058;
      }

      .st3 {
        fill: #813f31;
      }

      .st4 {
        fill: #0f8745;
      }

      .st5 {
        fill: #faed14;
      }

      .st6 {
        fill: #049648;
      }

      .st7 {
        fill: #0d8943;
      }
    </style>
  </defs>
  <g>
    <g>
      <path class="st4" d="M36.3,73.7l3.7-4.2.6,1.1-.8.9.9,1.7,1.2-.2.5,1-5.6.7-.5-1ZM39.1,72.2l-1.4,1.5h0l2-.3-.6-1.2Z"/>
      <path class="st4" d="M38.3,66c.5.3.8.7,1.1,1.4.2.7.3,1.2.1,1.7-.3.4-.7.8-1.3,1l-3.1,1.1-.4-1.1,3.1-1.1c0,0,.3,0,.4-.2,0,0,.2-.2.3-.3,0,0,0-.2,0-.4s0-.3,0-.6c0-.4-.3-.6-.6-.7-.2,0-.5,0-.9,0l-3.1,1.1-.4-1.1,3.1-1.1c.7-.1,1.2-.1,1.7.2Z"/>
      <path class="st4" d="M34.2,66l-.9.2-1-4.2.9-.2.4,1.5,4.2-1,.3,1.1-4.2,1,.3,1.6Z"/>
      <path class="st4" d="M33.7,61c-.3,0-.7-.2-.9-.4-.3-.2-.5-.4-.7-.7s-.3-.7-.3-1.1,0-.8.1-1.1.3-.6.5-.9c.2-.2.5-.4.8-.6.3-.2.7-.2,1.1-.3.4,0,.7,0,1.1,0,.3,0,.6.2.9.4s.5.4.7.7c.1.4.2.7.2,1.1s0,.8,0,1.1-.3.6-.5.9c-.2.2-.5.4-.8.6-.3.2-.7.2-1,.3-.4,0-.8,0-1.1,0ZM35.3,59.8c.2,0,.4-.2.5-.3.2,0,.3-.3.4-.5s0-.4,0-.7c0-.2,0-.5-.3-.6,0-.2-.3-.3-.4-.4-.2,0-.4-.2-.6-.2h-.6c-.2,0-.4,0-.7,0-.2,0-.4.2-.5.3-.2,0-.3.3-.4.5s-.1.4-.1.7.1.5.2.6c.2.2.3.3.5.4s.4.2.6.2h.7c.2,0,.4-.1.6-.1Z"/>
      <path class="st4" d="M33.7,53c-.2,0-.3-.2-.4-.3,0-.2,0-.3-.2-.5s-.1-.3-.1-.5.1-.3.1-.5c.1-.2.2-.3.3-.4,0,0,.3-.2.4-.3.2,0,.3,0,.5,0s.3,0,.5,0c.3.2.4.3.5.4,0,0,.2.3.3.4,0,.2,0,.3,0,.5s0,.3,0,.5c-.2.2-.3.4-.4.5s-.3.2-.4.3c-.2,0-.3,0-.5,0-.2,0-.4-.2-.6-.2Z"/>
      <path class="st4" d="M32.4,45.7l2,.4.5-2.1-2-.4.3-1.1,5.1,1.2-.3,1.1-2.2-.5-.5,2.1,2.2.5-.3,1.1-5-1.1.2-1.2Z"/>
      <path class="st4" d="M35,41.8c-.3-.2-.5-.5-.6-.8-.2-.3-.2-.6-.3-1,0-.3,0-.7.2-1.1,0-.4.3-.7.6-.9.2-.2.5-.4.8-.6.3-.1.6-.2,1-.2s.7.1,1.1.2.7.3.9.5c.3.2.5.5.6.8.2.3.2.6.3,1,0,.3,0,.7-.2,1.1-.1.4-.3.7-.6.9-.2.3-.5.4-.8.6-.3,0-.6.2-1,.2s-.7,0-1.1-.2c-.3,0-.7-.3-.9-.5ZM37,41.4h.6c.2,0,.4-.1.5-.3.2-.1.3-.3.4-.6,0-.2,0-.5,0-.7s0-.4-.2-.6-.3-.3-.4-.4c-.2-.1-.4-.2-.6-.3-.2-.1-.4-.1-.7-.2h-.6c-.2,0-.4.1-.5.3-.2.1-.3.3-.4.6,0,.2,0,.5,0,.7s0,.4.2.6.3.3.5.4.4.2.6.3c0,.1.3.2.6.2Z"/>
      <path class="st4" d="M36.5,34.1l3.7.7h0l-2.6-2.8.8-1.4,4.6,2.6-.5.9-3.2-1.8h0l2.6,2.9-.4.8-3.8-.7h0l3.2,1.8-.5.9-4.6-2.6.7-1.3Z"/>
      <path class="st4" d="M41.7,26.4l.8.6-1.7,2.2.9.7,1.5-2,.7.5-1.5,2,1,.8,1.7-2.2.8.6-2.4,3.2-4.2-3.2,2.4-3.2Z"/>
      <path class="st4" d="M45.4,25.4c-.1-.2-.1-.3-.1-.5s0-.3.1-.5.2-.3.3-.4c.1-.1.3-.2.4-.3.2-.1.3-.1.5-.1s.3,0,.5.1c.2.1.3.2.4.3s.2.3.3.4c.1.2.1.3.1.5s0,.3-.1.5-.2.3-.3.4c-.1.1-.3.2-.4.3-.2.1-.3.1-.5.1s-.3,0-.5-.1-.3-.2-.4-.3c-.1-.1-.2-.3-.3-.4Z"/>
      <path class="st4" d="M51.9,19.1c-.1-.1-.2-.1-.4-.1h-.4c-.1,0-.3.1-.4.2-.2.1-.4.3-.5.5s-.1.4-.1.6,0,.4.1.6c.1.2.2.4.3.6.1.2.3.3.4.5.2.1.3.2.5.3s.4.1.6.1.4-.1.6-.3c.3-.2.5-.4.5-.7s0-.6-.2-.9l.9-.6c.2.3.3.6.3.9v.8c-.1.3-.2.5-.3.8-.2.2-.4.4-.6.6-.3.2-.7.4-1,.4-.3.1-.7.1-1,0s-.6-.2-.9-.4-.5-.5-.8-.8c-.2-.3-.4-.7-.5-1s-.1-.7-.1-1,.1-.6.3-.9c.2-.3.4-.6.8-.8.2-.2.5-.3.7-.4.3-.1.5-.1.8-.1s.5.1.7.2c.2.1.5.3.7.5l-.9.6c.1-.1,0-.2-.1-.2Z"/>
      <path class="st4" d="M53.9,18c0-.4,0-.7.1-1,0-.3.2-.6.4-.9.2-.3.5-.5.9-.7s.7-.3,1.1-.3.7,0,1,.2c.3,0,.6.3.8.6.3.2.5.5.6.9.2.3.3.7.3,1s0,.7-.1,1-.2.6-.5.9c-.2.3-.5.5-.9.7s-.7.3-1.1.3-.7,0-1-.1-.6-.3-.8-.5c-.3-.2-.5-.5-.6-.9,0-.5-.1-.9-.2-1.2ZM55.6,19.1c.1.2.3.3.5.4.2.1.4.1.6.2.2,0,.4,0,.7-.2.2-.1.4-.3.5-.4.1-.2.2-.4.2-.6v-.6c0-.2-.1-.4-.2-.6s-.2-.4-.4-.6c-.1-.2-.3-.3-.5-.4s-.4-.2-.6-.2-.4,0-.7.2c-.2.1-.4.2-.5.4s-.2.4-.2.6v.6c.1.2.1.4.2.6.2.2.3.4.4.6Z"/>
      <path class="st4" d="M60.3,13.4l2.3,3h0v-3.8l1.5-.5,1.6,5-1,.3-1.2-3.5h0v3.9c0,0-.9.3-.9.3l-2.4-3.1h0l1.1,3.5-1,.3-1.6-5,1.6-.4Z"/>
      <path class="st4" d="M67.1,11.5l1.8,3.4h0l.6-3.7,1.6-.2.8,5.2-1.1.2-.6-3.7h0l-.7,3.9h-.9c0,0-1.8-3.3-1.8-3.3h0l.6,3.6-1.1.2-.8-5.2,1.6-.4Z"/>
      <path class="st4" d="M76.4,10.8v1h-2.8v1.1h2.5v.9h-2.5v1.3h2.8v1h-4c0,0,0-5.1,0-5.1l4.1-.2Z"/>
      <path class="st4" d="M80.4,11.2c.2,0,.4.1.6.2.2,0,.3.2.4.3,0,0,.2.3.3.5s0,.4,0,.6c0,.3,0,.6-.3.8s-.4.4-.7.4h0c0,0,.2,0,.3.2.2.1.2.2.3.4,0,0,0,.2,0,.4v1.3c0,0,0,.2,0,.3h-1.1c0-.3,0-.5,0-.7v-.7c0-.3,0-.5-.2-.6,0,0-.3-.2-.6-.3h-1.1c0,0-.2,1.9-.2,1.9h-1.1c0,0,.6-5.3.6-5.3l2.7.3ZM79.7,13.5c.3,0,.5,0,.6,0s.2-.3.3-.5c0-.3,0-.4,0-.6,0,0-.3-.2-.6-.2h-1.3c0,0-.2,1.4-.2,1.4h1.3Z"/>
      <path class="st4" d="M86.1,13.8c0,0,0-.2-.2-.3,0,0-.2-.2-.3-.3s-.2,0-.4-.2c-.3,0-.5,0-.7,0s-.4,0-.5.3-.2.3-.4.4c0,.2-.2.4-.2.6,0,.2,0,.4,0,.6s0,.4,0,.6.2.4.3.5c.2,0,.4.2.6.3.3,0,.6,0,.9,0,.2-.2.4-.4.6-.7l1.1.3c0,.3-.3.6-.4.8-.2.2-.4.4-.6.5-.2,0-.5.2-.8.2s-.6,0-.9,0c-.4,0-.7-.2-1-.5-.3-.2-.5-.5-.6-.8-.2-.3-.3-.6-.3-1s0-.7,0-1.1.2-.7.4-1,.4-.5.7-.7.6-.3.9-.4c.3-.1.7,0,1.1,0,.3,0,.5.2.8.3.2,0,.4.3.6.5.2.2.3.4.3.7,0,.5,0,.8,0,1.1l-1.1-.3v-.3Z"/>
      <path class="st4" d="M89.7,13.5l-1.7,4.9-1.1-.4,1.7-4.9,1.1.4Z"/>
      <path class="st4" d="M93.2,14.9l-.4,5.6-1.1-.5v-1.2c0,0-1.7-.8-1.7-.8l-.9.9-1-.5,4-4,1.1.5ZM91.9,17.9l.2-2h0l-1.4,1.5,1.2.5Z"/>
      <path class="st4" d="M96.7,16.7l-2.2,3.7,2.2,1.3-.5.8-3.2-1.9,2.7-4.5,1,.6Z"/>
      <path class="st4" d="M100.1,21.6c.2-.1.3-.1.5-.1h.5c.2,0,.3.1.5.2,0,.1.2.2.3.4,0,.2,0,.3,0,.5v.5c0,.2,0,.3-.2.5,0,.1-.2.2-.4.3-.2.1-.3.1-.5.1h-.5c-.2,0-.3-.1-.5-.2,0-.1-.2-.2-.3-.4,0-.2,0-.3,0-.5s0-.3,0-.5c0-.2,0-.3.2-.5,0,0,.2-.2.3-.3Z"/>
      <path class="st4" d="M103.6,29c-.2-.1-.5-.3-.6-.5-.2-.2-.3-.4-.4-.6s0-.4,0-.6,0-.4,0-.6.2-.4.4-.5c0-.1.3-.2.4-.3.2-.1.3-.1.5-.1s.3,0,.5.1c.2,0,.3.1.5.2,0-.2,0-.4,0-.6,0-.2.2-.4.4-.5,0-.1.3-.2.4-.2h.5c.2,0,.3.1.5.2.2.1.3.2.4.3s.2.3.3.5c0,.2,0,.3,0,.5s0,.3,0,.5-.2.3-.3.4c-.2.2-.5.3-.8.3s-.6,0-.8-.1l-.2,1.1c0,0,.2-.1.3-.1s.2-.1.3-.2l.6.7c-.2.1-.4.2-.6.3-.2.1-.4.1-.7.1l-.2,1.6-.8-1v-.7c-.2,0-.5,0-.7-.2ZM104.3,26.8h-.6c0,0-.2.1-.3.1l-.2.2c0,.1,0,.2,0,.3v.3c0,.1,0,.2,0,.2,0,.1.3.2.4.3.2,0,.3.1.5.1l.2-1.4c.2,0,.1,0,0-.1ZM106.7,26.1c0-.1,0-.3,0-.3,0-.1-.2-.1-.3-.2,0,0-.2,0-.3,0,0,.1-.2.2-.2.4s0,.3,0,.4c.2,0,.3.1.5.1s.3-.1.4-.2c0,0,0-.2,0-.3Z"/>
      <path class="st4" d="M111.6,31.2l-2.5,2.9h0l3.7-.8.8,1.4-4.5,2.7-.5-.9,3.2-1.9h0l-3.8.8-.5-.8,2.5-3h0l-3.2,1.9-.5-.9,4.5-2.7.8,1.3Z"/>
      <path class="st4" d="M115.2,38.3l-4.1,3.8-.5-1.1.9-.8-.7-1.8h-1.2c0,.1-.4-1-.4-1l5.6-.2.4,1.1ZM112.2,39.6l1.5-1.3h-2c0,.1.5,1.3.5,1.3Z"/>
      <path class="st4" d="M116.5,42l-2.8,3h0l3.4-.9.3,1-5.2,1.4-.3-1.1,2.8-3h0l-3.4.9-.3-1,5.1-1.3.4,1Z"/>
      <path class="st4" d="M117.5,45.9l.2,1.3-1.9,1.5,2.2.9.2,1.3-3.5-1.5-2,.3-.2-1.1,2-.3,3-2.4Z"/>
      <path class="st4" d="M118.2,55.5l-3.7,1h0l3.5,1.4v1.6c0,0-5.3-.3-5.3-.3v-1.1c0,0,3.8.2,3.8.2h0l-3.6-1.5v-.9c0,0,3.8-1.1,3.8-1.1h-3.7c0-.1,0-1.2,0-1.2l5.2.3v1.6Z"/>
      <path class="st4" d="M116.2,60.5c.3.2.6.4.8.7.2.3.3.6.4.9,0,.3,0,.7,0,1.1,0,.4-.2.7-.4,1-.2.3-.5.5-.7.7-.3.2-.6.3-1,.3s-.7,0-1.1,0-.7-.2-1-.4-.5-.4-.7-.7-.3-.6-.4-.9c0-.3,0-.7,0-1.1,0-.4.2-.7.4-1,.2-.3.4-.5.7-.7.3-.2.6-.3.9-.3s.7,0,1.1,0c.4.1.7.3,1,.4ZM114.2,61.2c-.2,0-.4,0-.6,0s-.3.2-.5.3c0,.2-.2.4-.3.6,0,.3,0,.5,0,.7s.2.4.3.5c0,0,.3.3.5.4.2,0,.4.2.6.2s.4,0,.7,0,.4,0,.6,0,.4-.2.5-.3c0-.2.2-.4.3-.6,0-.3,0-.5,0-.7s-.2-.4-.3-.5c0,0-.3-.3-.5-.4-.2,0-.4-.2-.6-.2-.3,0-.5,0-.7,0Z"/>
      <path class="st4" d="M115.3,69.5c0,.2-.2.4-.3.6s-.3.3-.5.3c-.2,0-.3,0-.5,0s-.4,0-.6,0c-.3,0-.5-.3-.7-.5s-.3-.5-.3-.8h0c0,0-.2.2-.3.3s-.2,0-.3,0h-.4c0,0-.3,0-.4,0,0,0-.2,0-.3,0s-.2,0-.3,0-.2,0-.3,0h-.3l.4-1.1c.2,0,.4,0,.6,0s.4,0,.6.2c.3,0,.5,0,.7,0,.2,0,.3-.3.4-.5l.4-1.1-1.9-.7.4-1.1,4.9,1.8-1,2.8ZM113.2,68.3c0,.2,0,.5,0,.6,0,.2.2.3.5.4.2,0,.4,0,.6,0s.3-.3.4-.5l.4-1.2-1.4-.5-.5,1.2Z"/>
      <path class="st4" d="M112.6,75.6l-.9-.4,1.3-2.5-1-.5-1.2,2.3-.8-.4,1.2-2.3-1.1-.6-1.4,2.5-.9-.4,1.8-3.5,4.7,2.4-1.7,3.4Z"/>
    </g>
    <g id="Group_2097">
      <path id="Path_3205" class="st1" d="M41.3,63.3c-.2,0-.4,0-.4,0-.1.2.1.4.3.5h.8c0-.4-.4-.4-.7-.5Z"/>
      <ellipse id="Ellipse_58" class="st4" cx="75.2" cy="53.3" rx="33.6" ry="33.9"/>
      <path id="Path_3016" class="st0" d="M52.7,40.3h0v-.2.2Z"/>
      <path id="Path_3191" class="st1" d="M65.2,45.2c0,1,.4,2,1.1,2.8.5.7,1.3,1.1,2.2,1,2.1-.4,3.1-2.1,3.3-4.1-1.1.4-2,1.2-3.1,1.5-.2,0-.5,0-.6,0-.4-.3-.6-.7-.6-1.2,0-1.4,0-2,1.1-2.9.6-.4,1.2-.8,1.9-1.2,0-.1.4-.2.2-.4-.5-.3-.8-.8-1.4-.9-.8-.1-1.6.1-2.2.7-1.5,1.3-2.1,3-1.9,4.8ZM66.2,44.7c.2-.8.5-1.5.9-2.1-.2.7-.6,1.5-.9,2.1ZM66.1,44c.2-1,.6-2,1.2-2.8l-1.2,2.8Z"/>
      <path id="Path_3192" class="st5" d="M75.6,63.3c-.2,1.1-.2,2.1,0,3.2-.4-.9-.5-1.9-.2-2.9-.3.4-.5.7-.7,1-1,1.6-1.9,3.4-2.6,5.2,0,.3,0,.3.2.3,1.3,0,2.5.2,3.8.4,0,0,.4,0,.4,0,.2-.4.5-.8.8-1.1.6-.7.9-1.6.9-2.6s.3-1.2,1.1-1.4c.2,0,.2,0,0-.3-.3-1-.9-1.9-1.7-2.7-.5-.4-.6-.4-1,.2-.4.6-.7,1.3-.8,2,0,0,0,.3-.3.3s0-.2,0-.3c0-.4,0-.8,0-1.2ZM74.9,65.7l.3,1.7c-.2-.5-.3-1.1-.3-1.7ZM74.9,67.3l.7,1.4c-.4-.3-.7-.8-.7-1.4h0Z"/>
      <path id="Path_3193" class="st1" d="M68.7,42.3c-1.2.8-1.6,2.4-.8,3.7,0,.3.4.4.6.3h0c1-.5,1.9-1,2.8-1.6.3,0,.5-.4.6-.7-.2,0-.4.2-.6.3-.8.7-1.7,1.2-2.7,1.6-.3.2-.7,0-.9-.3h0v-.2c-.3-1,0-2.1,1-2.7.8-.5,1.6-.9,2.4-1.3,0-.1.2-.2.2-.3,0-.2-.2-.3-.3-.3s-.3,0-.4.2q0,.2-.2.2c-.6.3-1.2.7-1.8,1.1Z"/>
      <path id="Path_3194" class="st1" d="M61.2,48.3c-.1.2-.2.3-.2.5.1.4,0,.8-.1,1.2l4.2-3.2c0,0,.2-.2,0-.3,0-.3,0-.7-.2-1-.2,0-.4.4-.7.4,0-.2.4-.4.6-.6-.2,0-.4,0-.6.2l-3.3,2.5c-.1,0-.2.2-.2.3.1.2.2-.1.4,0Z"/>
      <path id="Path_3195" class="st1" d="M59.3,52.2c.1,0,.2,0,.2,0,1.5-1.2,3-2.3,4.5-3.4.4-.3.7-.6,1-.9,0,0,0-.3,0-.4h0c0-.2-.2,0-.3,0-.3,0-.5.3-.7.5-1.5,1.1-2.9,2.2-4.4,3.4-.4.2-.6.5-.3.9Z"/>
      <path id="Path_3196" class="st6" d="M60.9,51.8c-.3.4-.4.9-.3,1.4.3,1,1.4,1.6,2.4,1.3-.5.3-1.1.3-1.6,0,.5.5,1.2.6,1.9.4-.3.2-.8.4-1.2.3-.5,0-.7-.4-1-.8,0,.4-.1.8-.4,1.1s-.4.4-.6.7c-.3.3-.3.7,0,1,.4.4.9.7,1.4.7s.5,0,.6-.3c.6-.8,1.1-1.5,1.5-2.4.3-.5-.3-.9,0-1.4h0c-.1-.2-.3-.2-.5-.2h-1.4c.6,0,1.2,0,1.8,0s.7.4.6.6c0,0,0,.4,0,.5s0,.3,0,.4c-.3.7-.7,1.4-1.1,2.1-.2.2-.3.4-.4.6h.1s.1,0,.1,0c1.1-1,1.8-2.4,2-3.9.2-.7-.2-1.4-.9-1.7-.5-.3-1.1-.4-1.7-.5-.6,0-1-.2-1.2.2Z"/>
      <path id="Path_3197" class="st6" d="M67.9,67.7c0,0,0,.2,0,.3s0,0,.2-.2c.4-.8.8-1.6,1.2-2.3.3-.6.7-1.1,1.1-1.5,0,0,0,.2,0,.2-.7,1.1-1.4,2.3-2,3.5-.2.2,0,.6,0,.8.6.7,1.4,1.2,1.8,2l.3.3c0,0,.2,0,.3,0,.2-1,.5-2,1-3,0-.5.4-.9.7-1.3,0,0,0,.2,0,.2-.6,1.3-1.1,2.6-1.5,4,0,.3,0,.3.2.4.6,0,1.1,0,1.7,0,1.3,0,2.5.3,3.7.6l6.2,1.7c.3,0,.6,0,.8-.2.4-.6.8-1.3,1.2-2,.7-1.3,1.5-2.5,2.4-3.6.5-.5.9-1.1,1.4-1.7h-.2c-1.3,1.2-2.5,2.5-3.5,4-.6.9-1.3,1.8-1.8,2.8,0,.2-.3.3-.5.2h0c-.5-.2-1.1-.4-1.6-.6-2.5-.9-5-1.5-7.7-1.6-.5,0-1,0-1.6-.2-.3,0-.4-.2-.3-.5.2-.5.4-1,.6-1.5.6-2,1.6-3.8,3.1-5.3.3-.2.2-.5,0-.8l-.5.4c-.4.6-.8,1.1-1.2,1.6-.4.7-.8,1.3-1.2,2,.3-.7.7-1.4,1.2-2,.3-.6.7-1.1,1.2-1.6,0-.2.2-.3.3-.4,0,0,.2-.2.2-.4,0-.5-.3-.9-.3-1.4,0,0,0,0,0,0-.4,0-.9-.3-1.3,0,0-.2-.2-.2-.3,0-.3.2-.6.4-.9.6-1.3,1.3-2.5,2.8-3.4,4.4-.2.8-.5,1.5-.9,2.3ZM69.9,67.4c.2-1.5.7-2.9,1.5-4.2l-1.5,4.2ZM71.2,65.4c.2-.9.7-1.7,1.3-2.4-.4.9-.8,1.7-1.3,2.4h0ZM73.4,62.5c-.4.9-.9,1.6-1.6,2.3.3-.9.8-1.7,1.6-2.3ZM73.2,60.9c-.5.6-1.1,1.2-1.8,1.7.5-.6,1.1-1.2,1.8-1.7Z"/>
      <path id="Path_3198" class="st5" d="M65.2,63.4c.8.6,1.4,1.6,1.7,2.6.2.6.4,1.2.8,1.6,1-2.5,2.6-4.8,4.5-6.7-.7-.3-1.5-.4-2.2-.2-1.7.3-3.4,1-4.8,2-.4.3-.3.4,0,.7ZM68.7,61.7c-.7.8-1.3,1.7-1.7,2.6.3-1.1.9-2,1.7-2.6Z"/>
      <path id="Path_3199" class="st4" d="M60.4,57.8c-.5-.2-.7-.9-.5-1.4h0c0,0,.1,0,.1-.2.1-.2.3-.4.4-.5.3-.4.7-.7.4-1.2l-.3-.6c0-.2-.1-.2-.3,0-.9.7-1.7,1.5-2.6,2.2l-2.4,2c-.6.5-1.2,1-1.9,1.6-.1,0-.2,0-.2.3v.8c0,.7.3,1.3.9,1.7,1.2.9,2.2,1.9,3.2,3,.3.3.6.6.8,1-.6-.4-1.2-.9-1.8-1.4.9,1,1.7,2,2.6,3.1,0-.4-.2-.8,0-1.1.2-.5.2-.9-.3-1.2h-.1c-.8-.9-1.6-1.7-2.4-2.5-.5-.5-.9-1.2-1.2-1.9.3.2.5.4.8.7,1.2,1.2,2.4,2.5,3.4,3.8,0,0,0,.2.2.2s.2,0,.2-.2v-.4c0-.3-.1-.7.1-1,.1-.2.1-.5,0-.7-.6-1.1-1.1-2.3-1.5-3.6-.1,0-.1-.3-.1-.5s-.2-.3-.1-.5c.8,1.1,1.4,2.3,1.9,3.6,0,0-.1.3.1.3s.2,0,.2-.2c.6-.7,1.2-1.4,1.9-1.9.3,0,.4-.4.5-.6,0-.4.1-.8.1-1.1.1-.4.2-.8.4-1.3-.4,0-.7.4-1.1.4-.4,0-1-.3-1.4-.6ZM59.1,64.2c-.5-.6-.8-1.3-1-2,.5.6.8,1.3,1,2Z"/>
      <path id="Path_3200" class="st1" d="M64.2,45.2c.4,0,.7-.2.8-.6,0-.4,0-.8,0-1.2.2-1.5,1.1-2.9,2.4-3.8-.3.1-.6.2-.9.3-.8.6-1.5,1.4-1.9,2.3-.3.9-.5,1.8-.6,2.8,0,.1,0,.1.1.2q0,0,0,0h0Z"/>
      <path id="Path_3201" class="st1" d="M59.9,50.6h-1.1q.2.8.8.3c.1,0,.2-.1.3-.3Z"/>
      <path id="Path_3202" class="st1" d="M42.5,66.6c.6.2,1.3,0,1.6-.6.1,0,.2-.2.3-.3.8-.8,1.8-1.4,2.5-2.2.3-.3.6-.7.6-1.1-.2.3-.5.4-.8.3-.4,0-.6,0-.8.4-.7.8-1.5,1.5-2.3,2.1-.6.5-1.2,1-1.8,1.5.3-.1.5-.1.7-.1Z"/>
      <path id="Path_3203" class="st1" d="M44.2,66.7c.6-.7,1.3-1.4,2-2,.8-.6,1.3-1.4,1.6-2.3s0-1.2-.5-1.6c-.4-.3-1-.3-1.4,0-1.4.7-2.6,1.5-3.7,2.6-.1,0-.2.2-.1.4h0c.1,0,.3,0,.4,0,.6-.5,1.1-1,1.6-1.5.6-.6,1.3-1,2.1-1.3.4,0,.9,0,1.2.3.3.3.4.7.3,1.1-.3,1-.9,1.9-1.8,2.5-.6.5-1.2,1.1-1.8,1.7-.2.3-.7.5-1.1.5h-1.4c.1.3.3.4.5.4h.9c.6,0,1-.2,1.2-.6Z"/>
      <path id="Path_3204" class="st1" d="M43.9,67.9c.4,0,.7.2,1.1,0-.3-.3-.7-.3-1.1,0Z"/>
      <path id="Path_3206" class="st1" d="M44.9,56.3c-.8.2-1.6.6-2.1,1.3-1.1,1.5-1.7,3.2-1.7,5s.2.4.5.4.3-.2.3-.4c0-.6,0-1.2.1-1.8.3-1.8,1.3-3.5,2.9-4.5Z"/>
      <path id="Path_3207" class="st6" d="M54.4,50.7h.3c1,0,1.9.6,2.3,1.5.4.8.6,1.7.6,2.6.7,0,1.2-.8,1.2-1.5s0-1.1-.1-1.7c0-.9-.6-1.8-1.5-2.1.3.2.7-.2,1.1.2-.1-.4-.1-.8,0-1.2.1-.5,0-.6-.4-.5-.3,0-.7,0-1,.2.1-.3.4-.3.6-.3.9,0,1,0,.8.9h0c-.1.5,0,.9.4,1.2.4.2,1,.2,1.4,0,.3-.2.5-.6.4-1-.1-.6-.4-1.1-.8-1.5-.8-.7-1.9-.7-2.7,0-.6.6-.8,1.3-1.3,1.9.3,0,.5,0,.8,0-.8.3-1.6.7-2.2,1.3v.2Z"/>
      <path id="Path_3208" class="st1" d="M54.3,55.4c.2-.6.1-1-.5-1.2.2.4.3.8.5,1.2Z"/>
      <path id="Path_3209" class="st6" d="M55.7,53.3c.6.6.8,1.6.4,2.4.3,0,.5-.2.7-.3.4-.4.5-.9.3-1.4-.1-.9-.5-1.7-1.1-2.4-.5-.4-1.1-.7-1.8-.6-.4,0-.5.4-.8.6l1,.8c.4.2.9.6,1.3.9Z"/>
      <path id="Path_3210" class="st6" d="M52.9,53.6c.1,0,.3-.2.5-.2.5.3.9.7,1.1,1.3,0,.4-.2.8-.1,1.2,0,.2.1.3.3.3.8,0,1.4-.9,1.3-1.7-.1-.5-.3-.9-.7-1.1l-1.7-1.4c-.2-.3-.6-.3-.9,0h-.1c-.5.8-.8,1.6-.7,2.5l1-.8Z"/>
      <path id="Path_3211" class="st1" d="M93.4,46.9s0-.1,0,0l-1.4-.7v.2c.8.7,1.4,1.6,1.9,2.5,0,0,0,.2.2.2.6.2.7.8.9,1.4,0-.3.3-.3.5-.4.3-.2.4-.6.2-.9h0c-.7-1-1.1-2-2.3-2.3ZM94.2,48.4c0,0-.2,0-.2-.2s0-.3.2-.3.2,0,.2,0c0,.3,0,.4-.2.4h0ZM94.7,49.2c0,0-.2,0-.2-.3,0,0,0,0,.2-.2.2,0,.2,0,.2.2.1,0,0,.3-.2.3Z"/>
      <path id="Path_3212" class="st4" d="M92.9,86.2c0,0,0-.3,0-.4l-.8-1.2c-.8.5-1,1.4-1.3,2.2-.5,1-.9,2.1-1.2,3.1h.8c.3-.7.6-1.3,1.1-1.9.4-.5.9-1.2,1.4-1.8Z"/>
      <path id="Path_3213" class="st4" d="M93.9,86.2c0,0,0-.3,0-.4h0c-.4-.4-.9-.9-1.2-1.3,0,0,0-.2-.2,0,0,0,0,.2,0,.3.2.3.4.7.7,1,.2.2.2.6,0,.8h0c-.7.8-1.3,1.7-1.9,2.6-.2.3-.4.7-.6,1h.5c.6-1,1.2-1.9,2-2.8l.7-1.1Z"/>
      <path id="Path_3214" class="st6" d="M89.6,69.3c-1,1.2-2,2.5-2.8,3.9-.3.5-.7,1-1,1.4.6-.5,1.1-1.1,1.5-1.8,1.2-1.8,2.6-3.4,4.1-4.9,1-.9,2.1-1.7,3.4-2.2.4-.2.9-.2,1.4,0h.7c-.5-.6-.6-.6-1.2-.3-1,.4-1.9.9-2.9,1.4-1.3.7-2.3,1.6-3.2,2.6Z"/>
      <path id="Path_3215" class="st6" d="M92.2,63.6c0-.2-.3,0-.4-.2-.4-.5-.6-.5-.9,0,0,.2-.2.3-.3.6l.9-.4c-.3.4-.8.5-1.1.9.6-.3,1.2-.6,1.8-.9Z"/>
      <path id="Path_3216" class="st5" d="M89.7,60.2c0,.4,0,.9-.4,1.2-.7.4-1.4.8-2.1,1.1-.9.4-1.9.6-3,.7.7.6,1.1,1.4,1.3,2.3,0,.6.2,1.2.4,1.7,0,.2,0,.3.3,0,.9-.7,1.7-1.5,2.5-2.3.6-.7,1.1-1.5,1.4-2.3.2-.8.2-1.6,0-2.4,0-.6-.2-1.1-.5-1.6,0,.5,0,1,0,1.5ZM86.4,66.1c0-.6.4-1.1.7-1.5-.1.5-.5,1-.7,1.5ZM87.2,65.6c0-.4.3-.8.6-1.1h0c0,0-.7,1.1-.7,1.1Z"/>
      <path id="Path_3217" class="st1" d="M79.6,67c0,0,.2,0,.3-.2,0,0,0-.2-.2-.2s-.2,0-.2.2,0,.2.1.2Z"/>
      <path id="Path_3218" class="st4" d="M81.7,89.7c-.2-.3-.4-.5-.7-.5-.6-.2-1.1-.5-1.6-.8,0,.7-.6.8-1.2.8-1.3,0-2.5-.4-3.7-.9-.7-.3-1.4-.4-2.2-.5-1.1,0-2.2-.2-3.4-.3-.9,0-1.7-.2-2.6-.3-.6,0-.6-.2-.6-.8,0-.8.2-1.5.3-2.2.2-1.2.4-2.4.7-3.7.2-.9.5-1.8.9-2.7.2-.3,0-.5-.2-.7,0-.2-.2-.3-.6-.3-.7.2-1.4-.2-1.6-.9h0v-.4c0-.3-.2-.5-.5-.4,0-.3,0-.5-.2-.7-.9,2.7-1.4,5.6-1.4,8.5.1-.2.1-.3.1-.5,0-1.4.3-2.9.6-4.3,0-.8.4-1.7.8-2.4,0,.7-.4,1.3-.5,2-.2.9-.3,1.8-.4,2.7-.2,1.5-.3,3-.4,4.5,0,.3,0,.7,0,1,.2-1.9,0-3.8.9-5.6,0,.8,0,1.6,0,2.5,0,.4,0,.9,0,1.3,0,1.2,0,2.4,0,3.6,0,.6,0,1.2,0,1.8v.2h2.1c-.7-1-1-2.3-.8-3.5,0,1.2.3,2.4.8,3.5h15.8c-.2.2-.3.1-.3,0ZM64.6,88.1c-.3-1.5-.3-3.1,0-4.7v4.7Z"/>
      <path id="Path_3219" class="st5" d="M87.7,85c.2,1,0,2-.4,3,.9-.3,1.7-.8,2.3-1.6.3-.4.4-.9.2-1.3,0-.2,0-.4,0-.7v1c-.3-1-.2-2-.6-3-.3-1.3-.8-2.6-1.5-3.8-.8-1.1-1.9-2-3.2-2.4-.5,0-1,0-1.4.2-.7.2-1.5.4-2.2.5,0,0-.2,0-.2,0s0,.2.2.2c.7.3,1.4.6,2,1,1.1.6,1.9,1.7,2.2,3,.3,1.5.3,3,0,4.4,0,0,0,.2,0,.3v-.7c-.2,1-.6,2-.9,3,0,.7-.7,1.3-1.5,1.2h-.2c0,.2.2.4.4.6h1.8c1.9-1,3.1-2.9,3.2-5ZM86.4,87c.6-2.3,1.3-4.6.8-7.1.8,2.4.4,5-.8,7.1ZM84.1,77.5c1,.4,3.3,2.6,3,4.4-.5-2-1.8-3.2-3-4.4Z"/>
      <path id="Path_3220" class="st4" d="M88.9,90h.4c.7-1.6,1.2-3.1,1.9-4.6-.8,1.4-1.6,3-2.3,4.6Z"/>
      <path id="Path_3221" class="st4" d="M89.2,89.1c0-.3.3-.7.5-1,.2-.4.3-.8.5-1.2-.6.6-1.2,1.1-2,1.4,0,0-.3,0-.4.2-.5.2-1,.5-1.3,1,0,.2-.3.4-.5.5h3c0-.4,0-.7.2-.9Z"/>
      <path id="Path_3222" class="st5" d="M79.7,64.5c0-.3,0-.5,0-.8-.3-.6-.6-1.1-.8-1.8-.2-.4,0-.8.3-1h0c.7-.3,1.4-.5,2.2-.6-.4-.3-.8-.6-1.3-.8-.2,0-.4-.3-.4-.5,0-.4-.2-.3-.5,0-.4.3-.8.6-1.2.8-.7.4-1.5.7-2.3,1,1.8.6,3.3,2,4,3.8Z"/>
      <path id="Path_3223" class="st3" d="M81.9,54.3c-.3,0-.6-.3-.7-.6,0-.4-.3-.8-.4-1.1-.2.6-.3,1.3-.2,2,0,1,1,1.8,2.1,1.7h0c.4,0,.8-.2,1.1-.5.6-.5,1.2-1.1,1.6-1.7.3-.3.5-.6.5-1-.3.2-.5.5-.7.7-.5.6-1.2.9-2,.8-.3,0-.6,0-.9,0h0c.1-.4-.2-.2-.3-.3Z"/>
      <path id="Path_3224" class="st2" d="M79.4,52c0-.4,0-.7.4-.7s.9-.4,1.5,0c.3,0,.6,0,.9,0,0,.4-.5.3-.6.4.5.8,1.1.3,1.6,0q0,0,0,0s-.2-.2-.2-.4.2,0,.4,0c.3,0,.7,0,1,.3.4,0,.7.2,1,.3.4.2.8.4,1.2.4s.2,0,.2.2c0,.6,0,1.2-.4,1.7-.4.5-.6,1.2-.7,1.8,0,.7-.4,1.4-1,1.8.7-1.4,1.2-2.8,1.4-4.4-.2,0-.3.3-.3.5-.5,1-1.2,1.8-2.1,2.4-.9.7-2.2.6-2.9-.3-.2-.3-.4-.6-.4-.9,0-.6,0-1.2,0-1.8,0-.2,0-.5,0-.7h0c0,.2,0,.5,0,.7,0,.8,0,1.5,0,2.3,0,.5,0,.9,0,1.3,0,.5,0,1,.3,1.5,0,0,0-.2.3-.2,0,.4.5.3.5.3.5-.2.6-.6.8-1,0,0,0,0-.2-.2-.3,0-.5-.2-.7-.3.6,0,1.2,0,1.7.2,0,0-.3.2-.4,0,0,0-.2,0-.2.2,0,.3,0,.7,0,1,0,.4.5.5.8.4,0,0,0,.3,0,.4,0-.2.3,0,.5-.2.3-.4.9-.6,1.2-1.1,0,0,0-.2.3-.2.2,0-.2.3,0,.4.2,0,.4,0,.6,0,0,0,.2-.2.4-.2-.2.3-.5.6-.6.9.2,0,.3,0,.4,0,1-.6,2.1-1.2,3.1-1.6.8-.2,1.4-.8,1.8-1.6.3-.7.5-1.4.8-2.2.3.2.4.3.6.2.9-.3,1.7-.6,2-1.6.2-.5.2-1.1.2-1.6s0-.6-.4-.8c-.3-.2-.6,0-.9,0-.2.2-.5.3-.7.4-.3,0-.5.3-.4.6s-.4.5-.4.9-.2,0-.3,0,0,0,0-.2c.2-.3.2-.4,0-.8,0,0,0,0,0-.2,0-.2.4-.5,0-.7,0,0,0-.2,0-.2s0,0,0,0c0,0,.2,0,.3,0,0-.2-.3-.3,0-.3.3,0,.2-.2,0-.3,0,0-.3-.3-.3-.6,0-.3.3-.3.5-.5-.2,0-.5,0-.4-.4,0-.3,0,0,.2,0,0-.8-.6-1.4-1.4-1.6-1.4-.4-2.9-.8-4.3-1.3-1.8-.5-3.7-.6-5.6,0,.6.2,1.1.8,1.3,1.4-.5,0-.8-.4-1.2-.6-.4-.2-.8,0-1,.4h0v.2c0,.5,0,1.1,0,1.6s0,.2,0,.3c-.4.6-.8,1.3-1,2-.5,1.2-.4,2.5.3,3.6,0-.2,0-.4,0-.6l1,2.2c-.2-1.1-.3-2-.7-2.8ZM92.4,50.6c.2-.2.3-.4.5-.6.5-.6.9-.5,1.2.3l-.5-.2c.2.4.6.8.3,1.3-.2.4-.6.7-1,.9,0-.4.4-.7.5-1s0-.7,0-1.1c-.2.2-.4.3-.3.6s0,.4-.3.5c0,0-.2,0-.2,0h0c0-.2-.3-.3,0-.6h0ZM85.4,51.2c0-.4,0-.9.3-1.2,0,1,.5,1.4,1,2-.7,0-1.2-.4-1.3-.8h0ZM87.4,47.9c0,.2,0,.4,0,.7,0,.2,0,0,0,0-.4.2-.8.3-1.2.2-.2,0-.5,0-.8,0,.2-.3.5,0,.8-.2,0-.3,0-.6,0-.8-.5-.2-.7,0-1,.4.3-.7,1.2-1,1.9-.7h0c0,0,0,0,.2,0h0c-.3-.5-1-.7-1.5-.4q0,0-.4,0c.6-.5,1.4-.4,1.8.2h0v.3h0c0,.3.3.3.6,0-.4.4,0,.2,0,.4,0,.2-.4-.1-.6-.2h0ZM90.9,50.9c-.2.7-.7,1.2-1.4,1.4.4-.5.9-1,1.4-1.4ZM87.4,45c.5,0,1,.3,1.2.7,0,.2.2.3.3.6,0,0-.2,0-.2,0-.7-.5-1.6-.6-2.4-.2-.4,0-.8.2-1.2.2.7-.6,1.4-1,2.3-1.2ZM84.6,51c0-.4,0-.7,0-1.1.6.4.6.7,0,1.1ZM84.7,48c0,.3-.2.5,0,.8-.4-.3-.4-.4,0-.8ZM84.2,50.7c-.3-.2-.6,0-1,0,.3-.5.6-.6,1,0ZM81.2,50.6q0,0-.3,0c-.2,0-.6-.3-.6-.5s0-.5.5-.7c0,.2-.2.4-.2.6s0,.2.2.2.3,0,.2-.2c0-.2,0-.5.2-.7,0,.7.5,1.3,1.2,1.7-.5.2-.9,0-1.2-.4ZM82.7,46.9c.5.6,0,1.7-1.2,2.2l.5-.6-.6.2c.6-.5,1.4-.8,1.3-1.8ZM80.1,46.8c0-.2,0-.3.2-.4.5-.6,1-.6,1.5,0-.8-.5-.9-.5-1.5,0h.4c.5,0,1,0,1.3.5.2.2.2.5,0,.7-.2.3-.3.6-.8.6s-1-.2-1.1-.8c.2.3.5.5.8.6,0-.2-.2-.4,0-.6,0-.2.3-.3.5-.4-.2-.3-.6-.3-.9-.2h-.3c0,.1-.2.1-.2,0,0-.2.1-.1.1-.1h0ZM78.9,51.3c.4-.3.9-.6,1.4-.9-.2.8-.6,1-1.4.9Z"/>
      <path id="Path_3225" class="st1" d="M79.2,44.7c0-.4.4-.7.5-1.2-.7.2-.4.8-.5,1.2Z"/>
      <path id="Path_3226" class="st3" d="M84.7,52.6c-.6,0-1.1-.5-1.7-.4-.6.2-1.2,0-1.7,0-.3,0-.5,0-.8,0s-.4,0-.4,0,.2.2.4.2.5,0,.7,0c.5.3,1.1.4,1.7.4.8.2,1.6,0,2.3,0,0-.1-.3,0-.5,0Z"/>
      <path id="Path_3227" class="st1" d="M82.9,52.9c-.6,0-1.3,0-1.9-.3h0c.2.4.4.8.5,1.1,0,.2.2.3.4.3,1,.3,2,0,2.9-.3.3-.2.6-.5.9-.8-.5,0-1.1.2-1.6.2-.4,0-.7-.2-1.1-.2Z"/>
      <path id="Path_3228" class="st1" d="M48.8,57.7c-.5-.9-1.5-1.4-2.5-1.4-1.1,0-2,.6-2.6,1.5-1.1,1.4-1.6,3.2-1.4,5,.4-.4.8-.7,1.2-1,.9-.7,1.9-1.3,3-1.6.6-.2,1.3,0,1.6.7.3.6.3,1.3.1,1.9-.3.7-.7,1.4-1.3,1.9l-1.8,1.7c-.6.5-.5.9.3,1.1.7.2,1.5,0,2.2-.3,1.8-1.1,2.8-3.2,2.7-5.3,0-.4-.1-.8-.1-1.2-.4-1-.8-2-1.4-3ZM42.4,62.2c.5-1.7,1.5-3.3,2.9-4.6-1.1,1.4-2.1,2.9-2.9,4.6ZM48.7,64.6l.3-2.1c.1.7,0,1.5-.3,2.1Z"/>
      <path id="Path_3229" class="st5" d="M82.9,72.6c.2,0,.3,0,.3-.2.6-1.3,1.4-2.5,2.3-3.7.3-.4.6-.6.2-1.2-.3-.6-.6-1.3-.8-2,0-.4-.3-.9-.6-1.2s-.4-.2-.7,0c-1,.9-2.3,1.3-3.6,1-.5-.2-1.1,0-1.3.6h0c0,.4,0,.8,0,1.1,0,.7-.2,1.3-.6,1.8-.2.4-.5.7-.8,1s-.3.4-.2.6c0,0,.3,0,.5,0s.3,0,.5,0c.6.2,1.2.3,1.8.3.5,0,1-.2,1.5-.4.6-.2,1.1-.3,1.6-.5-.9.6-1.9.9-3,1,1,.7,2,1.1,3,1.6ZM79.4,66.3c.4-.3.9-.4,1.3-.4s.5,0,.9,0c-.6.3-1.2.3-1.8.5,0,.2.4.3.2.6-.2.2-.2.3-.4.3s-.3-.2-.3-.3c-.1-.3-.1-.4,0-.6ZM82.6,66c-.5.3-1.1.4-1.7.3l1.7-.3ZM77.9,70.6c1.7-.8,3.4-1.5,5-2.3-1.4,1.2-3.1,2-5,2.3ZM81.6,70c.6-.5,1.3-.9,2.1-.9l-2.1.9Z"/>
      <path id="Path_3230" class="st2" d="M79.7,61.7c-.3.3-.4.7-.2,1.1.3.7.5,1.4.6,2.2,0,.3,0,.3.4.2.5-.2,1-.3,1.5-.5.7-.2,1.4-.7,1.7-1.4,0-.3.4-.5.8-.4h.3c1.2-.3,2.4-.9,3.5-1.6.5-.3.9-.9,1.1-1.5,0-.4.2-.8.4-1.2,0-.4.3-.8.5-1.3-.7.5-1.4.9-2.3,1.2l.4-.4c0,0,.4-.2.4-.5-1.1.5-2.1,1.1-3.1,1.7-.9.6-1.9,1.1-3,1.6-.5.2-.7.2-1-.2,0,.7-.3,1.3-.7,1.9,0-.6,0-1.2.2-1.8-.6,0-1.2.4-1.5.9ZM87.9,58.6h0l-1.2,1.3h0c0,0,1.3-1.3,1.3-1.3ZM85.9,61.1c-.6.5-1.2.9-2,1.2l2-1.2Z"/>
      <path id="Path_3231" class="st5" d="M82.7,43.1c1.5,0,2.9.4,4.3.8,1.8.5,3.5,1.3,5.3,2,1.2.4,2.3,1,3.2,1.9,0,0,.2,0,.3,0h0c-.5-.9-1.1-1.6-1.9-2.2.5,0,1,0,1.4.4,0-.8,0-1.6.2-2.4,0-1,0-1.9,0-2.9-.2-1.1-.6-2.1-1.2-3.1-.7-1.2-1.8-2.2-3.1-2.8.4,0,.9.1,1.3.3-.3-.6-.7-1.1-1.3-1.5-.3-.4-.8-.6-1.3-.6-.9,0-1.8.3-2.7.7-1,.5-1.8,1.1-2.5,1.9.4-.8,1.1-1.5,1.8-2-1.2.6-2,1-3.4,4.1,0-.6.3-1.1.5-1.6.3-.5.6-1,.9-1.5-2.2,1-5.2,4.9-5.5,7.2l1.2-.2h0l-1.3.6h.4c1-.2,2-.4,3.1-.4,1.1,0,2.1,0,3.2.3,1.6.2,3.1.9,4.3,2l-1.5-.6c-1.7-.7-3.4-1.1-5.3-1.1s-1.9,0-2.9.2c-1.4.2-2.7.6-4,1.2-.3,0-.5.4-.6.7.5-.2.8-.4,1.2-.6,2-.8,4-1,6-.9ZM93.4,43.7c0,.2,0,.5-.5.5s-.2-.3-.2-.5,0-.2,0-.3c0-.2,0-.4.4-.4s.3.3.3.5q0,.1,0,.2h0ZM94.1,45c-.3,0-.2-.3-.3-.5s.3-.7.5-.6.2.3.2.4c-.1.3,0,.7-.4.7h0ZM95.2,43.1c-.3-1.2-.6-2.3-1-3.5-.4-1.1-1-2.2-1.7-3.1,1.3.8,3.1,4.1,2.7,6.6h0ZM87.4,35.5c-.7.3-1.2.8-1.7,1.4s-1,1.1-1.7,1.5c-.2.1-.5.2-.7.1.7-.3,1.4-.8,1.8-1.5.8-1.2,1.9-2,3.3-2.3.8-.1,1.5-.1,2.3.1-1.2.1-2.2.3-3.3.7Z"/>
      <path id="Path_3232" class="st1" d="M91.9,47.8c0,0,0,.2,0,.2h.1c0,0,.3,0,.4,0,0-.2,0-.2-.2-.2s-.3,0-.4,0Z"/>
      <path id="Path_3233" class="st5" d="M66.9,85.3c0,.4,0,.6.6.6,1.6,0,3.2,0,4.8.3,1,0,1.9.3,2.8.5.9.2,1.8.5,2.7.9,0,0,.3,0,.3,0h0c0-.2,0-.3,0-.3-.3-.2-.6-.4-.8-.6-1.2-.7-2.3-1.6-3.3-2.5-.4-.4-.8-.8-1.2-1.2-.8-.8-1.6-1.6-2.4-2.4s-1.2-1.3-1.8-2.1c-.3.8-.5,1.5-.7,2.3-.5,1.5-.8,3-.9,4.6Z"/>
      <path id="Path_3234" class="st5" d="M59.9,83.8c1.7-.3,2.8-1.9,2.6-3.6-.4,1.5-1.3,2.8-2.6,3.6Z"/>
      <path id="Path_3235" class="st1" d="M93.4,84.1s0,0,0,.2,0,0,0,.2c0,0,0,0,.2,0l.3-.5h0c-.1,0-.3.1-.4.2Z"/>
      <path id="Path_3236" class="st4" d="M69.2,74.5c.6-.6,1.1-1.4,1.3-2.3.2-.4,0-.9-.2-1.2,0,1-.3,1.9-1,2.5.4-1.1.8-2,0-3,.2,1,0,2-.3,2.9-.5.8-1.3,1.4-2.2,1.8,1.2-.7,2-1.8,2.3-3.2,0-.7.3-1.4-.3-1.9-.4-.3-.8-.7-1.1-1.1-.6-.7-1-1.4-1.4-2.2-.3-1-.7-1.9-1.4-2.7,0,0-.2-.3-.3-.4-.4-.5-.5-1.1-.8-1.7-.6-.9-1.2-1.3-2-.3-.3.4-.6.7-1,1-.3.2-.5.5-.6.8,0,.2,0,.6.1.6.4,0,.8.3,1.2,0,.4-.3.5-.4.3-.8.3.3.4.7.7.7.4,0,.7,0,1,0-.2,0-.4,0-.6,0-.8,0-1.6.3-2.5.4-.8,0-1,.5-.8,1.2,0,.2.1.4.4.3.7-.2,1.4-.3,2.1-.2l-2.4.8c-.4,0-.6.5-.6.8h0c0,.2,0,.3.1.4,0,.3.1.3.4.3.7,0,1.4-.3,2-.8l-.4.4c.2,0,.5-.2.7-.2-.7.6-1.5,1-2.4,1.2-.4,0-.5.4-.4.7.3.8.9,1.4,1.6,1.8.1,0,.3,0,.3-.2s-.2-.5-.5-.6c-.2,0-.4,0-.5-.4.7-.2,1.3.2,2.1,0-.6.6.2.5.3.7-.3.3-.6,0-.9,0,.6,2,2.1,3,4,3.8h-.3c0,0-.3,0-.3,0s0,.2.3.2c.3,0,.7.2,1.1.2,0,.2-.4.2-.4.3.4.7.9.3,1.4.2.3,0,.6-.2.9-.3-.2.2-.4.3-.7.4-.6.3-1.2.7-1.9,0,0,0,0,0,0,0h0c0,.4.3.7.6.7.6,0,1.1,0,1.6-.3.5-.5,1-1,1.4-1.6ZM68.2,69.8c-.7-.5-1.2-1.2-1.4-2l1.4,2ZM67.7,71c-.9-.8-1.6-1.8-1.9-3,.6,1,1.2,2,1.9,3ZM65.2,68.7l1.8,2.9c-.8-.9-1.4-1.8-1.8-2.9h0Z"/>
      <path id="Path_3237" class="st5" d="M60.4,80.1c.2-.6.5-1.2.7-1.7.4-.8.6-1.8.4-2.7-.2-1.1-.7-2.1-1-3.2,0-.2-.2-.4-.3-.6.2.8.3,1.6.4,2.3.2.7.2,1.5,0,2.2-.4,1.4-1.5,2.2-2.4,3.2-.7.7-1.4,1.3-2.2,1.8-.6.6-1.4.9-2.2.9,0,0,.1.2.2.2.6.4,1.3.7,2,.9.3,0,.7,0,1,0,1.1-.4,2.2-1,3.1-1.8l1.4-1.1c-1,1.4-2.4,2.5-4,3.1.2,0,.4.2.6,0,.9-.2,1.8-.6,2.5-1.3.8-.9,1.4-1.9,1.7-3,.6-1.6.1-3.1-.4-4.6.4,1.9-.1,3.9-1.5,5.3Z"/>
      <path id="Path_3238" class="st5" d="M63.6,74.1c-.5-.2-.9-.5-1.2-.9.7,1.8.5,3.6.5,5.4.1,0,.2-.2.2-.3,0-1.3.4-2.6.6-4,0,0,0,0,0-.2Z"/>
      <path id="Path_3239" class="st1" d="M96,81.3c-.9.9-2,1.6-2.9,2.6,1.2-.6,2.2-1.5,2.9-2.6Z"/>
      <path id="Path_3240" class="st5" d="M78.4,87.5q0,0,0,0c0,.4-.4.2-.7,0-2.2-.8-4.6-1.3-6.9-1.5-1.2,0-2.4-.2-3.6-.2s-.3,0-.3-.4c0-.6,0-1.2.2-1.8.2-1.3.4-2.7.8-4,0-.5.3-1,.5-1.5,0-.2,0-.5-.3-.6h0c-.2,0-.2,0-.2.3-.3,1.2-.7,2.5-1,3.7-.3,1.4-.5,2.8-.6,4.2,0,.5,0,.6.6.7.9,0,1.7.3,2.6.3.4,0,.9,0,1.4,0l-1.1-.3c.7,0,1.3,0,2,0,1.8.5,3.5,1.1,5.3,1.5.5,0,1,.2,1.5.2s.6-.2.6-.5c-.2-.2-.5-.4-.7-.5Z"/>
      <path id="Path_3241" class="st1" d="M62.2,51.2c.2,0,.5.2.7,0,.9-.8,1.9-1.6,2.8-2.4q.4-.4,0-.9c-.2-.3-.3-.2-.5,0-.6.5-1.2.9-1.8,1.4l-2.5,2c.3,0,.7,0,1.2,0Z"/>
      <path id="Path_3242" class="st5" d="M83.1,74.5c-1.4,0-2.7-.3-4.1-.5-1.7-.3-3.4-.7-5.1-1.2-.7-.2-1.4-.5-2-.7-.3,0-.3,0-.4.2s-.3.4,0,.6c.3.2.2,0,.2,0,0,0,.2-.2.5,0,.5.2.9.4,1.3.7,1,.4,2,.8,3.1,1.1,1,.3,2.1.5,3.2.6.7,0,1.4,0,2,0,.4,0,.6,0,.4.5,0,.2,0,.4,0,.6s0,.2,0,.2c.3,0,.7,0,.8-.4s.2-.7.4-1c0-.4,0-.5-.2-.5Z"/>
      <path id="Path_3243" class="st5" d="M81.7,75.1c-.7,0-1.5,0-2.2,0-.9,0-1.7-.2-2.6-.5-1.7-.4-3.2-1-4.7-1.8,0,0-.3-.2-.4,0,0,.2,0,.3,0,.4.3.3.7.6,1,.9,1,.8,2.1,1.4,3.4,1.8.9.2,1.8.3,2.6.6.5.2,1.1.3,1.6.2,1-.2,1.3-.4,1.4-1.2q0-.4-.2-.4Z"/>
      <path id="Path_3244" class="st5" d="M98,76.9h0c0,0-1.3,2.5-1.3,2.5.9-.9,1.6-1.9,2.1-3.1.3-.7.5-1.6.4-2.4,0-1-.3-2-.5-3-.4-2.1-1.9-3.9-4-4.5-.3,0-.6,0-.9,0-1.3.8-2.4,1.8-3.4,3-.5.5-1,1.1-1.5,1.7,1.4-1.1,3.2-1.6,5-1.4-.7,0-1.5.2-2.2.4-1.7.6-3.2,1.7-4.3,3.1,0,0-.2.2,0,.3,0,0,.2,0,.3,0,.6-.2,1.2-.5,1.8-.7,1.4-.6,3-.6,4.5-.2-.6,0-1.1,0-1.7,0-.9,0-1.9.3-2.8.6-1.3.5-2.5,1.1-3.7,1.8-.4.2-.8.4-1.3.6.3,0,.6.2.9.3,1,.5,1.8,1.1,2.5,2,0,0,0,.2,0,0,.2-.3.2,0,.2,0,.3.7.6,1.4.9,2.1.4,1,.8,1.9,1.2,3,.2-1.9,1-3.7,2.3-5.2-.9,1.8-1.5,3.8-1.8,5.8,2.2-3.1,4.2-6.5,5.7-10-.4,1.3-.8,2.5-1.4,3.6-1.2,2.4-2.6,4.7-4.3,6.8-.2.2-.4.4-.3.8,3-2.1,5.5-5,7.5-8.2ZM89.1,72.9c1.1-1.1,2.6-1.8,4.1-2.1-1.4.7-2.8,1.3-4.1,2.1h0ZM91.9,71.7c.9-.6,1.9-.9,3-.8-1,.2-2,.5-3,.8ZM93.9,71.6c.5-.3,1.1-.5,1.7-.4l-1.7.4ZM93.4,75.7c.2-.5.6-.9,1-1.2-.3.4-.6.8-1,1.2h0ZM94.4,71.8c.5-.2,1.1-.3,1.6-.2l-1.6.2ZM98,73c0,1.8-.6,3.6-1.3,5.2.2-1.7.6-3.5,1.3-5.2h0Z"/>
      <path id="Path_3245" class="st6" d="M85.4,74.8c1.3-1.7,2.4-3.6,3.8-5.3.6-.7,1.2-1.4,2-2,1.2-.9,2.5-1.6,3.9-2.3-1.2.2-2.3.5-3.4.9,1.2-.7,2.5-1.2,3.8-1.4-.8-.3-1.6-.4-2.3-.7-.5-.2-1-.2-1.4,0-2,1-3.8,2.6-5,4.5-1,1.3-1.8,2.8-2.6,4.2-.4.7-.7.9-1.2.7-1.2-.4-2.4-.6-3.7-1s-2.5-.7-3.7-1c-1.1-.2-2.2-.3-3.2-.4-.4,0-.8,0-1.3,0,.3.5.4,1,.3,1.5,0-.2,0-.3.2-.5,0-.4.2-.5.6-.4.4,0,.8.2,1.2.4,3.3,1.3,6.8,2,10.4,2.1.4,0,.4.2.3.5,0,.3-.4.8-.6,1.2.2,0,.4,0,.6,0,.3-.2.9-.5,1.3-.9ZM94.1,64.7c-1.3.5-2.7.9-4,1.3,1.2-.8,2.6-1.2,4-1.3ZM87.7,70.4c-.8,1.4-1.7,2.8-2.5,4.2.5-1.5,1.3-3,2.5-4.2Z"/>
      <path id="Path_3246" class="st2" d="M72.9,74.6c-.7-.6-1.3-1.2-1.9-1.8-.4.6-.7,1.1-1.1,1.7-.4.8-1.1,1.5-1.9,2-.2,0-.2.2,0,.4.8,1.1,1.6,2.2,2.6,3.2s1.9,2,3,3c.8.7,1.6,1.4,2.4,2,.8.6,1.8,1.1,2.6,1.8,1.1.9,2.4,1.5,3.7,1.9.3,0,.6,0,.8-.2.3-.3.5-.7.6-1.1.4-.8.7-1.6.7-2.5s0-1,0-1.5c.2-.8.2-1.6,0-2.4-.2-1.2-1-2.1-2.2-2.4l.8,1c-.5-.4-1-.8-1.5-1.2-1.2-1-2.7-1.7-4.3-2-1.5-.3-3-.9-4.3-1.9ZM80.2,87c1.1,0,2.1.5,3.2-.4-.4,1-1.4,1.2-3.2.4ZM83.2,84.2c-.4.5-.9.9-1.6,1,.5-.4,1-.7,1.6-1ZM81.2,84.3c-.2.3-.6.5-1,.6.3-.3.6-.5,1-.6ZM78.4,83.4c-.5.2-1,.3-1.6.2.6-.2,1.1,0,1.6-.2ZM75.2,82.4c.9,0,1.7.2,2.5.4-.6.5-2.2.3-2.5-.4Z"/>
      <path id="Path_3247" class="st2" d="M54.7,81.5c1.1-.7,2.1-1.4,3.2-2.1.7-.6,1.3-1.2,1.7-2,.6-.8.9-1.9.6-2.9-.2-.9-.3-1.7-.3-2.6s-.3-1.2-.7-1.7c-.4-.5-.8-1-.4-1.6.1-.2,0-.3-.1-.4-.6-.6-1.1-1.2-1.6-1.8s-1.3-1.4-1.8-2.2c-.4-.6-.9-1.1-1.4-1.4-.2,0-.4-.2-.4.2s-.1,1-.2,1.4c-.4,1.7-.8,3.4-1.2,5-.3,1.4-.5,2.7-.6,4.1,0,.4,0,.9.1,1.3,0,.6.2,1.1.4,1.7.7,1.6,1.4,3.2,2,4.8,0,.4.3.4.7.2ZM57.6,78.3c-.2.6-.8.9-1.4.8.4-.3.8-.6,1.4-.8h0ZM55.8,78.7c.2-.2.5-.4.9-.4-.2.3-.6.4-.9.4ZM55.3,78.2c.4-.2.9-.4,1.4-.4-.4.3-.9.5-1.4.4h0ZM54.9,77.5c.4-.2.8,0,1.1-.2-.3.3-.8.4-1.1.2h0ZM54.3,76.8c.5-.2,1.1-.3,1.6-.2-.4.4-1,.5-1.6.2h0ZM53.9,76c.5,0,.9,0,1.3.2-.4,0-.9,0-1.3-.2h0ZM55.2,75.5c-.5,0-.9,0-1.3-.3.5,0,.9,0,1.3.3h0Z"/>
      <path id="Path_3248" class="st1" d="M59.9,53.6c.2,0,.3-.3.2-.5-.1-.4,0-.9.2-1.3.1-.2.4-.3.4-.6-.4.3-.7.6-1.1.8s-.6.6-.5,1.1c0,.5-.2,1-.6,1.4-.7.5-1.4,1-2.2,1.4-.2.2-.5.2-.8.4s-.8.5-1.2.2c-.2,0-.3,0-.4,0,.2-.2.3-.5.2-.7h-.1c-.2-.3-.3,0-.5.1h-.1s0,0,.1,0c.5-.2.4-.6.2-1h0c0-.4-.2-.4-.4-.3,0,0,.3-.2.1-.4s-.2,0-.4,0l-2.3,1.6c-.6.5-1.2.9-1.7,1.4-.1,0-.2,0-.1.2s.2,0,.3,0h.1c-.2.3.1,1,.5,1.2-.1.3,0,.6.3.8,0,0-.1,0-.1.2.2.7.3,1.4.3,2.2.3-.2.5-.3.6-.5l5.1-4.3,3.9-3.3Z"/>
      <path id="Path_3249" class="st1" d="M53.3,81.5c-.1-.5-.3-1-.5-1.5,0,.5.2,1.1.5,1.5Z"/>
      <path id="Path_3257" class="st0" d="M60.9,51.2h0Z"/>
      <path id="Path_3258" class="st0" d="M79.2,44.7h0Z"/>
      <path id="Path_3259" class="st0" d="M94.4,86.5c.3-.3.3-.7,0-1h0c-.2-.3-.2-.4,0-.6.4-.5.7-.9,1-1.5.7-1.1,1.2-2.4,2-3.4.8-1.1,1.5-2.3,2-3.6.2-.5.3-1.1.3-1.7,0-1,0-2-.4-3-.5-1.4-.5-2.9-1-4.2-.6-1.5-1.8-2.8-3.4-3.3-1.3-.4-2.5-1-3.6-1.7-.2,0-.3-.2-.3-.4v-.9c0-.7-.2-1.4-.6-2-.2-.4-.3-.8-.2-1.2.3-1.1.8-2.2,1.4-3.2.3-.5.5-1,1.1-1h0c.8-.5,1.4-1.1,1.7-1.9.3-.6.7-1.1,1.2-1.4.4-.2.6-.8.4-1.2v-.2c0,0,0-.2,0-.2.6-.7.3-1.4,0-2-.2-.4-.3-.9-.2-1.4,0-.6.2-1.2.2-1.9s0-1.7,0-2.5c-.2-1.5-.7-2.9-1.6-4.1-.6-.9-1.4-1.6-2-2.5-.8-1.6-2.8-2.4-4.5-1.7-.9.3-1.8.7-2.6,1.1-1.4.7-2.6,1.6-3.7,2.7-1.4,1.4-2.3,3.2-2.8,5,0,.3-.2.5-.5.6-1.1.4-2.1,1-2.8,1.9-.2.2-.2.4,0,.6,0,.3.3.4.6.5.9.3,1.7.4,2.6.4s.7,0,.5.5v.4c0,.4.2.9-.2,1.2q0,0,0,.2c-.6.8-.9,1.7-1.1,2.6,0,1.4.3,2.7,1,3.9.3.5.5,1,.6,1.6,0,.7,0,1.3,0,2,0,.2,0,.4-.2.5h0c-.9.5-1.8,1.1-2.7,1.5-.7.3-1.4.5-2.1.3-.7-.2-1.4-.2-2,0h-.3c-.7-.2-1.5-.3-2.3,0-1.7.3-3.2,1-4.6,2q-.7.5-1.2-.3c-.3-.4-.5-1-1-1.2s-.4-.4-.4-.7c.2-.8.4-1.6.6-2.5,0,0,0-.2,0-.3.7-.7,1.2-1.7,1.4-2.7.2-.7,0-1.4-.2-2-.3-.4-.8-.7-1.3-.8-.3,0-.2-.2,0-.3l1-.8c.7-.5,1.2-1.2,1.9-1.7.2-.2.3-.2.5,0,.5.4,1.1.6,1.7.5,1.8-.3,3.3-1.8,3.5-3.6,0-.6.2-1.1.5-1.5.2-.3,0-.6-.2-.8-.5-.3-1.2-.2-1.6,0-.7.6-1.4,1-2.2,1.4-.3.2-.4,0-.4-.3,0-.8.4-1.6,1.2-2s1.5-.9,2.3-1.3c.3-.2.3-.4.2-.6,0-.2-.2-.4-.4-.4-.3,0-.7-.2-.9-.4-1.1-.9-2.6-1-3.8-.3-1.6,1.1-2.6,2.8-2.6,4.8s-.3,1-.7,1.3l-2.3,1.7c-.2.2-.5.4-.7,0-.1,0-.2-.2-.3-.3-.9-.8-2.3-.8-3.1,0-.3.3-.6.7-.8,1.2-.5.8-1.1,1.5-2,2-.4.4-.8.7-1.2,1-.8.4-1.4,1.1-1.7,2-.1.4-.1.7-.1,1.1s0,.7-.4,1c-.6.4-1.3.9-1.9,1.4-.2,0-.3,0-.4,0-.5-.4-1-.7-1.6-.8-1.5-.5-3.2,0-4.2,1.2-1.1,1.3-1.8,3-1.9,4.7,0,.3,0,.7-.2,1-.1.3-.1.7.2,1,.6.3,1.3.2,1.9-.2.7-.7,1.5-1.4,2.4-2,.2,0,.4-.3.6,0,.2.2.3.6.1.8-.2.3-.4.6-.7.8-1.2.9-2.2,2-3.4,2.8-.3.2-.2.5-.1.8s.3.3.5.3.4,0,.5.2c.3.2.5.3.8.4.7.3,1.6.3,2.3,0,.6,0,1.2-.3,1.8-.5,1.6-1.1,2.7-2.8,2.9-4.8,0-.4,0-.9.4-1.2.2,0,.3-.3.5-.4.5-.4.9-.8,1.4-1.2.2.6,0,1.2.5,1.6v.2c-.2.7-.3,1.4-.2,2.1v.3c-.2.8-.5,1.5-.6,2.3-.5,2-.9,4-1.2,6-.1,1.3-.1,2.5.2,3.8.3,1.4.9,2.6,1.2,4,.3,1.8,1.7,3.3,3.6,3.6.6.2,1.3.2,1.9.3.5.2,1,.3,1.5.3.9,0,1.8-.4,2.5-1,.1,0,.1-.2.2,0v.2c-.1.2-.1.4-.1.6,0,1.1.2,2.2.4,3.3.1.8.4,1.5.6,2.2h0c0,0,.9,0,.9,0v-.2c0-.6,0-1.2,0-1.7,0-1.2,0-2.4,0-3.6,0-.4,0-.9,0-1.3,0-.8,0-1.6,0-2.5-.9,1.8-.7,3.7-.9,5.6-.1-.3-.1-.7-.1-1,.2-1.5.2-3,.4-4.5,0-.9.2-1.8.4-2.7,0-.7.5-1.3.5-2-.4.8-.6,1.6-.8,2.4-.3,1.4-.5,2.9-.6,4.3,0,.2-.1.3-.1.5.1-2.9.6-5.8,1.5-8.5.2.2.3.5.2.7.3,0,.5,0,.5.4,0,.7.5,1.3,1.2,1.3h.3c.3,0,.4,0,.6.3,0,.2.4.3.2.7-.4.8-.7,1.7-.9,2.6-.3,1.2-.5,2.4-.7,3.7,0,.8-.2,1.5-.3,2.2,0,.6,0,.7.6.8.9,0,1.7.2,2.6.3,1.1,0,2.2.3,3.4.3s1.5.2,2.2.5c1.2.5,2.4.8,3.7.9.6,0,1-.2,1.2-.8.5.4,1,.7,1.6.8.3,0,.6.3.7.5,0,0,0,.2.2.2h.9c-.2-.2-.3-.3-.4-.6.7.2,1.5-.3,1.6-1v-.2c.3-1,.7-2,.9-3v.7c0,0,0-.2,0-.3.3-1.5.3-3,0-4.4-.2-1.3-1-2.4-2.2-3-.7-.3-1.3-.7-2-1,0,0-.2,0-.2-.2s0,0,.2,0c.7,0,1.5-.2,2.2-.5.5-.2,1-.3,1.4-.2,1.3.4,2.4,1.2,3.2,2.4.7,1.2,1.2,2.5,1.5,3.8.3,1,.2,2,.6,3v-1c0,.2,0,.4,0,.7,0,.5,0,.9-.3,1.3-.6.8-1.4,1.3-2.3,1.6.4-.9.6-2,.4-3,0,2.1-1.3,4-3.1,5h1.5c.2,0,.4-.3.5-.5.3-.5.8-.8,1.3-1,.2,0,.3,0,.4-.2.7-.3,1.4-.8,2-1.4,0,.4-.3.8-.5,1.2-.2.3-.3.6-.5,1-.2.3-.3.6-.3.9h0c.7-1.6,1.5-3.2,2.3-4.7-.7,1.5-1.2,3.1-1.9,4.6h.2c.4-1.1.8-2.1,1.2-3.1.3-.8.5-1.6,1.3-2.2l.8,1.2c0,0,0,.3,0,.4-.5.6-1,1.2-1.4,1.8-.4.6-.8,1.2-1.1,1.9h0c.2-.3.4-.6.6-1,.6-.9,1.2-1.7,1.9-2.5.3-.2.3-.5,0-.8h0c-.2-.3-.4-.7-.7-1,0,0,0-.2,0-.3s.2,0,.2,0c.4.5.8.9,1.2,1.3s0,.3,0,.4h0c-.3.3-.5.6-.8,1-.7.8-1.4,1.7-1.9,2.7h.8c1.1-1,1.9-2.2,2.9-3.2ZM96.7,65.6h-.7c-.5,0-.9,0-1.4.2-1.2.5-2.4,1.3-3.4,2.2-1.5,1.5-2.9,3.2-4.1,4.9-.4.7-.9,1.3-1.5,1.8.3-.5.7-1,1-1.5.9-1.4,1.8-2.6,2.8-3.9.9-1,1.9-1.9,3.1-2.6.9-.5,1.9-1,2.9-1.4.7-.3.9-.2,1.3.3ZM90.7,64.1c0-.2.2-.4.3-.6.3-.5.5-.5.9,0,0,0,.3,0,.4.2-.6.3-1.2.6-1.8.9.3-.4.8-.5,1.1-.9l-.9.4ZM90.2,60.4c.2.8.2,1.6,0,2.4-.3.9-.8,1.7-1.4,2.3-.8.8-1.6,1.6-2.5,2.3-.2.2-.2,0-.3,0-.2-.6-.3-1.1-.4-1.7-.2-.9-.7-1.7-1.3-2.3,1,0,2-.3,3-.7.8-.3,1.5-.6,2.2-1.1.4-.3.5-.8.4-1.2,0-.5,0-.9,0-1.4.1.4.3.9.3,1.5h0ZM81.2,70.8c-.5.2-1,.3-1.5.4-.6,0-1.2,0-1.8-.3-.2,0-.3,0-.5,0s-.5,0-.5,0c0-.2,0-.5.2-.6.3-.3.6-.6.8-1,.4-.5.6-1.2.6-1.8s0-.7,0-1c0-.5.6-.9,1.2-.8h0c1.3.3,2.6,0,3.6-1,.3-.2.5-.2.7,0,.3.3.5.7.6,1.2.2.7.4,1.3.8,2,.4.6,0,.8-.2,1.2-.9,1.1-1.7,2.3-2.3,3.6,0,0,0,.3-.3.2-1-.5-1.9-.9-3-1.3,1.1,0,2.1-.4,3-1-.5,0-1,.3-1.6.4h0ZM80.9,62.6c.4-.6.6-1.2.7-1.9.3.5.5.5,1,.2,1-.5,2-1,3-1.6s2-1.2,3.1-1.7c0,.3-.3.3-.4.5l-.4.4c.8-.2,1.6-.7,2.3-1.2-.2.5-.3.9-.5,1.3,0,.4-.3.8-.4,1.2-.2.6-.5,1.1-1.1,1.4-1,.8-2.2,1.3-3.5,1.6h-.3c-.3,0-.6,0-.8.4-.4.7-1,1.2-1.7,1.4-.5.2-1,.3-1.5.5-.3,0-.4,0-.4-.2,0-.7-.2-1.5-.6-2.2-.2-.4,0-.8.2-1.1.3-.5.9-.8,1.5-.9-.2.6-.3,1.2-.2,1.9h0ZM95.3,50c-.2,0-.4.2-.5.4-.2-.6-.3-1.2-.9-1.4,0,0,0,0-.2-.2-.5-.9-1.1-1.8-1.9-2.5v-.2l1.3.7h0c1.2.4,1.6,1.4,2.2,2.3.3.2.3.6,0,.9q.1,0,0,0h0ZM92.6,48c0,0-.3,0-.4,0s-.2,0-.2,0h0c.1-.3.2-.3.4-.3s.2,0,.2.3h0ZM76.9,43.9c-.4.2-.8.3-1.2.6,0-.3.3-.5.6-.7,1.2-.6,2.6-1.1,4-1.2,2.8-.4,5.6,0,8.1,1l1.5.6c-1.2-1.1-2.7-1.8-4.3-2-1-.2-2.1-.3-3.1-.3s-2.1.2-3.1.4h-.3l1.3-.6h0c0-.1-1.2.1-1.2.1.3-2.2,3.3-6.1,5.5-7.2-.3.5-.6.9-.9,1.5-.3.5-.4,1.1-.5,1.6,1.5-3.2,2.2-3.5,3.4-4.1-.7.5-1.4,1.2-1.8,2,.7-.8,1.6-1.4,2.5-1.9.8-.4,1.7-.6,2.7-.7.5,0,1,.2,1.3.6.5.4,1,.9,1.3,1.5-.5-.2-.8-.4-1.3-.3,1.3.6,2.3,1.6,3.1,2.8.6.9.9,2,1.1,3.1,0,1,0,1.9,0,2.9s-.2,1.6-.2,2.4c-.4-.2-.9-.4-1.4-.4.8.6,1.4,1.4,1.9,2.2,0,0-.2,0-.3,0h0c-.9-.9-2-1.5-3.2-1.9-1.7-.7-3.5-1.5-5.3-2-1.4-.4-2.8-.7-4.3-.8-2.1,0-4.1.2-6,.8h0ZM79.2,44.8h0c0-.5-.2-1.1.5-1.3,0,.5-.3.8-.5,1.3h0ZM78.7,52.5c0,.2,0,.4,0,.6-.6-1.1-.8-2.4-.3-3.6.2-.7.6-1.4,1-2,0,0,0-.2,0-.3,0-.5,0-1.1,0-1.6,0-.4.4-.7.8-.6h.2c.4.2.7.6,1.2.6-.2-.6-.7-1.1-1.3-1.4,1.8-.4,3.8-.4,5.6,0,1.4.5,2.9.9,4.3,1.3.8.2,1.3.8,1.4,1.6,0,0-.2-.2-.2,0s.2.3.4.4c0,.2-.4.3-.5.5s.2.4.3.6c0,.2.2.3,0,.3-.3,0,0,.2,0,.3s-.3,0-.3,0c0,0,0-.2,0,0,0,0-.2.2,0,.2.4.2,0,.5,0,.7s0,0,0,.2c.2.4.2.5,0,.8q0,0,0,.2c0,0,.3,0,.2,0,0-.4.5-.4.4-.9s0-.5.4-.6c.2,0,.5-.3.7-.4.3-.2.6-.2.9,0,.3.2.5.5.4.8,0,.5,0,1.1,0,1.6-.3,1-1.2,1.3-2,1.6,0,0-.2,0-.6-.2-.3.7-.5,1.4-.8,2.2s-1,1.3-1.8,1.6c-1.1.5-2.1,1-3.1,1.6,0,0-.2.2-.4,0,.2-.3.5-.6.6-.9,0,0-.2,0-.4.2-.2.2-.4.2-.6,0-.2,0,0-.3,0-.4,0,0-.2,0-.2.2-.3.5-.8.7-1.2,1.1,0,0-.4,0-.5.2,0,0,0-.3,0-.4-.2.2-.7,0-.8-.4,0-.3,0-.7,0-1s0-.2.2-.2c.2,0,.3,0,.4,0-.6-.2-1.2-.3-1.7-.2.2.2.5.3.7.3s.2,0,.2.2c-.2.4-.3.9-.8,1,0,0-.5,0-.5-.3,0,0-.2.2-.3.2-.4-.4-.2-1-.3-1.5,0-.4-.2-.9,0-1.3,0-.8,0-1.5,0-2.3,0-.2,0-.5,0-.7,0,0,0,0,0,0,.2.2,0,.5,0,.7,0,.6,0,1.2,0,1.8.2,1.1,1.3,1.9,2.4,1.7h0c.3,0,.6-.2.9-.4.9-.6,1.6-1.4,2.1-2.4,0-.2.2-.4.3-.5-.2,1.5-.7,2.9-1.4,4.3.6-.4,1-1,1-1.8s.3-1.3.7-1.8c.2-.6.3-1.1.4-1.7,0,0,0-.2-.2-.2-.4,0-.8-.2-1.1-.4-.3,0-.7-.2-1-.3s-.7-.2-1-.3c0,0-.3,0-.4,0,0,0,0,.3.2.4s0,0,0,0c-.6.2-1.1.7-1.6,0,0-.2.5,0,.6-.4-.3,0-.6,0-.9,0-.6-.2-1,0-1.5,0s-.5.3-.4.7c.3.8.4,1.7,0,2.6l-.6-2ZM82.2,54.6c.3,0,.6,0,.9,0,.8,0,1.5-.3,2-.8.3-.2.5-.5.8-.7,0,.4-.2.7-.5,1-.5.6-1,1.2-1.6,1.7-.7.7-1.9.7-2.7,0-.3-.3-.5-.7-.5-1.1,0-.7,0-1.3.2-2,.2.4.3.7.4,1.1,0,.4.4.5.7.6,0,0,.3-.2.3.2q0,0,0,0h0ZM84.7,53.8c-.9.5-1.9.6-2.9.3-.2,0-.3,0-.4-.3-.2-.4-.3-.7-.5-1h0c.6.2,1.2.3,1.9.2.4,0,.7.3,1.1.3s1.1,0,1.6-.2c-.3.2-.6.4-.9.7ZM83.1,52.8c-.6,0-1.2-.2-1.7-.4-.2,0-.5,0-.7,0s-.5,0-.5-.3.2,0,.4,0c.3,0,.6,0,.8,0,.5.2,1.1.3,1.7,0,.6-.2,1.1.2,1.7.4.2,0,.4,0,.6.2-.8.2-1.6.2-2.3,0h0ZM77.9,59.7c.4-.2.8-.5,1.2-.8.2-.2.4-.3.5,0,0,.2.2.4.4.5.5.2.9.5,1.3.8-.7,0-1.5.3-2.2.5-.4,0-.6.5-.5.9h0c0,0,0,.2,0,.2.2.6.6,1.2.8,1.8,0,.2.2.5,0,.8-.7-1.8-2.1-3.2-4-3.7.8-.3,1.6-.7,2.3-1.1h0ZM75.7,64.4c0,0,0,.3,0,.3s.2,0,.3-.3c.2-.7.4-1.4.8-2,.3-.5.5-.5,1,0,.8.7,1.4,1.7,1.7,2.7,0,0,0,.2,0,.2-.8.2-1,.6-1.1,1.4,0,1-.3,1.9-1,2.6-.4.3-.7.7-.8,1.2,0,.2-.3,0-.4,0-1.2-.2-2.5-.4-3.8-.4s-.4,0-.2-.3c.7-1.8,1.5-3.5,2.6-5.2.2-.3.4-.6.7-1-.3.9-.3,2,0,2.9-.2-1.1-.2-2.2,0-3.2,0,.4.1.8.1,1.1h0ZM72.6,61.1c.3-.3.5-.5.9-.6,0,0,.3-.2.3,0,.4-.3.9,0,1.3,0,0,0,0,0,0,0,0,.5.3.9.3,1.4s0,.3-.2.4-.3.2-.3.4h0l.5-.4c0,.3,0,.6,0,.8-1.5,1.5-2.5,3.3-3.1,5.4-.2.5-.4,1-.6,1.5,0,.3,0,.4.3.5.5,0,1,0,1.5,0,2.6.2,5.2.7,7.7,1.6l1.6.6c.2,0,.4,0,.5,0h0c.6-1.1,1.2-2,1.8-2.9,1-1.4,2.2-2.7,3.5-4q0,0,.2,0c-.5.6-1,1.1-1.4,1.7-1,1.1-1.8,2.3-2.4,3.6-.4.7-.8,1.3-1.2,2-.2.3-.5.3-.8.2-2.1-.6-4.1-1.1-6.2-1.7-1.2-.3-2.5-.5-3.7-.6-.6,0-1.2,0-1.7,0-.2,0-.3,0-.2-.4.3-1.3.8-2.6,1.4-3.8,0,0,0-.2,0-.2-.3.4-.6.8-.7,1.3-.4.9-.8,1.9-1,3,0,0,0,.3-.3,0s-.2,0-.3-.2c-.4-.8-1.2-1.3-1.8-2-.2-.2-.3-.5,0-.8.6-1.2,1.2-2.4,2-3.5,0,0,0,0,0-.2-.4.5-.8,1-1.1,1.5-.4.7-.8,1.5-1.2,2.3,0,0,0,.2-.2.2s0-.2,0-.3c.3-.8.7-1.5,1.2-2.2.8-1.8,2-3.3,3.3-4.7h0ZM65.2,62.7c1.4-1,3.1-1.7,4.8-2,.7-.2,1.5,0,2.2.2-1.9,1.9-3.5,4.2-4.5,6.7-.4-.5-.7-1-.8-1.6-.2-1-.8-1.9-1.7-2.6-.3-.3-.4-.4,0-.7h0ZM62.7,59.1c-.1.4-.1.7-.1,1.1s-.2.5-.5.6c-.7.6-1.4,1.2-1.9,1.9-.1,0-.1.2-.2.2s-.1-.2-.1-.3c-.4-1.3-1.1-2.5-1.9-3.6-.1.2.1.3.1.5s.1.3.1.4c.3,1.3.8,2.5,1.4,3.6.2.2.2.6,0,.8-.2.3-.1.6-.1,1v.4c0,0-.1.2-.2.2s-.1,0-.2-.2c-1-1.4-2.2-2.7-3.5-3.9-.2-.2-.5-.5-.8-.7.3.7.7,1.3,1.2,1.9.8.8,1.6,1.6,2.4,2.4h.1c.5.4.5.8.3,1.3-.1.3,0,.6.1,1.1-.9-1.1-1.7-2.1-2.6-3.1.6.5,1.2,1,1.8,1.4-.3-.4-.5-.7-.8-1-1-1.1-2.1-2.1-3.2-3-.6-.3-.9-1-.9-1.7v-.8c0-.2.1-.2.2-.3.6-.5,1.2-1.1,1.9-1.6l2.4-2c.9-.7,1.7-1.4,2.6-2.2.2,0,.3,0,.3,0l.3.6c.3.5-.1.9-.4,1.2s-.3.3-.4.5c-.4.5-.3,1.1.2,1.5h.1c0,0,.1.2.2.2.5.3,1,.5,1.6.5s.7-.3,1.1-.4c-.4.6-.5,1-.6,1.4h0ZM63.7,52.1c.7.3,1.1,1,.9,1.7-.2,1.5-.9,2.9-2,3.9,0,0-.1,0-.1,0h-.1c.1-.2.2-.4.4-.6.4-.7.8-1.4,1.1-2.1,0,0,0-.3,0-.4,0-.2-.3-.3,0-.5s-.2-.6-.6-.6c-.6,0-1.2,0-1.8,0h1.4c.2,0,.4,0,.6.2h0c-.3.6.4,1,0,1.5-.4.8-.9,1.6-1.5,2.4-.1.2-.4.3-.6.3-.6,0-1.1-.3-1.4-.7-.2-.3-.2-.7,0-1,.2-.2.4-.5.6-.7.3-.3.5-.7.4-1.1.3.4.5.7,1,.8.4,0,.8,0,1.2-.3-.6.3-1.4,0-1.8-.3.5.2,1.1.2,1.6,0-1,.3-2.1-.3-2.4-1.3-.1-.5,0-1,.2-1.4.2-.3.7-.2,1,0,.7-.2,1.2,0,1.8.2h0ZM70.7,40.8c0-.2.2-.2.4-.2s.3.1.3.2,0,.3-.2.4c-.8.4-1.6.8-2.4,1.3-.9.6-1.3,1.7-1,2.7,0,.4.4.6.8.5h0q0,0,.2,0c.9-.4,1.8-.9,2.6-1.5.2,0,.4-.2.6-.3,0,.3-.4.5-.7.7-.9.6-1.8,1.1-2.8,1.6-.2,0-.5,0-.7-.2h0c-.8-1.3-.4-3,.8-3.8.6-.4,1.3-.7,1.9-1.2.1,0,.2,0,.2-.1h0ZM69.1,39.7c.6.1.9.6,1.4.8.2.2,0,.3-.2.4-.6.4-1.3.8-1.9,1.2-1.2.9-1.2,1.5-1.1,2.9,0,.5.2.9.6,1.2.2.2.4.2.6,0,1.1-.4,2-1.1,3.1-1.5-.2,2-1.1,3.8-3.3,4.1-.8,0-1.7-.3-2.2-1-.7-.8-1-1.8-1.1-2.8,0-1.7.5-3.5,1.7-4.7.8-.6,1.6-.8,2.4-.7h0ZM64.2,45c0-.9.3-1.9.6-2.8.4-.9,1-1.8,1.9-2.3.3-.1.5-.2.8-.3-1.3.8-2.2,2.2-2.4,3.7,0,.4,0,.8,0,1.2,0,.4-.4.6-.8.6,0,0,0,0,0-.1h0ZM60.9,48c1.1-.8,2.2-1.7,3.3-2.5.2,0,.4-.2.6-.2-.3.3-.5.4-.6.6.3,0,.5-.3.7-.4.2.3,0,.7.2,1,0,0,0,.3,0,.3l-4.2,3.2c0-.4.2-.8.1-1.2-.1-.2,0-.4.2-.5-.1,0-.2.2-.3,0-.1-.2,0-.2,0-.3h0ZM63.9,47.9c.2-.2.5-.3.7-.4,0,0,.2-.2.3,0s0,.3,0,.4c-.3.3-.7.6-1,.9-1.5,1.1-3,2.3-4.5,3.4q-.1,0-.2,0c-.2-.4-.1-.7.3-1,1.4-1.2,2.9-2.3,4.4-3.4h0ZM58.9,50.7h1.1c-.1,0-.2.2-.4.3q-.5.4-.7-.3h0ZM56.4,49.4c-.3,0-.5.2-.8,0,.5-.6.8-1.3,1.3-1.9.8-.7,1.9-.7,2.7,0,.5.4.7.9.8,1.5.1.4,0,.8-.4,1-.4.3-.9.4-1.4,0-.4-.3-.6-.8-.4-1.2h0c.2-.9.1-1-.8-.9-.2,0-.5,0-.6.3.3,0,.6-.2,1-.2s.5,0,.4.5c-.1.3-.1.7,0,1.1-.4-.4-.7,0-1.1-.2.9.3,1.5,1.1,1.5,2.1s0,1.1.1,1.7c0,.7-.5,1.3-1.2,1.5,0-.9-.2-1.8-.6-2.6-.4-.9-1.4-1.5-2.4-1.5h-.3c.7-.6,1.5-1.1,2.2-1.4h0ZM54.2,51c.7,0,1.3.2,1.8.6.6.7,1,1.5,1.1,2.4.2.5,0,1.1-.3,1.4-.2.2-.5.3-.7.3.4-.8.3-1.8-.4-2.4-.4-.4-.8-.7-1.2-1-.3-.3-.7-.5-1-.8.2,0,.3-.5.7-.5ZM52.4,52.1c.2-.3.6-.4.9-.2h.1c.6.6,1.1,1.1,1.7,1.6.7.4.9,1.4.5,2.1-.2.4-.6.7-1.1.7-.2,0-.2,0-.3-.3-.1-.4.1-.8.1-1.2-.1-.6-.5-1-1.1-1.3-.2,0-.3,0-.5.2l-1.2.8c.1-.9.4-1.7.9-2.4ZM54.3,55.5c-.2-.4-.3-.8-.5-1.2.6.1.7.5.5,1.2h0ZM41.9,63.9h-.7c-.2,0-.4-.2-.4-.4h0c0-.3.3-.2.4,0,.4,0,.8,0,.7.5h0ZM41.9,62.8c0,.2,0,.4-.3.4s-.5,0-.5-.4c0-1.8.6-3.6,1.7-5.1.5-.7,1.3-1.1,2.1-1.3-1.6,1-2.7,2.7-3,4.6,0,.5,0,1.1,0,1.8h0ZM43.6,65.2c.8-.6,1.6-1.3,2.3-2.1.2-.3.4-.5.8-.4.3,0,.6,0,.8-.3-.1.4-.3.8-.6,1.1-.7.8-1.7,1.4-2.5,2.2-.1,0-.2.2-.3.3-.3.6-1,.8-1.6.6-.2,0-.5,0-.7,0,.6-.4,1.2-.9,1.8-1.3h0ZM43.1,67.3h-.9c-.2,0-.4,0-.5-.4h1.4c.4,0,.8-.2,1.1-.5.5-.6,1.1-1.2,1.8-1.8.9-.6,1.6-1.5,1.8-2.6.1-.4-.1-.8-.4-1.1-.3-.3-.8-.5-1.2-.3-.8.3-1.5.7-2,1.3-.5.5-1,1-1.6,1.5-.1,0-.2.2-.4,0-.1,0-.1-.3,0-.4h0c1.1-1,2.3-1.9,3.7-2.5.4-.3,1-.2,1.4,0,.4.4.6,1,.5,1.6-.3.9-.8,1.8-1.6,2.3-.7.6-1.4,1.3-2,2.1-.2.5-.6.7-1.1.6ZM43.9,67.9c.4-.2.8-.2,1.1,0-.4.2-.7,0-1.1,0ZM47.3,67.3c-.6.4-1.4.5-2.2.3-.7-.2-.8-.6-.3-1.1s1.2-1.1,1.8-1.7c.6-.5,1-1.1,1.3-1.9.2-.6.2-1.3-.1-1.9-.2-.6-.9-.9-1.5-.7-1.1.3-2.1.9-3,1.6-.4.3-.8.6-1.2,1-.2-1.8.3-3.6,1.4-5,.6-.9,1.6-1.4,2.6-1.5,1,0,2,.4,2.6,1.3.6,1,.9,2,1.1,3.1.1.4.1.8.1,1.2.3,2.2-.8,4.2-2.6,5.3h0ZM50.9,61.3c-.2.2-.4.3-.7.5,0-.7-.1-1.5-.3-2.2,0,0,0,0,.1-.2-.2-.2-.4-.5-.3-.8-.4-.2-.7-1-.5-1.2h-.1s-.2,0-.3,0,.1-.2.1-.2l1.7-1.4,2.2-1.7c.1,0,.2-.3.4,0,.1,0-.1.3-.1.4.2,0,.4,0,.4.2h0c.2.5.3.9-.2,1.1h-.1c0,0,.1,0,.1,0,.2,0,.3-.4.5-.2s.2.5,0,.8c0,0,0,0-.1,0,.1,0,.3,0,.4,0,.4.3.9,0,1.2-.2.4-.2.6-.2.8-.4.8-.4,1.5-.8,2.2-1.3.4-.3.6-.8.6-1.4-.1-.4.1-.9.5-1.1.4-.3.8-.5,1.1-.8h0l2.5-2,1.9-1.5c.2-.2.3-.2.5,0q.4.5,0,.9c-1,.8-1.9,1.6-2.8,2.4-.3.3-.5,0-.7,0-.4,0-.8,0-1.3,0h0c0,.3-.3.3-.4.6-.2.4-.2.8-.2,1.2s-.1.4-.2.5l-4,3.4-5.1,4.3h.3ZM52.7,80.1c.2.5.4,1,.5,1.5-.2-.5-.4-1-.5-1.5h0ZM51.9,76.5c-.2-.6-.3-1.1-.4-1.7-.1-.4-.1-.9-.1-1.3.1-1.4.2-2.8.6-4.1.4-1.7.8-3.4,1.2-5,.1-.5.2-.9.2-1.4s.2-.3.4-.2c.6.4,1.1.9,1.4,1.4.6.8,1.2,1.4,1.8,2.2.6.7,1.1,1.2,1.6,1.8.1,0,.2.3.1.4-.4.7,0,1.2.4,1.6.4.5.7,1.1.7,1.7.1.9.2,1.7.3,2.6.2,1,0,2.1-.6,3-.5.7-1.1,1.4-1.8,2-1,.7-2.1,1.4-3.2,2.1-.3.2-.6,0-.7-.2-.5-1.7-1.1-3.3-1.9-4.9h0ZM59.8,83.8c1.3-.8,2.2-2.1,2.6-3.6.2,1.7-.9,3.2-2.6,3.6h0ZM62.2,79.3c-.4,1.1-1,2.1-1.7,3-.7.7-1.5,1.2-2.5,1.3-.2,0-.3,0-.6,0,1.6-.7,3-1.7,4-3.1l-1.3,1.1c-.9.8-2,1.5-3.1,1.8-.3,0-.7,0-1,0-.7-.2-1.4-.5-2-.9-.1,0-.2,0-.2-.2.8,0,1.6-.3,2.2-.9.8-.6,1.5-1.2,2.2-1.9.9-1,2-1.8,2.4-3.2.2-.7.2-1.5,0-2.2-.1-.7-.3-1.5-.4-2.3.2.2.3.4.3.6.3,1.1.8,2.1,1,3.2.1.9,0,1.9-.4,2.7-.2.6-.5,1.1-.7,1.7,1.4-1.4,1.9-3.5,1.4-5.4.6,1.7,1,3.2.4,4.8h0ZM63.6,74.4c-.3,1.3-.5,2.6-.6,4,0,0-.1.2-.2.3-.1-1.8.2-3.6-.5-5.4.4.3.8.6,1.2.9.2,0,.2,0,.1.2h0ZM66.2,76.3c-.3,0-.5-.3-.6-.6h0c0-.2,0,0,0,0,.6.7,1.2.3,1.8,0,.2,0,.5-.2.7-.4-.3,0-.6.2-.9.3-.5,0-1,.5-1.4-.2,0-.2.4,0,.4-.3-.4,0-.7,0-1.1-.2,0,0-.3,0-.3-.2,0-.2.2,0,.3,0h.3c-1.8-.8-3.3-1.8-4-3.8.3,0,.6.2.9,0-.1-.2-.9,0-.3-.7-.7.2-1.4,0-2.1,0,0,.2.3.3.5.4.3,0,.4.3.5.6,0,.4-.1.3-.3.2-.7-.4-1.3-1-1.6-1.8-.1-.3,0-.6.4-.7.9-.2,1.7-.6,2.4-1.2-.2,0-.5,0-.7.2l.3-.4c-.6.4-1.3.7-2,.8-.3,0-.4,0-.4-.3v-.2c-.1-.4,0-.8.4-.9h.1l2.4-.8c-.7,0-1.4,0-2,.2-.3,0-.4,0-.4-.3-.1-.7.1-1.2.8-1.2.7,0,1.6-.3,2.5-.4.2,0,.4,0,.6,0-.3-.2-.7,0-1,0-.3,0-.5-.5-.8-.7.2.4,0,.6-.3.8s-.8,0-1.2,0c-.1-.2-.1-.4-.1-.6.1-.3.3-.6.6-.8.4-.3.7-.6,1-1,.8-.9,1.4-.6,2,.3.3.5.5,1.2.8,1.7,0,.2.2.3.4.4.7.8,1.2,1.7,1.5,2.7.4.8.8,1.5,1.4,2.1.3.4.7.8,1.1,1.1.6.5.4,1.3.3,1.9-.3,1.3-1.1,2.5-2.3,3.2.9-.3,1.7-1,2.2-1.8.4-.9.5-1.9.3-2.9.7,1,.3,2,0,3,.7-.6,1.1-1.6,1-2.5.3.3.4.8.2,1.2-.3.9-.7,1.7-1.3,2.3-.4.6-.9,1.1-1.5,1.5-.4.3-1,.4-1.5.3h0ZM78.4,88.5c-.5,0-1,0-1.5-.2-1.8-.3-3.5-1-5.3-1.5-.6-.2-1.3-.2-2,0l1.1.3c-.5,0-.9,0-1.4,0-.9,0-1.7-.2-2.6-.3-.5,0-.6,0-.6-.7,0-1.4.2-2.8.6-4.2.3-1.2.6-2.5,1-3.7,0,0,0-.3.2-.3.2,0,.4.3.3.5h0c-.2.5-.3,1-.5,1.5-.4,1.3-.7,2.6-.8,4,0,.6,0,1.2-.2,1.8,0,.3,0,.4.3.4,1.2,0,2.4,0,3.6.2,2.4.2,4.7.7,6.9,1.5.2,0,.5.2.7,0h0c.3,0,.5.3.7.5,0,.3-.3.5-.6.5h0ZM68.4,78.5c.6.7,1.2,1.4,1.8,2.1.7.9,1.5,1.7,2.4,2.4.4.4.8.8,1.2,1.2,1,.9,2.1,1.7,3.3,2.5.3.2.6.4.8.6,0,0,.2.2,0,.3,0,0-.2.2-.3,0h0c-.9-.4-1.8-.7-2.7-.9-.9-.2-1.9-.4-2.8-.5-1.6-.2-3.2-.3-4.8-.3s-.6-.2-.5-.6c0-1.5.3-3,.7-4.5.2-.9.5-1.7.8-2.4ZM81.7,78.5c.5.4,1,.8,1.5,1.2l-.8-1c1.1.3,2,1.3,2.1,2.4,0,.8,0,1.6,0,2.4,0,.5,0,1,0,1.4,0,.9-.3,1.7-.7,2.5,0,.4-.3.8-.6,1.1-.2.2-.5.3-.8.2-1.4-.3-2.6-1-3.7-1.9-.8-.7-1.8-1.1-2.6-1.8-.8-.6-1.6-1.3-2.4-2-1-.9-2-1.9-3-3-.9-1-1.8-2-2.6-3.2,0-.2-.2-.3,0-.4.8-.5,1.4-1.2,1.9-2,.3-.6.7-1.1,1.1-1.7.6.7,1.2,1.3,1.9,1.8,1.3.9,2.8,1.5,4.4,1.8,1.6.4,3.1,1.1,4.3,2.2h0ZM81.9,75.4c0,.8-.3,1-1.4,1.2-.5,0-1.1,0-1.6,0-.8-.3-1.7-.4-2.6-.6-1.2-.4-2.4-1-3.4-1.7-.3-.3-.7-.6-1-.9,0,0-.3-.2,0-.4,0-.2.3,0,.4,0,1.5.8,3.1,1.4,4.8,1.8.8.2,1.7.4,2.6.5.7,0,1.5,0,2.2,0,0,0,.2,0,0,.2h0ZM82.9,75.7c0,.4-.5.3-.8.4q0,0,0-.2c0-.2,0-.4,0-.6.2-.4,0-.5-.4-.5-.7,0-1.4,0-2,0-1.1,0-2.2-.2-3.2-.6-1-.3-2.1-.7-3.1-1.1-.4-.2-.9-.5-1.3-.7-.2,0-.4,0-.5,0s0,.2-.2,0,0-.4,0-.6c0-.2,0-.3.4-.2.7.3,1.3.5,2,.7,1.7.5,3.4,1,5.1,1.2,1.4.2,2.7.4,4.1.5.2,0,.2,0,.2.3l-.4,1.2h0ZM83.9,75.6c-.2,0-.4,0-.6,0,.2-.4.5-.8.7-1.2.2-.4,0-.5-.3-.5-3.6,0-7.1-.8-10.4-2.1-.4,0-.8-.2-1.2-.4-.4,0-.6,0-.6.4s0,.3,0,.5c0-.5,0-1-.3-1.5.4,0,.9,0,1.3,0,1.1,0,2.2.2,3.2.4,1.3.2,2.5.6,3.7,1s2.5.5,3.7,1c.5.2.8,0,1.2-.7.8-1.4,1.7-2.9,2.6-4.2,1.3-1.9,3-3.4,5-4.5.4-.2.9-.3,1.4,0,.7.3,1.5.4,2.3.7-1.3.2-2.6.7-3.8,1.4,1.1-.4,2.2-.7,3.4-.9-1.4.6-2.7,1.4-3.9,2.3-.7.6-1.4,1.2-2,2-1.4,1.6-2.5,3.5-3.8,5.3-.4.5-.9.8-1.5.9h0ZM90.4,85.1c0-.4.2-.6.3-.8,1.7-2.1,3.1-4.4,4.3-6.8.6-1.2,1.1-2.4,1.4-3.6-1.6,3.5-3.5,6.9-5.8,10,.3-2,.9-4,1.8-5.8-1.2,1.5-2,3.3-2.3,5.2-.4-1-.8-2-1.2-3-.3-.7-.6-1.4-.9-2.1,0,0,0-.4-.2,0h0c-.7-.9-1.5-1.6-2.5-2.1-.3,0-.6-.2-.9-.3.5-.2.9-.4,1.3-.6,1.2-.7,2.4-1.3,3.7-1.8.9-.3,1.8-.6,2.7-.7.6,0,1.1,0,1.7,0-1.5-.4-3-.4-4.5.2-.6.2-1.2.5-1.8.7,0,0-.2,0-.3,0s0-.2,0-.3c1.2-1.4,2.7-2.4,4.3-3.1.7-.3,1.4-.4,2.2-.4-1.8-.2-3.6.3-5,1.4.5-.6,1-1.2,1.5-1.7,1-1.1,2.1-2.1,3.4-2.9.3-.2.6-.2.9,0,2.1.6,3.6,2.3,4,4.5.3,1,.4,2,.5,3,0,.8,0,1.6-.4,2.4-.5,1.2-1.2,2.2-2.1,3.1l1.4-2.4h0c-1.8,3.1-4.4,5.9-7.4,8.1h0ZM93.7,84.2c0,0,0,.2-.2,0,0,0,0,0,0-.2s0,0,0-.2c0,0,.3-.2.5-.3h0c-.2.3-.3.5-.4.6ZM93.1,83.9c.9-1,2-1.7,2.9-2.6-.7,1.1-1.7,2-2.9,2.6h0Z"/>
      <path id="Path_3260" class="st0" d="M86.4,87c1.3-2.1,1.6-4.7.8-7.1.4,2.5-.2,4.8-.8,7.1Z"/>
      <path id="Path_3261" class="st0" d="M84.1,77.5c1.2,1.3,2.6,2.5,3,4.4.3-1.8-2-4.1-3-4.4Z"/>
      <path id="Path_3262" class="st0" d="M64.6,88.1v-4.7c-.3,1.5-.3,3.1,0,4.7Z"/>
      <path id="Path_3264" class="st0" d="M65.9,90h0c-.4-1.1-.7-2.3-.8-3.5,0,1.2,0,2.4.8,3.5Z"/>
      <path id="Path_3265" class="st0" d="M88.4,34.6c-1.4.3-2.5,1.2-3.3,2.3-.4.7-1.1,1.2-1.8,1.5.2.1.5,0,.7-.1.7-.4,1.3-.9,1.7-1.5.5-.6,1.1-1,1.7-1.4,1-.4,2.1-.6,3.2-.7-.7,0-1.5-.2-2.2,0Z"/>
      <path id="Path_3266" class="st0" d="M95.2,43.1c.4-2.4-1.4-5.8-2.7-6.6.8.9,1.3,2,1.7,3.1.4,1.2.8,2.3,1,3.5Z"/>
      <path id="Path_3267" class="st0" d="M93.1,43c-.2,0-.3.2-.4.4v.3c0,.2,0,.5.2.5s.4-.2.5-.5v-.2c0-.2,0-.5-.3-.5Z"/>
      <path id="Path_3268" class="st0" d="M94.2,43.9c-.2,0-.5.4-.5.6,0,.2,0,.6.3.5.3,0,.3-.5.4-.8,0,0,0-.3-.2-.3Z"/>
      <path id="Path_3269" class="st0" d="M77.7,82.8c-.8-.2-1.7-.3-2.5-.4.3.8,1.9,1,2.5.4Z"/>
      <path id="Path_3270" class="st0" d="M80.2,87c1.7.8,2.7.6,3.2-.4-1,.9-2.1.4-3.2.4Z"/>
      <path id="Path_3271" class="st0" d="M83.2,84.2c-.6.2-1.1.6-1.6,1,.7,0,1.2-.4,1.6-1Z"/>
      <path id="Path_3272" class="st0" d="M76.7,83.6c.5,0,1.1,0,1.6-.2-.5.2-1,0-1.6.2Z"/>
      <path id="Path_3273" class="st0" d="M81.2,84.3c-.4,0-.7.3-1,.6.4,0,.7-.3,1-.6Z"/>
      <path id="Path_3274" class="st0" d="M97.8,73c-.5,1.7-1,3.4-1.3,5.2.7-1.6,1.1-3.4,1.3-5.2Z"/>
      <path id="Path_3275" class="st0" d="M89.1,72.9c1.3-.7,2.7-1.3,4.1-2.1-1.6.3-3,1-4.1,2.1Z"/>
      <path id="Path_3276" class="st0" d="M91.9,71.7c1-.3,2-.6,3-.8-1.1-.1-2.1.2-3,.8Z"/>
      <path id="Path_3277" class="st0" d="M93.7,71.5l1.7-.4c-.6,0-1.2.1-1.7.4Z"/>
      <path id="Path_3278" class="st0" d="M93.4,75.7c.4-.4.7-.8,1-1.2-.4.3-.7.7-1,1.2Z"/>
      <path id="Path_3279" class="st0" d="M94.4,71.8l1.6-.2c-.5,0-1.1,0-1.6.2Z"/>
      <path id="Path_3280" class="st0" d="M80.2,47c0,0,.2,0,.3,0,.3,0,.7,0,.9.2-.2,0-.4.2-.5.4s0,.4,0,.6c-.3,0-.7-.3-.8-.6,0,.5.5.7,1.1.7s.6-.3.8-.5,0-.5,0-.7c-.3-.4-.8-.6-1.3-.5h-.4c.6-.4.7-.4,1.5,0-.5-.7-1-.7-1.5,0,0,0-.3.2-.2.4,0,0-.2,0,0,0,0,0,.1,0,.2,0Z"/>
      <path id="Path_3281" class="st0" d="M88.2,47.6c-.3,0-.5.2-.6,0h0c-.6-.4-1.5-.3-2,.4,0,0,0,0,0,.2.3-.2.5-.6,1-.4-.2.2-.3.5,0,.8-.2,0-.6,0-.8.2.2,0,.4,0,.6,0,.4,0,.8,0,1.1,0,0,0,.2,0,0,0,0,0,0-.4,0-.7.3,0,.6.3.8,0,0-.2-.4,0,0-.4Z"/>
      <path id="Path_3282" class="st0" d="M88.7,46.2c0,0,0,0,.2,0,0-.2-.2-.4-.3-.6-.2-.5-.7-.8-1.2-.7-.9.2-1.6.6-2.2,1.2.4,0,.8,0,1.2-.2.7-.4,1.6-.3,2.3.2Z"/>
      <path id="Path_3283" class="st0" d="M92.7,51.2c.2,0,.4-.2.3-.5,0-.2,0-.4.3-.6,0,.4.3.7,0,1.1,0,.4-.4.6-.5,1,.4-.2.8-.5,1-.9.2-.5,0-.8-.3-1.3l.5.2c-.4-.8-.8-.9-1.2-.3-.2.2-.3.4-.5.6-.2.2,0,.4,0,.6,0,.1,0,.2.2.1q0,0,0,0h0Z"/>
      <path id="Path_3284" class="st0" d="M81.2,49.3c0,.2-.2.4-.2.7s0,.2-.2.2-.2,0-.2-.2,0-.4.2-.6c-.5.2-.6.4-.5.7,0,.3.5.6.6.5q.2,0,.3,0c.2.4.8.6,1.2.4-.6-.4-1.1-1-1.2-1.7Z"/>
      <path id="Path_3285" class="st0" d="M85.7,50c-.3.3-.5.7-.3,1.2,0,.5.5.7,1.4.8-.6-.5-1.2-1-1.1-2Z"/>
      <path id="Path_3286" class="st0" d="M82.1,48.5l-.5.6c1.3-.4,1.7-1.5,1.2-2.2,0,1-.7,1.3-1.3,1.8l.6-.2Z"/>
      <path id="Path_3287" class="st0" d="M87.6,47.3c-.4-.6-1.2-.8-1.8-.4h0q.3.3.4.2c.5-.3,1.2,0,1.5.4,0,0,0-.2,0-.2Z"/>
      <path id="Path_3290" class="st0" d="M80.2,50.4c-.5.2-.9.5-1.4.9.9,0,1.3-.1,1.4-.9Z"/>
      <path id="Path_3291" class="st0" d="M90.9,50.9c-.5.4-1,.9-1.4,1.4.6-.2,1.2-.8,1.4-1.4Z"/>
      <path id="Path_3292" class="st0" d="M84.6,51c.5-.5.5-.7,0-1.1.2.4.2.8,0,1.1Z"/>
      <path id="Path_3293" class="st0" d="M84.2,50.7c-.3-.5-.6-.4-1,0,.4,0,.6-.3,1,0Z"/>
      <path id="Path_3294" class="st0" d="M84.7,48.8c-.2-.3,0-.5,0-.8-.4.4-.4.5,0,.8Z"/>
      <path id="Path_3295" class="st0" d="M54.3,76.7c.5.3,1.2.2,1.6-.2-.5-.1-1.1,0-1.6.2Z"/>
      <path id="Path_3296" class="st0" d="M57.6,78.3c-.5.2-1,.4-1.5.8.6,0,1.2-.2,1.5-.8Z"/>
      <path id="Path_3297" class="st0" d="M56.6,77.7c-.5,0-1,.2-1.4.5.6,0,1.1,0,1.4-.5Z"/>
      <path id="Path_3298" class="st0" d="M55.4,76.2c-.4,0-.9-.2-1.3-.2.3.3.8.3,1.3.2Z"/>
      <path id="Path_3299" class="st0" d="M56.1,77.3c-.4,0-.8,0-1.1.2.3.1.8.1,1.1-.2Z"/>
      <path id="Path_3300" class="st0" d="M55.2,75.5c-.4-.2-.9,0-1.3-.3.4.2.9.3,1.3.3Z"/>
      <path id="Path_3301" class="st0" d="M56.6,78.3c-.3,0-.6.2-.9.4.4,0,.7,0,.9-.4Z"/>
      <path id="Path_3302" class="st0" d="M67.7,71c-.6-1-1.2-2-1.9-3,.3,1.2.9,2.2,1.9,3Z"/>
      <path id="Path_3303" class="st0" d="M65.2,68.7c.4,1.1,1,2,1.8,2.9l-1.8-2.9Z"/>
      <path id="Path_3304" class="st0" d="M68.2,69.8l-1.4-2c.2.8.7,1.5,1.4,2Z"/>
      <path id="Path_3305" class="st0" d="M58.1,62.2c.2.7.5,1.4,1,2-.2-.8-.5-1.4-1-2Z"/>
      <path id="Path_3306" class="st0" d="M85.2,74.7c.8-1.4,1.7-2.8,2.5-4.2-1.2,1.1-2,2.6-2.5,4.2Z"/>
      <path id="Path_3307" class="st0" d="M90.1,66.1c1.3-.5,2.7-.9,4-1.3-1.4,0-2.8.4-4,1.3Z"/>
      <path id="Path_3308" class="st0" d="M42.4,62.1c.8-1.6,1.8-3.1,2.9-4.6-1.4,1.3-2.4,2.9-2.9,4.6Z"/>
      <path id="Path_3309" class="st0" d="M48.7,64.6c.2-.7.3-1.4.3-2.1l-.3,2.1Z"/>
      <path id="Path_3310" class="st0" d="M77.9,70.6c1.8-.4,3.5-1.2,5-2.3-1.6.9-3.3,1.5-5,2.3Z"/>
      <path id="Path_3311" class="st0" d="M79.7,67.1c.2,0,.3,0,.4-.3,0,0,0-.4-.2-.6.6-.2,1.2-.2,1.8-.5-.3,0-.6,0-.9,0-.5,0-.9,0-1.3.4-.2,0-.3.2-.2.5s.2.4.4.4ZM79.6,66.5c0,0,.2,0,.2.2s0,.2-.3.2-.2,0-.2-.2c0,0,.2-.2.3-.2h0Z"/>
      <path id="Path_3312" class="st0" d="M81.6,70l2.1-.9c-.8,0-1.5.4-2.1.9Z"/>
      <path id="Path_3313" class="st0" d="M82.6,66l-1.7.3c.6.1,1.2,0,1.7-.3Z"/>
      <path id="Path_3314" class="st0" d="M74.9,65.7c0,.6,0,1.2.3,1.7l-.3-1.7Z"/>
      <path id="Path_3315" class="st0" d="M75.6,68.8l-.7-1.4c0,.5.3,1,.7,1.4Z"/>
      <path id="Path_3316" class="st0" d="M84.1,62.2c.7-.2,1.4-.6,2-1.2l-2,1.2Z"/>
      <path id="Path_3317" class="st0" d="M87.9,58.6h0l-1.3,1.2h0c0,0,1.2-1.2,1.2-1.2Z"/>
      <path id="Path_3318" class="st0" d="M67.2,41.2c-.6.8-1,1.8-1.2,2.8l1.2-2.8Z"/>
      <path id="Path_3319" class="st0" d="M67.1,42.6c-.4.7-.7,1.4-.9,2.1.3-.6.7-1.4.9-2.1Z"/>
      <path id="Path_3320" class="st0" d="M70.1,67.4l1.5-4.2c-.8,1.3-1.3,2.7-1.5,4.2Z"/>
      <path id="Path_3321" class="st0" d="M71.9,64.8c.7-.7,1.2-1.5,1.6-2.3-.8.6-1.3,1.4-1.6,2.3Z"/>
      <path id="Path_3322" class="st0" d="M71.2,65.4c.5-.8.9-1.6,1.3-2.4-.7.7-1.1,1.6-1.3,2.4Z"/>
      <path id="Path_3323" class="st0" d="M73.4,61c-.7.5-1.3,1.1-1.8,1.7.6-.5,1.2-1.1,1.8-1.7Z"/>
      <path id="Path_3324" class="st0" d="M73.7,64.5c-.5.6-.9,1.2-1.2,2,.4-.6.8-1.3,1.2-2h0Z"/>
      <path id="Path_3325" class="st0" d="M73.7,64.5h0c.5-.5.9-1,1.2-1.6h0c-.5.5-.9,1-1.2,1.6Z"/>
      <path id="Path_3326" class="st0" d="M74.9,62.9h0Z"/>
      <path id="Path_3327" class="st0" d="M73.7,64.5h0Z"/>
      <path id="Path_3328" class="st0" d="M67.1,64.2c.4-.9,1-1.8,1.7-2.6-.8.7-1.4,1.6-1.7,2.6Z"/>
      <path id="Path_3329" class="st0" d="M87.2,64.5c-.4.4-.6,1-.7,1.5.2-.5.5-.9.7-1.5Z"/>
      <path id="Path_3330" class="st0" d="M87.2,65.5l.6-1.1h0c0,.4-.5.7-.5,1.1Z"/>
      <path id="Path_3331" class="st0" d="M94.2,47.9c-.2,0-.2,0-.2.3s0,.2.2.2.2,0,.2-.4-.1,0-.2,0Z"/>
      <path id="Path_3332" class="st0" d="M94.7,48.7c-.2,0-.2,0-.2.2,0,.2,0,.4.2.3,0,0,.2,0,.2-.3s0-.2-.2-.2Z"/>
    </g>
  </g>
  <g id="Layer_2">
    <g id="Component_57_1">
      <g id="Professional_Services">
        <g>
          <path class="st7" d="M14.4,139c0,0-.2,0-.2,0,0,0,0-.2,0-.2v-3.2l-3.2-5.3h0v-.2c0,0,0-.2,0-.2q0,0,.2,0h.4c0,0,0,0,0,.2l2.9,4.6,2.9-4.6c0,0,0,0,.2-.2,0,0,0,0,.2,0h.3c0,0,.2,0,.2,0q0,0,0,.2h0v.2l-3.2,5.3v3.2c0,0,0,.2,0,.2q-.2,0-.3,0h-.4Z"/>
          <path class="st7" d="M21.3,139.2c-.5,0-1.1,0-1.6-.4-.4-.3-.7-.6-1-1.1-.3-.4-.4-1-.4-1.5v-1.1c0-.5.2-1.1.4-1.5.2-.4.5-.8,1-1.1,1-.5,2.1-.5,3.2,0,.4.3.7.6,1,1.1.3.4.4,1,.4,1.5v1.1c0,.5,0,1.1-.4,1.5-.2.4-.5.8-.9,1.1-.6.2-1.2.4-1.7.4ZM21.3,138.4c.5,0,1.1-.2,1.5-.6s.6-1.1.6-1.7v-1c0-.6-.2-1.3-.6-1.7s-1-.6-1.5-.6-1.1.2-1.5.6-.6,1.1-.6,1.7v1c0,.6.2,1.3.6,1.7.4.4.9.6,1.5.6Z"/>
          <path class="st7" d="M28.6,139.2c-.5,0-1.1,0-1.5-.4-.4-.3-.7-.6-.9-1.1s-.3-1-.3-1.5v-3.8c0,0,0-.2,0-.2,0,0,.2,0,.2,0h.3c.2,0,.3,0,.3.3h0v3.7c0,1.5.6,2.2,2,2.2s1.1-.2,1.5-.6c.4-.4.6-1.1.5-1.6v-3.7c0-.2,0-.3.3-.3h.2c.2,0,.3,0,.3.3h0v6.3c0,0,0,.2,0,.2,0,0-.2,0-.2,0h-.2c0,0-.2,0-.2,0,0,0,0-.2,0-.2v-.6c-.3.3-.5.5-.9.7-.4.3-.8.4-1.3.4Z"/>
          <path class="st7" d="M37.7,139c0,0-.2,0-.2,0,0,0,0-.2,0-.2v-8.7c0,0,0-.2,0-.2,0,0,.2,0,.2,0h.3c0,0,.2,0,.2,0h0c0,0,4.8,7.5,4.8,7.5v-7.3c0,0,0-.2,0-.2q0,0,.2,0h.3c0,0,.2,0,.2,0,0,0,0,.2,0,.2v8.7c0,0,0,.2,0,.2,0,0-.2,0-.2,0h-.3c0,0-.2,0-.2,0h0c0,0-4.8-7.5-4.8-7.5v7.3c0,0,0,.2,0,.2,0,0-.2,0-.2,0h-.3Z"/>
          <path class="st7" d="M48,139.2c-.4,0-.8,0-1.2-.3s-.6-.4-.9-.7c-.2-.3-.4-.6-.4-1,0-.5.3-1.1.7-1.4.5-.4,1.3-.6,1.9-.7l2.1-.3v-.4c0-.4,0-.8-.4-1.1s-.9-.4-1.3-.4-.8,0-1.1.3-.4.4-.5.7c0,0-.2.2-.3.2h-.2c0,0-.2,0-.2,0v-.3c0-.2,0-.4.2-.4,0-.2.3-.4.4-.5.2-.2.4-.4.7-.4.4,0,.7-.2,1.2-.2s.9,0,1.3.2c.5.2,1,.7,1.2,1.3,0,.3,0,.5,0,.8v4.5c0,0,0,.2,0,.2,0,0-.2,0-.2,0h-.2c0,0-.2,0-.2,0,0,0,0-.2,0-.2v-.7c0,.2-.3.4-.4.4-.3.2-.4.3-.7.4-.5.2-.9.3-1.3.3ZM48.2,138.4c.4,0,.8,0,1.1-.3.4-.2.6-.4.8-.8.2-.4.3-.9.3-1.3v-.4l-1.7.3c-.5,0-1.2.2-1.6.5-.4.2-.5.5-.5.9s0,.5.3.7c.2.2.4.4.6.4.2,0,.5,0,.8,0Z"/>
          <path class="st7" d="M53.6,139c0,0-.2,0-.2,0,0,0,0-.2,0-.2v-6.3c0,0,0-.2,0-.2q0,0,.2,0h.3c0,0,.2,0,.2,0,0,0,0,.2,0,.2v.4c.4-.6,1.2-.9,1.9-.9.9,0,1.7.4,2.1,1.3.2-.4.5-.7.9-.9.4-.3.9-.4,1.3-.4s.9,0,1.3.4c.4.2.7.5.9,1,.3.5.4,1.1.4,1.6v3.8c0,0,0,.2,0,.2,0,0-.2,0-.2,0h-.4c0,0-.2,0-.2,0,0,0,0-.2,0-.2v-3.8c0-.4,0-.9-.3-1.3-.2-.3-.4-.5-.6-.7-.3,0-.6-.2-.9-.2s-.5,0-.8.2c-.3.2-.5.4-.7.6-.2.4-.3.9-.3,1.3v3.8c0,0,0,.2,0,.2,0,0-.2,0-.2,0h-.2c0,0-.2,0-.2,0,0,0,0-.2,0-.2v-3.7c0-.4,0-.9-.3-1.3-.2-.3-.4-.5-.7-.7-.3,0-.6-.2-.9-.2s-.5,0-.8.2c-.3.2-.5.4-.7.7-.2.4-.3.9-.3,1.3v3.8c0,0,0,.2,0,.2q0,0-.2,0h-.2Z"/>
          <path class="st7" d="M67.4,139.2c-.8,0-1.5-.3-2.1-.8-.5-.6-.9-1.4-.9-2.2v-1.1c0-.5.2-1.1.4-1.6.2-.4.5-.8,1-1.1s1-.4,1.5-.4,1.1,0,1.6.4c.4.3.8.7,1,1.2.3.5.4,1.2.4,1.8v.2c0,0,0,.2,0,.2,0,0-.2,0-.2,0h-4.7v.2c0,.4,0,.8.3,1.2s.4.6.7.9c.4.3.7.4,1.1.4s.6,0,1-.2c.2,0,.4-.2.6-.4,0,0,.2-.2.3-.3,0,0,0-.2.2-.2h.4c0,0,.2,0,.2,0q0,0,0,.2c0,.2,0,.4-.2.4-.2.2-.4.4-.5.5-.3.2-.5.4-.9.4-.4,0-.7,0-1.1,0ZM65.3,135.1h4.2c0-.5,0-.9-.3-1.3-.2-.4-.4-.6-.7-.8-.4-.2-.7-.4-1.2-.3-.4,0-.8,0-1.2.3-.4.2-.5.5-.7.8,0,.4-.2.8-.2,1.3h0Z"/>
          <path class="st7" d="M75.9,139c0,0-.2,0-.2,0,0,0,0-.2,0-.2v-8.7c0-.2,0-.3.2-.3h.4c0,0,.2,0,.2,0,0,0,0,.2,0,.2v8.7c0,0,0,.2,0,.2,0,0-.2,0-.2,0h-.3Z"/>
          <path class="st7" d="M81.1,139c-.4,0-.8,0-1.1-.3-.3-.2-.4-.4-.5-.8s-.2-.7-.2-1.1v-3.8h-1.1c-.2,0-.3,0-.3-.3h0v-.2c0,0,0-.2,0-.2q0,0,.2,0h1.1v-2.2c0,0,0-.2,0-.2q0,0,.2,0h.2c0,0,.2,0,.2,0q0,0,0,.2v2.2h1.6c0,0,.2,0,.2,0,0,0,0,.2,0,.2v.2c0,0,0,.2,0,.2,0,0-.2,0-.2,0h-1.5v3.8c0,.4,0,.7.3,1.1.2.3.5.4.8.4h.7c0,0,.2,0,.2,0q0,0,0,.2v.2c0,0,0,.2,0,.2s0,0-.2,0h-.8Z"/>
          <path class="st7" d="M83.7,139c0,0-.2,0-.2,0,0,0,0-.2,0-.2v-.5c0,0,0-.2,0-.2,0,0,.2,0,.2,0h.5c0,0,.2,0,.2,0,0,0,0,.2,0,.2v.5c0,0,0,.2,0,.2,0,0-.2,0-.2,0h-.5ZM83.8,137.1c0,0-.2,0-.2,0q0,0,0-.2v-6.8c0,0,0-.2,0-.2q0,0,.2,0h.2c0,0,.2,0,.2,0,0,0,0,.2,0,.2v6.8c0,0,0,.2,0,.2,0,0-.2,0-.2,0h-.2Z"/>
          <path class="st7" d="M91.3,139c0,0-.2,0-.3,0s0-.2,0-.3l-1.8-8.5h0v-.2c0,0,0-.2,0-.2q0,0,.2,0h.3c.2,0,.3,0,.3.2l1.5,7.5,1.6-5.4c0,0,0-.2.2-.2,0,0,.2,0,.3,0h.3c0,0,.2,0,.3,0s0,0,0,.2l1.6,5.4,1.5-7.5c0-.2,0-.2.3-.2h.3c0,0,.2,0,.2,0q0,0,0,.2h0v.2l-1.8,8.5c0,0,0,.2,0,.3,0,0-.2,0-.3,0h-.2c0,0-.2,0-.3,0s0-.2-.2-.3l-1.8-5.5-1.8,5.5c0,0,0,.2-.2.3,0,0-.2,0-.3,0h0Z"/>
          <path class="st7" d="M102.2,139.2c-.8,0-1.5-.3-2.1-.8-.5-.6-.9-1.4-.9-2.2v-1.1c0-.5.2-1.1.4-1.6.3-.4.5-.8,1-1.1,1-.5,2.1-.5,3,0s.8.7,1.1,1.3c.3.5.4,1.2.4,1.8v.2c0,0,0,.2,0,.2,0,0-.2,0-.2,0h-4.7v.2c0,.4,0,.8.3,1.2s.4.6.7.9c.4.3.7.4,1.1.4s.6,0,1-.2c.2,0,.4-.2.6-.4,0,0,.2-.2.3-.3,0,0,0-.2.2-.2h.4c0,0,.2,0,.2,0q0,0,0,.2c0,.2,0,.4-.2.4-.2.2-.4.4-.5.5-.3.2-.5.4-.9.4-.4,0-.7,0-1.1,0ZM100.2,135.1h4.2c0-.5,0-.9-.3-1.3-.2-.4-.4-.6-.7-.8-.4-.2-.7-.4-1.2-.3-.4,0-.8,0-1.2.3-.3.2-.5.5-.7.8,0,.4-.2.8-.2,1.3h0Z"/>
          <path class="st7" d="M110.8,139c0,0-.2,0-.2,0,0,0,0-.2,0-.2v-8.7c0,0,0-.2,0-.2,0,0,.2,0,.2,0h2.8c.7,0,1.5,0,2.2.4.5.3.9.7,1.2,1.2.3.6.4,1.3.4,2v2.1c0,.7,0,1.3-.4,2-.2.5-.6,1-1.1,1.2-.7.3-1.4.4-2.1.4h-2.9ZM111.4,138.2h2.2c.5,0,1.2,0,1.7-.3.4-.2.7-.5.9-.9.2-.5.3-1.1.3-1.6v-2.1c0-.8-.2-1.5-.7-2.1-.6-.5-1.4-.8-2.2-.7h-2.1v7.7Z"/>
          <path class="st7" d="M121.9,139.2c-.5,0-1.1,0-1.6-.4-.4-.3-.7-.6-1-1.1s-.4-1-.4-1.5v-1.1c0-.5.2-1.1.4-1.5s.5-.8,1-1.1,1.1-.4,1.6-.4c.5,0,1.1,0,1.6.4.4.3.8.6,1,1.1.3.4.4,1,.4,1.5v1.1c0,.5,0,1.1-.4,1.5-.2.4-.5.8-1,1.1-.5.2-1.1.4-1.6.4ZM121.9,138.4c.5,0,1.1-.2,1.5-.6s.6-1.1.6-1.7v-1c0-.6-.2-1.3-.6-1.7-.4-.4-1-.6-1.5-.6s-1.1.2-1.5.6-.6,1.1-.6,1.7v1c0,.6.2,1.3.6,1.7.4.4.9.6,1.5.6Z"/>
          <path class="st7" d="M130.5,139c0,0-.2,0-.2,0,0,0,0-.2,0-.2v-8.7c0,0,0-.2,0-.2,0,0,.2,0,.2,0h.3c0,0,.2,0,.2,0,0,0,0,.2,0,.2v8.7c0,.2,0,.3-.2.3h-.4Z"/>
          <path class="st7" d="M135.7,139c-.4,0-.7,0-1.1-.3-.3-.2-.4-.4-.5-.8s-.2-.7-.2-1.1v-3.9h-1.1c0,0-.2,0-.2,0q0,0,0-.2v-.2c0,0,0-.2,0-.2q0,0,.2,0h1.1v-2.2c0,0,0-.2,0-.2,0,0,.2,0,.2,0h.2c0,0,.2,0,.2,0q0,0,0,.2v2.2h1.6c0,0,.2,0,.2,0,0,0,0,.2,0,.2v.2c0,0,0,.2,0,.2q0,0-.2,0h-1.6v3.8c0,.4,0,.7.2,1.1.2.3.5.4.8.4h.7c0,0,.2,0,.2,0q0,0,0,.2v.2c0,0,0,.2,0,.2q0,0-.2,0h-.6Z"/>
          <path class="st7" d="M138.3,139c0,0-.2,0-.2,0,0,0,0-.2,0-.2v-.5c0,0,0-.2,0-.2,0,0,.2,0,.2,0h.5c0,0,.2,0,.2,0,0,0,0,.2,0,.2v.5c0,0,0,.2,0,.2,0,0-.2,0-.2,0h-.5ZM138.3,137.1c0,0-.2,0-.2,0q0,0,0-.2v-6.8c0-.2,0-.3.2-.3h.3c0,0,.2,0,.2,0,0,0,0,.2,0,.2v6.8c0,0,0,.2,0,.2,0,0-.2,0-.2,0h-.2Z"/>
        </g>
      </g>
      <g id="Mr_Kim">
        <g>
          <path class="st7" d="M12,123.9c-.3,0-.4,0-.6-.3s-.3-.4-.3-.6v-23.7c0-.3,0-.4.3-.6.2-.2.4-.3.6-.3h3.9c.4,0,.6,0,.9.4.2.2.3.3.4.4l6.4,11.5,6.4-11.5c0-.2.3-.4.4-.4.3-.3.5-.4.9-.4h3.9c.3,0,.5,0,.7.3.2.2.3.4.3.6v23.7c0,.3,0,.4-.3.6-.2.2-.4.3-.7.3h-4.3c-.3,0-.5,0-.7-.3-.2-.2-.3-.4-.3-.6v-13.7l-4.1,7.6c0,.2-.3.4-.4.6-.3.2-.5.3-.8.3h-1.9c-.3,0-.5,0-.8-.3-.2-.2-.4-.4-.4-.6l-4.1-7.6v13.7c0,.3,0,.4-.3.6-.2.2-.4.3-.6.3h-4.5Z"/>
          <path class="st7" d="M41.9,123.9c-.3,0-.4,0-.6-.3s-.3-.4-.3-.6v-17.2c0-.3,0-.4.3-.6s.4-.3.6-.3h4.2c.3,0,.5,0,.7.3.2.2.3.4.3.6v1.4c.6-.8,1.4-1.3,2.3-1.8,1-.4,2.1-.6,3.1-.5h1.6c.5,0,.9.4.9.9v3.8c0,.3,0,.4-.3.6s-.4.3-.6.3h-3.6c-1.6-.2-2.9,1-3.1,2.6v10c0,.3,0,.4-.3.6s-.4.3-.7.3h-4.6Z"/>
          <path class="st7" d="M56.3,123.9c-.3,0-.4,0-.6-.3s-.3-.4-.3-.6v-4.6c0-.5.4-.9.9-.9h4.6c.3,0,.4,0,.6.3s.3.4.3.6v4.6c0,.3,0,.4-.3.6s-.4.3-.6.3h-4.6Z"/>
          <path class="st7" d="M75,123.9c-.3,0-.4,0-.6-.3s-.3-.4-.3-.6v-23.7c0-.3,0-.4.3-.6s.4-.3.6-.3h4.6c.3,0,.4,0,.6.3.2.2.3.4.3.6v8.1l6.7-8.3c.2-.2.3-.4.5-.4.3-.2.5-.3.9-.3h5.3c.2,0,.4,0,.5.3.2.2.2.4.2.5s0,.3,0,.4l-8.8,11,9.6,12.1c0,0,.2.3.2.4s0,.4-.2.5c-.2.2-.4.3-.5.3h-5.4c-.4,0-.7,0-1-.3-.2,0-.4-.3-.4-.4l-7.2-9v8.8c0,.3,0,.4-.3.6s-.4.3-.6.3h-4.7Z"/>
          <path class="st7" d="M98.8,102.2c-.5,0-.9-.4-.9-.9v-3.3c0-.3,0-.4.3-.6s.4-.3.6-.3h4.4c.3,0,.4,0,.6.3.2.2.3.4.3.6v3.3c0,.3,0,.4-.3.6s-.4.3-.6.3h-4.4ZM98.8,123.9c-.3,0-.4,0-.6-.3s-.3-.4-.3-.6v-17.2c0-.5.4-.9.9-.9h4.3c.3,0,.4,0,.6.3.2.2.3.4.3.6v17.2c0,.3,0,.4-.3.6s-.4.3-.6.3h-4.3Z"/>
          <path class="st7" d="M110.4,123.9c-.3,0-.4,0-.6-.3s-.3-.4-.3-.6v-17.2c0-.3,0-.4.3-.6s.4-.3.6-.3h3.9c.5,0,.9.4.9.9v1.3c.5-.7,1.3-1.3,2.1-1.7,1-.5,2.1-.8,3.1-.8,2.9,0,4.7,1,5.8,3.1.6-1,1.4-1.7,2.4-2.2,2.1-1.2,4.7-1.2,6.8,0,1.1.6,1.9,1.5,2.4,2.6.6,1.4,1,3,.9,4.6v10.4c0,.3,0,.4-.3.6s-.4.3-.6.3h-4.2c-.3,0-.5,0-.7-.3s-.3-.4-.3-.6v-10.1c0-.7,0-1.4-.4-2.1-.2-.4-.5-.8-1-1.1s-.9-.4-1.4-.4-.9,0-1.3.4c-.4.3-.8.6-1,1.1-.3.6-.4,1.3-.4,2.1v10.1c0,.3,0,.4-.3.6s-.4.3-.6.3h-4.2c-.3,0-.4,0-.6-.3s-.3-.4-.3-.6v-10.1c0-.7,0-1.4-.4-2.1-.2-.4-.5-.8-1-1.1-.8-.4-1.9-.4-2.7,0-.4.3-.8.6-1,1.1-.3.6-.4,1.3-.4,2v10.2c0,.5-.4.9-.9.9h-4.6Z"/>
        </g>
      </g>
    </g>
  </g>
</svg>