<?xml version="1.0" encoding="UTF-8"?>
<svg id="Layer_2" xmlns="http://www.w3.org/2000/svg" viewBox="0 0 173.11 173.1">
  <defs>
    <style>
      .cls-1 {
        fill: #00a651;
      }
    </style>
  </defs>
  <g id="Layer_1-2" data-name="Layer_1">
    <g id="OxaiIQ">
      <g>
        <path class="cls-1" d="M99.4,0h61.19c5.5,2.84,9.65,7.03,12.51,12.51v3.72c-1.1,3.5-3.82,5.74-6.37,8.09-1.53,1.41-3.44,2.02-5.57,2.07-3.29.08-5.65-1.61-7.69-3.91-.68-.77-1.16-.96-1.97-.06-2.11,2.34-4.31,4.61-6.52,6.85-.59.6-.68,1.22-.68,1.97.02,3.72.03,7.43,0,11.15,0,.91.17,1.46,1.1,1.96,3.08,1.65,4.61,4.34,4.67,7.84.03,2.08.05,4.17-.01,6.25-.03,1.05.24,1.96.72,2.88,3.15,5.91,5.74,12.06,7.81,18.44,1.23,3.81,1.25,3.8,5.26,3.85,4.42.05,7.31,2.05,8.89,6.17.08.21.1.43.36.5v9.8c-1.18,2.74-2.75,5.12-5.77,6.15-.63.22-.6.87-.72,1.42-3.92,18.01-7.83,36.02-11.79,54.01-1.52,6.88-7.21,11.42-14.19,11.43-36.06.01-72.12.01-108.18,0-6.97,0-12.68-4.57-14.19-11.43-3.95-17.94-7.86-35.89-11.74-53.85-.22-1-.62-1.51-1.54-1.95C1.79,104.32.07,101.71.02,98.1c-.03-1.86-.01-3.72,0-5.58.02-4.5,2.75-7.86,7.16-8.69,1.08-.2,1.47-.6,1.46-1.74-.06-5.01-.05-10.03-.02-15.04.05-8.97,3.53-16.26,10.75-21.67.66-.5.87-.98.86-1.8-.05-6.65-.02-13.3-.04-19.94,0-2.7.5-5.25,1.84-7.62,3.2-5.66,9.76-8.51,16-6.94,6.53,1.64,10.94,7.12,11,13.83.06,6.82.04,13.63,0,20.45,0,.93.19,1.55,1,2.1,1.2.81,2.28,2.52,3.4,2.51,1.13,0,2.21-1.71,3.4-2.54.76-.52.89-1.08.89-1.96-.05-7.89-.07-15.78-.02-23.66.03-4.36,3.22-6.43,7.21-4.77,4.81,2,9.62,2,14.43.01,4.01-1.66,7.2.43,7.21,4.74,0,7.89.01,15.78-.01,23.66,0,.77.1,1.34.8,1.86,7.38,5.52,10.9,12.93,10.76,22.14-.07,4.84.03,9.69-.04,14.54-.02,1.23.27,1.69,1.58,1.64,2.42-.1,4.85-.07,7.27,0,.99.03,1.69-.29,2.35-1.01,7.34-8.03,12-17.17,11.85-28.33,0-.68-.02-1.35,0-2.03.1-3.55,1.59-6.29,4.77-7.97.75-.4,1.02-.84,1.01-1.68-.04-3.94-.02-7.89-.02-11.83,0-.44.07-.91-.23-1.3-1.67-2.23-3.34-4.46-5.06-6.74-.53.63-.34,1.21-.34,1.74-.02,3.15-.02,6.31-.01,9.47,0,3.04-.95,5.67-3.41,7.56-2.9,2.24-5.81,4.45-8.8,6.57-4.06,2.87-9.31,2.04-12.15-1.82-2.84-3.85-2.01-9.11,1.92-12.16,1.34-1.03,2.67-2.07,4.06-3.03.73-.5,1.02-1.05,1-1.95-.07-2.2-.02-4.39-.02-6.59q0-2.24-2.21-2.26c-4.03-.03-6.38-2.33-6.45-6.39-.04-2.08.1-4.18-.03-6.25-.23-3.51.93-6.15,4.27-7.61ZM86.54,167.34c17.8,0,35.6,0,53.41,0,5.01,0,8.2-2.48,9.27-7.36,3.73-16.95,7.4-33.92,11.09-50.88.5-2.3.48-2.3-1.85-2.3-18.93,0-37.86,0-56.79,0-14.08,0-28.17.02-42.25-.03-1.34,0-1.71.36-1.67,1.68.09,3.21.07,6.42.02,9.63-.06,4.48-2.83,7.8-7.24,8.67-.88.17-1.06.44-.93,1.32,1.1,7.85,2.2,15.7,3.17,23.57.63,5.08-2.62,9.26-7.48,9.89-4.63.6-9-2.79-9.69-7.65-1.17-8.24-2.34-16.48-3.35-24.74-.21-1.74-.73-2.21-2.44-2.19-6.06.07-9.57-3.47-9.6-9.48-.02-3.1-.05-6.2.02-9.29.02-1.13-.36-1.47-1.45-1.41-1.63.08-3.27.12-4.9,0-1.46-.12-1.52.47-1.26,1.64,3.71,16.96,7.4,33.92,11.08,50.88,1.21,5.58,4.24,8.05,9.95,8.05,17.63,0,35.27,0,52.9,0ZM26.01,95.1c0,7.49,0,14.98,0,22.47,0,2.54.94,3.52,3.41,3.52,6.36.01,12.73.02,19.09,0,2.39,0,3.35-.95,3.36-3.41.02-14.98.02-29.96,0-44.94,0-2.52-.99-3.46-3.49-3.46-6.25,0-12.5,0-18.75,0-2.67,0-3.61.96-3.61,3.69,0,7.38,0,14.75,0,22.13ZM111.39,100.95c17.07,0,34.13,0,51.2,0,.56,0,1.13.02,1.69-.02,1.97-.14,2.96-1.14,3.05-3.11.06-1.29.01-2.59.01-3.89,0-3.71-.71-4.42-4.43-4.42-34.3,0-68.6,0-102.91,0-.34,0-.68.04-1.01,0-.96-.12-1.26.3-1.24,1.24.05,2.76.11,5.52-.02,8.28-.07,1.56.41,1.96,1.95,1.95,17.24-.05,34.47-.03,51.71-.03ZM69.28,83.59c3.27,0,6.54-.08,9.8.04,1.46.05,1.77-.45,1.74-1.81-.09-4.05-.04-8.11-.03-12.17,0-1.99,1.14-3.29,2.81-3.33,1.72-.04,2.93,1.33,2.93,3.38.01,3.21,0,6.42,0,9.63,0,4.33,0,4.28,4.28,4.29,1.17,0,1.53-.3,1.52-1.5-.06-5.18,0-10.37-.03-15.55-.09-13.11-11.54-22.46-24.38-19.93-7.84,1.54-14.58,8.53-15.58,16.11-.1.78-.13,1.29.74,1.76,3.22,1.74,4.67,4.58,4.68,8.19,0,3.1.06,6.2-.03,9.3-.03,1.23.26,1.67,1.57,1.63,3.32-.1,6.65-.03,9.97-.03ZM137.49,5.76c-5.97,0-11.94,0-17.91,0-4.15,0-4.17,0-4.13,4.08.01,1.45-.63,3.29.3,4.23.93.94,2.79.34,4.23.29,1.86-.06,3.25.51,4.26,2.13.77,1.24,1.73,2.36,2.62,3.52,1.5,1.96,2.65,4.67,4.64,5.66,2,.99,4.85.23,7.32.3.93.03,1.57-.28,2.2-.96,2.93-3.12,5.89-6.21,8.86-9.29,1.68-1.74,3.25-1.77,4.96-.11,1.29,1.25,2.53,2.56,3.83,3.81,1.66,1.6,3.07,1.61,4.71.06.98-.93,1.94-1.88,2.87-2.87,1.43-1.52,1.43-2.95-.01-4.45-1.56-1.62-3.23-3.15-4.75-4.8-1.12-1.22-2.41-1.66-4.05-1.64-6.65.06-13.29.02-19.94.02ZM14.49,72.71v6.7c0,4.34,0,4.31,4.35,4.21,1.01-.02,1.38-.3,1.36-1.35-.05-3.15-.04-6.3-.01-9.46.04-5.87,3.49-9.31,9.36-9.34,5.07-.03,10.13-.05,15.2.03,1.2.02,1.71-.33,1.86-1.52.34-2.7,1.23-5.27,2.58-7.61.63-1.09.34-1.66-.43-2.42-10.78-10.71-29.52-5.7-33.57,8.96-1.13,4.1-.5,8.28-.7,11.81ZM116.39,83.38c.41.12.52.19.62.19,11.82,0,23.63,0,35.45.03,1.12,0,1.15-.39.85-1.32-1.97-6.16-4.47-12.1-7.44-17.85-.37-.72-.82-.92-1.58-.92-5.68.02-11.37.03-17.05,0-.83,0-1.21.29-1.43,1.04-2,6.77-4.7,13.21-9.41,18.84ZM80.79,31.47c0-3.1-.02-6.19.01-9.29,0-.88-.01-1.34-1.17-.96-4.96,1.6-9.96,1.58-14.93.02-1.08-.34-1.2-.02-1.19.93.03,6.14.04,12.27,0,18.41,0,1.08.33,1.2,1.27.91,4.92-1.52,9.85-1.52,14.77.03.93.29,1.28.15,1.26-.93-.06-3.04-.02-6.08-.02-9.12ZM34.69,25.97c1.91,0,3.83,0,5.74,0q2.98,0,2.85-2.98c-.25-5.94-5.83-9.98-11.33-8.08-4.95,1.7-6.3,5.86-5.93,10.35.08.9.72.7,1.24.71,2.48.02,4.95,0,7.43,0ZM13.75,89.52c-1.63,0-3.26-.03-4.89,0-1.93.05-3,1.08-3.08,3.03-.06,1.68-.05,3.37,0,5.06.05,2.23,1.08,3.28,3.35,3.32,3.26.05,6.52,0,9.78.03.91,0,1.32-.24,1.3-1.23-.05-2.98-.06-5.96,0-8.94.02-1.1-.44-1.33-1.41-1.29-1.68.06-3.37.02-5.06.02ZM40.71,127.01c-.28,0-.56,0-.84,0-2.05,0-2.03,0-1.75,2.1.72,5.34,1.42,10.68,2.14,16.02.36,2.67.69,5.35,1.15,8,.31,1.79,1.63,2.75,3.19,2.56,1.57-.19,2.5-1.44,2.42-3.27-.02-.39-.07-.78-.13-1.17-.98-7.12-1.98-14.23-2.92-21.35-.38-2.87-.32-2.88-3.26-2.88ZM115.34,28.05v-3.55c0-4.35,0-4.31-4.28-4.28-1.1,0-1.46.31-1.44,1.42.06,3.09-.03,6.19.04,9.29.04,1.63-.56,2.77-1.88,3.7-1.84,1.29-3.64,2.65-5.4,4.05-1.5,1.18-1.77,2.83-.78,4.14,1.01,1.34,2.62,1.54,4.18.4,2.73-1.99,5.4-4.05,8.11-6.06,1.03-.77,1.5-1.74,1.47-3.04-.06-2.02-.01-4.05-.01-6.08ZM26.01,36.46c0,1.63.03,2.98-.01,4.33-.03.79.26,1.01.98.77,5.09-1.62,10.17-1.62,15.26,0,.81.26,1.08.05,1.06-.82-.05-2.59-.06-5.18,0-7.77.02-.98-.31-1.23-1.25-1.22-3.72.05-7.43,0-11.15.03-1.56.01-3.62-.67-4.56.26-1.04,1.02-.18,3.1-.33,4.43ZM135.52,57.67c2.47,0,4.94-.03,7.41.01.9.01,1.35-.22,1.31-1.22-.06-1.46.03-2.92-.04-4.38-.09-1.89-1.09-2.98-2.94-3.02-3.76-.07-7.53-.07-11.29,0-1.87.03-2.88,1.12-2.94,2.98-.05,1.46.03,2.92-.03,4.38-.04.96.33,1.28,1.27,1.26,2.41-.05,4.83-.02,7.25-.01ZM105.5,5.76q-4.45,0-4.45,4.16v.17q0,4.3,4.26,4.3c4.28,0,4.3,0,4.27-4.28-.01-1.39.6-3.17-.26-4.07-.88-.91-2.67-.14-3.8-.29ZM138.43,37.38c0-.45,0-.9,0-1.35q0-4.46-4.45-4.26c-.06,0-.11,0-.17,0-.85-.11-1.04.34-1.03,1.1.03,2.08,0,4.17,0,6.25,0,4.32,0,4.28,4.36,4.2,1.08-.02,1.34-.39,1.3-1.38-.06-1.52-.02-3.04-.02-4.56Z"/>
        <path class="cls-1" d="M133.18,112.53c5.35-.03,9.39,4.71,8.65,9.97-1.47,10.35-2.87,20.7-4.25,31.06-.66,4.95-4.27,8.17-9.17,8.04-4.38-.12-8.12-3.7-8.15-8.28-.02-2.84.58-5.69.96-8.53,1.06-7.85,2.21-15.69,3.2-23.55.66-5.26,3.99-8.69,8.76-8.72ZM135.96,122.36c.16-2.56-.75-3.86-2.46-4.03-1.59-.16-2.73.87-3.11,2.83-.1.5-.16,1-.23,1.5-.85,6.17-1.7,12.35-2.55,18.52-.49,3.56-1.02,7.11-1.47,10.68-.3,2.35.91,3.95,2.82,3.9,1.62-.04,2.62-1.22,2.9-3.35.51-3.84,1.04-7.68,1.56-11.52.87-6.34,1.74-12.68,2.54-18.53Z"/>
        <path class="cls-1" d="M79.55,136.84c.26,5.23.55,10.45.76,15.68.19,4.84-3.59,8.93-8.31,9.07-4.82.15-8.84-3.52-9.07-8.32-.5-10.51-1.01-21.01-1.48-31.52-.21-4.62,2.99-8.61,7.25-9.14,4.85-.61,9.09,2.32,9.92,7.05.37,2.09.39,4.26.43,6.39.07,3.6.02,7.2.02,10.79.16,0,.32,0,.48,0ZM74.42,150.75s-.05,0-.07,0c-.35-7.59-.7-15.18-1.06-22.78-.11-2.31-.17-4.61-.37-6.91-.13-1.5-1.01-2.53-2.56-2.71-1.39-.17-2.42.53-2.92,1.81-.22.55-.2,1.22-.18,1.82.37,8.15.76,16.31,1.15,24.46.1,2.19.14,4.39.35,6.58.17,1.74,1.57,2.9,3.04,2.77,1.54-.13,2.59-1.41,2.61-3.18,0-.62,0-1.24,0-1.86Z"/>
        <path class="cls-1" d="M93.57,136.85c.26-5.29.54-10.57.77-15.86.21-4.83,4.12-8.56,8.94-8.46,4.75.1,8.51,3.9,8.37,8.77-.2,6.92-.6,13.84-.92,20.76-.17,3.54-.4,7.09-.52,10.63-.17,5.26-4.11,9.1-9.22,8.89-4.92-.2-8.45-4.47-8.14-9.72.29-5,.48-10.01.71-15.02,0,0,0,0,.01,0ZM99.4,137.2s-.01,0-.02,0c-.23,5.01-.41,10.01-.72,15.01-.15,2.34,1.26,3.44,2.75,3.55,1.65.12,2.82-1.14,2.97-3.22.15-2.02.18-4.05.28-6.07.39-8.21.81-16.42,1.17-24.63.1-2.19-.97-3.47-2.74-3.52-1.74-.05-2.89,1.19-2.99,3.36-.25,5.17-.47,10.35-.7,15.52Z"/>
        <path class="cls-1" d="M72.2,28.8c1.55.04,2.87,1.44,2.84,2.99-.03,1.59-1.36,2.86-2.96,2.83-1.61-.03-2.83-1.32-2.8-2.95.03-1.59,1.37-2.91,2.92-2.86Z"/>
      </g>
    </g>
  </g>
</svg>