<?xml version="1.0" encoding="UTF-8"?>
<svg id="Layer_2" xmlns="http://www.w3.org/2000/svg" viewBox="0 0 178.92 178.99">
  <defs>
    <style>
      .cls-1 {
        fill: #00a651;
      }
    </style>
  </defs>
  <g id="Layer_1-2" data-name="Layer_1">
    <g id="wPVB51">
      <g>
        <path class="cls-1" d="M85.15,127.06c-1.55-4.35-4.11-7.98-6.61-11.63-7.54-11.01-15.91-21.4-23.82-32.14-2.11-2.87-3.99-5.86-4.31-9.55-.18-2.11.23-4.06,1.55-5.77,2.29-2.96,5.27-3.65,8.59-1.93,2.55,1.32,4.57,3.3,6.5,5.37,5.14,5.49,9.56,11.59,14.62,17.15.81.89,1.63,1.75,2.56,2.56-.88-2.94-2.27-5.64-3.59-8.37-4.04-8.32-9.14-16.07-13.31-24.32-1.89-3.75-3.78-7.51-4.38-11.74-.75-5.31,4.6-10.49,9.45-9.15,1.59.44,2.73,1.47,3.74,2.68,1.93,2.32,3.43,4.93,4.95,7.52,6.16,10.51,11.93,21.25,18.44,31.56.38.6.79,1.18,1.29,1.91.42-.96-.08-1.64-.29-2.29-2.89-8.95-5.88-17.88-8.73-26.84-1.25-3.95-2.31-7.96-1.98-12.18.28-3.64,2.7-6.79,6.19-7.85,2.45-.75,4.5.09,6.22,1.83,2.55,2.58,3.92,5.86,5.28,9.14,3.37,8.09,5.61,16.58,8.64,24.78.69,1.88,1.47,3.73,2.37,5.54.36-2.72-.13-5.36-.37-8.01-.64-7.06-1.64-14.08-1.61-21.19,0-1.87.24-3.71.72-5.52.72-2.7,2.47-4.39,5.19-4.91,2.57-.49,4.58.65,6.12,2.63,2.76,3.54,3.97,7.78,5.2,11.98,3.51,12.03,5.99,24.33,9.39,36.38,1.83,6.48,4.99,12.46,7.46,18.69,2.61,6.57,5.84,12.89,7.49,19.83,1.41,5.93,1.79,11.98,2.33,18.02.21,2.33.75,4.33,2.38,6.18,5.12,5.82,10.06,11.8,15.06,17.72,1.27,1.51,1.35,3.03.29,4.21-1.18,1.32-3.16,1.35-4.42-.13-5.82-6.8-11.63-13.62-17.35-20.51-1.34-1.62-1.42-3.78-1.65-5.81-.62-5.6-.86-11.25-1.96-16.8-1.2-6.06-3.89-11.58-6.21-17.23-2.3-5.6-4.67-11.18-7.01-16.76-2.92-6.95-4.18-14.37-6.07-21.61-2.19-8.41-4.01-16.91-6.83-25.15-.53-1.54-1.13-3.04-1.99-4.42-.32-.52-.53-1.39-1.34-1.27-.84.13-.72.99-.82,1.62-.58,3.85,0,7.68.27,11.51.57,8.08,1.96,16.1,1.99,24.23,0,1.51-.16,3-.68,4.42-1.22,3.29-4.39,4-6.81,1.48-2.07-2.16-3.26-4.87-4.42-7.58-3.69-8.61-6.21-17.63-9.34-26.43-1.17-3.27-2.29-6.58-4.14-9.56-.44-.71-.94-1.72-1.8-1.58-.95.15-1.47,1.13-1.77,2.1-.61,2-.17,3.95.31,5.86,2.31,9.26,5.66,18.19,8.62,27.25,1.11,3.42,2.3,6.82,2.87,10.39.05.3.12.59.15.89.32,3.03-.53,5.14-2.54,6.03-2.46,1.1-4.29-.18-5.96-1.77-2.27-2.18-4.03-4.78-5.61-7.48-6.36-10.88-12.68-21.79-19.04-32.67-.82-1.4-1.75-2.73-2.69-4.04-.35-.49-.69-1.29-1.53-.92-.77.34-1.5.79-1.6,1.78-.14,1.35.2,2.62.66,3.87,1.8,4.86,4.33,9.36,6.89,13.84,4.61,8.08,9.25,16.14,12.93,24.71.99,2.31,1.95,4.65,2.35,7.16.53,3.31-1.8,5.42-5.11,4.65-2.18-.51-3.92-1.79-5.54-3.24-4.36-3.91-7.86-8.6-11.6-13.06-3.05-3.64-5.99-7.38-9.58-10.51-.82-.72-1.75-2.04-2.87-1.32-1.3.83-.78,2.37-.35,3.64.99,2.9,2.97,5.2,4.77,7.59,8.17,10.92,16.67,21.59,24.22,32.96,2.09,3.15,4.11,6.36,5.44,9.92.85,2.29,1.65,4.7-.42,6.73-2.12,2.08-4.65,1.56-7.07.56-3.53-1.45-6.55-3.76-9.64-5.94-4.42-3.11-8.69-6.45-13.48-8.99-1.06-.56-2.16-1.05-3.29-1.44-1.54-.54-2.94-.26-4.13.95-1.39,1.41-1.35,2.45.22,3.72,4.72,3.82,9.48,7.59,14.15,11.46,5.46,4.53,10.36,9.68,15.79,14.26,9.17,7.75,19.36,13.51,31.08,16.39.35.09.68.25,1.03.31,6.57,1.02,9.86,5.32,11.48,11.36.53,1.98.04,3.4-1.6,4.02-1.71.65-3.09-.1-3.91-2.1-3.11-7.58-1.44-6.07-8.75-7.95-15.81-4.05-28.69-12.85-40.23-23.94-6.69-6.42-13.7-12.44-21.19-17.9-.87-.64-1.7-1.35-2.48-2.09-2.72-2.61-3.24-6.01-1.47-9.36,2.16-4.08,6.61-6.01,11.14-4.8,4.01,1.07,7.44,3.29,10.84,5.56,4.7,3.13,9.1,6.68,13.92,9.65.7.43,1.43.82,2.15,1.24Z"/>
        <path class="cls-1" d="M.02,64.04c-.14-1.49.39-2.66,1.8-3.21,10.89-4.24,20.1-11.19,29.34-18.08,5.35-3.98,10.74-7.92,15.93-12.09,9.6-7.72,20.66-11.97,32.59-14.4,9.86-2.01,19.85-3.44,29.51-6.41,6.59-2.02,12.78-4.83,18.39-8.87,2.1-1.51,3.52-1.3,5.07.76,3.44,4.57,5.48,9.83,7.29,15.18,4.38,12.91,7.12,26.25,10.1,39.52,1.81,8.07,3.56,16.15,5.84,24.11,3.29,11.54,8.67,21.94,16.47,31.09,2.02,2.37,3.8,4.96,5.72,7.42,1.06,1.36,1.08,2.67.17,4.14-2.55,4.08-5.91,7.41-9.62,10.41-1.34,1.08-3.03.89-4.05-.27-1.12-1.27-1.04-2.89.35-4.15,2.28-2.05,4.56-4.09,6.53-6.45.79-.95.96-1.61.09-2.71-3.26-4.09-6.46-8.22-9.53-12.45-6.87-9.44-10.49-20.3-13.35-31.43-4.05-15.73-6.88-31.75-11.19-47.41-1.9-6.88-3.96-13.7-7.23-20.09-.71-1.38-1.25-1.6-2.66-.7-8.66,5.58-18.39,8.35-28.35,10.45-9.38,1.98-18.89,3.3-28.11,6.07-7,2.1-13.24,5.51-19.09,9.82-9.71,7.17-19.06,14.83-29.08,21.59-5.03,3.4-10.18,6.6-15.76,9.02-1.01.44-1.12.96-.92,1.93,1.44,6.76,4.68,12.71,8.46,18.36,5.54,8.29,11.34,16.4,16.87,24.69,6.22,9.31,11.51,19.12,15.44,29.63.1.28.21.56.31.85.54,1.69-.03,3.07-1.54,3.71-1.59.68-3.12.11-3.85-1.59-1.1-2.53-2.04-5.12-3.15-7.65-5.43-12.32-12.95-23.39-20.68-34.34-5.15-7.31-10.46-14.53-14.25-22.69C1.83,73.43.42,68.87.02,64.04Z"/>
        <path class="cls-1" d="M23.22,176.06c-1.6,0-2.46-.87-3-2.22-1.3-3.29-2.68-6.55-3.93-9.85-.77-2.05-2.09-3.41-4.14-4.19-3.3-1.26-6.56-2.64-9.85-3.93-1.35-.53-2.27-1.34-2.28-2.88,0-1.55.9-2.37,2.25-2.9,3.35-1.31,6.67-2.69,10.02-3.99,1.91-.74,3.19-2.03,3.93-3.94,1.28-3.29,2.64-6.56,3.92-9.85.55-1.4,1.33-2.42,2.98-2.4,1.65.02,2.4,1.06,2.95,2.45,1.26,3.24,2.62,6.44,3.86,9.69.78,2.05,2.14,3.36,4.2,4.13,3.25,1.22,6.45,2.59,9.68,3.86,1.41.55,2.39,1.38,2.36,3.01-.03,1.55-.99,2.33-2.33,2.85-3.23,1.27-6.42,2.65-9.68,3.86-2.13.79-3.49,2.17-4.28,4.28-1.24,3.31-2.61,6.57-3.92,9.85-.51,1.28-1.35,2.11-2.74,2.16ZM23.24,141.08c-1.54,2.68-2.28,5.55-4.42,7.7-2.11,2.12-5.03,2.75-7.6,4.37,6.37,1.54,10.12,5.59,11.93,11.86,1.64-6.49,5.72-10.27,12-12.1-6.42-1.68-10.29-5.54-11.9-11.83Z"/>
        <path class="cls-1" d="M20.35.04c1.37.05,2.21.89,2.72,2.16,1.08,2.73,2.23,5.44,3.25,8.19.7,1.89,1.92,3.07,3.81,3.76,2.7.99,5.34,2.13,8.02,3.18,1.34.53,2.26,1.36,2.25,2.91,0,1.55-.93,2.37-2.28,2.89-2.74,1.07-5.44,2.21-8.19,3.25-1.75.66-2.9,1.8-3.56,3.55-1.04,2.75-2.19,5.45-3.25,8.19-.52,1.35-1.33,2.28-2.88,2.29-1.55.02-2.38-.89-2.92-2.24-1.03-2.62-2.18-5.2-3.13-7.85-.72-2.02-1.95-3.32-3.99-4.05-2.65-.95-5.23-2.11-7.85-3.13C1.01,22.63.06,21.86.03,20.31c-.03-1.64.94-2.46,2.36-3.01,2.74-1.05,5.45-2.2,8.19-3.25,1.68-.64,2.8-1.76,3.44-3.44,1.07-2.8,2.22-5.57,3.32-8.36C17.87.9,18.73.03,20.35.04ZM11.22,20.25c4.66,1.43,7.51,4.49,9,9.07,1.47-4.7,4.46-7.61,9.07-9.09-4.66-1.48-7.6-4.44-9.11-9.09-1.4,4.67-4.37,7.55-8.96,9.11Z"/>
        <path class="cls-1" d="M178.92,17.41c-.03,1.41-.84,2.27-2.11,2.79-2.22.89-4.43,1.82-6.69,2.64-1.53.56-2.49,1.53-3.04,3.05-.8,2.19-1.73,4.34-2.58,6.52-.52,1.35-1.36,2.26-2.9,2.25-1.55,0-2.36-.93-2.89-2.27-.89-2.29-1.87-4.55-2.74-6.84-.48-1.27-1.3-2.08-2.57-2.56-2.3-.87-4.56-1.84-6.84-2.73-1.35-.53-2.25-1.36-2.25-2.9,0-1.55.92-2.36,2.27-2.89,2.29-.89,4.55-1.87,6.84-2.74,1.27-.48,2.08-1.31,2.56-2.57.87-2.3,1.84-4.56,2.74-6.84.53-1.34,1.35-2.26,2.9-2.25,1.55,0,2.36.93,2.89,2.27.89,2.29,1.87,4.55,2.74,6.84.48,1.27,1.3,2.08,2.57,2.56,2.35.89,4.68,1.85,7.01,2.79,1.27.52,2.08,1.39,2.09,2.89ZM161.56,10.88c-1.23,3.27-3.18,5.25-6.57,6.49,3.47,1.18,5.37,3.27,6.62,6.52,1.27-3.35,3.23-5.38,6.7-6.55-3.57-1.15-5.39-3.26-6.75-6.46Z"/>
        <path class="cls-1" d="M53.87,178.92c-3.95.06-4.52-.4-4.9-3.91-.45-4.18-.86-8.35-1.62-12.49-.36-1.95.6-3.43,2.23-3.74,1.76-.34,3.13.66,3.48,2.74.52,3.01.98,6.04,1.35,9.07.3,2.51.23,2.54,2.81,2.16,4.93-.73,9.81-1.68,14.62-2.96,5.5-1.47,10.96-3.07,16.44-4.6.63-.18,1.28-.38,1.93-.37,1.54,0,2.5.92,2.75,2.36.29,1.67-.6,2.82-2.15,3.3-3.89,1.2-7.8,2.35-11.72,3.44-7.74,2.17-15.56,3.98-23.56,4.89-.72.08-1.44.1-1.67.12Z"/>
      </g>
    </g>
  </g>
</svg>