<?xml version="1.0" encoding="UTF-8"?>
<svg xmlns="http://www.w3.org/2000/svg" viewBox="0 0 102.52 146.25">
  <defs>
    <style>
      .cls-1, .cls-2, .cls-3 {
        fill-rule: evenodd;
      }

      .cls-1, .cls-4 {
        fill: #fff;
      }

      .cls-5, .cls-2 {
        fill: #faed10;
      }

      .cls-6, .cls-3 {
        fill: #007236;
      }

      .cls-7 {
        fill: #231f20;
      }

      .cls-8 {
        isolation: isolate;
      }

      .cls-9 {
        mix-blend-mode: multiply;
      }

      .cls-10 {
        fill: #00481a;
      }
    </style>
  </defs>
  <g class="cls-8">
    <g id="Layer_2" data-name="Layer 2">
      <g id="Layer_1-2" data-name="Layer 1">
        <g>
          <g>
            <path class="cls-10" d="M38.58,145.46l9.91-6.14c1.7-1.05,3.85-1.05,5.55,0l9.9,6.14c3.51,2.17,8.04-.35,8.04-4.48v-55.31c0-2.91-2.36-5.27-5.27-5.27h-30.91c-2.91,0-5.27,2.36-5.27,5.27v55.31c0,4.13,4.53,6.65,8.04,4.48Z"/>
            <path class="cls-10" d="M63.65.83l-9.52,5.9c-1.76,1.09-3.99,1.09-5.75,0L38.87.83c-3.64-2.25-8.33.36-8.33,4.64v54.78c0,3.01,2.44,5.46,5.46,5.46h30.53c3.01,0,5.46-2.44,5.46-5.46V5.47c0-4.28-4.69-6.89-8.33-4.64Z"/>
            <g>
              <path class="cls-2" d="M50.58,131.5c-.41-.1-10.26-2.56-21.18-8.44-14.74-7.93-24.3-18.34-27.64-30.11-3.76-13.24-.72-23.03,1.96-31.67,2.97-9.56,5.31-17.11-2.09-27.25l-1.37-1.87L15.36,15.66l1.84.77c.06.03,6.64,2.69,15.69,2.69,6.09,0,11.88-4.02,17.23-6.36l1.14-.5,1.13.5c5.35,2.34,11.14,6.36,17.23,6.36,9.12,0,15.63-2.67,15.7-2.69l1.84-.77,15.1,16.5-1.37,1.87c-7.4,10.15-5.06,17.7-2.09,27.25,2.68,8.64,5.72,18.43,1.96,31.67-3.34,11.77-12.9,22.18-27.64,30.11-10.93,5.88-20.77,8.34-21.18,8.44l-.68.17-.68-.17Z"/>
              <g class="cls-9">
                <path class="cls-6" d="M51.26,129.95l-.1-.02c-.4-.1-10.03-2.48-20.92-8.35-14.36-7.73-23.65-17.78-26.86-29.07-3.62-12.73-.78-21.89,1.97-30.74,3.09-9.95,5.76-18.54-2.48-29.84l-.2-.28,12.81-14,.28.12c.07.03,7.09,2.92,16.87,2.92,4.88,0,9.59-2.33,14.14-4.59,1.5-.74,2.92-1.45,4.34-2.07l.17-.07.17.07c1.42.62,2.84,1.33,4.34,2.07,4.55,2.26,9.26,4.59,14.13,4.59,9.69,0,16.59-2.8,16.87-2.92l.27-.11,12.81,14-.2.28c-8.24,11.29-5.58,19.88-2.49,29.83,2.75,8.86,5.6,18.02,1.98,30.75-3.21,11.29-12.5,21.34-26.86,29.07-10.86,5.84-20.52,8.25-20.92,8.35l-.1.02ZM3.76,31.72c8.25,11.5,5.54,20.22,2.4,30.31-2.71,8.74-5.52,17.77-1.97,30.26,3.14,11.06,12.29,20.94,26.44,28.55,10.34,5.56,19.51,7.96,20.62,8.24,1.12-.28,10.32-2.7,20.62-8.24,14.16-7.62,23.3-17.49,26.44-28.55,3.55-12.49.74-21.52-1.97-30.25-3.13-10.09-5.84-18.81,2.41-30.31l-11.94-13.05c-1.43.55-8.03,2.88-16.92,2.88-5.07,0-9.87-2.38-14.51-4.68-1.43-.71-2.79-1.38-4.13-1.98-1.35.6-2.7,1.27-4.13,1.98-4.64,2.3-9.44,4.68-14.51,4.68-8.81,0-15.49-2.34-16.92-2.88L3.76,31.72Z"/>
              </g>
              <path class="cls-3" d="M51.26,124.16c-2.67-.75-10.2-3.06-18.5-7.53-13.01-7-21.37-15.92-24.18-25.8-3.19-11.21-.71-19.18,1.91-27.62,2.89-9.32,5.88-18.93-1.19-30.61l8.07-8.82c3.19.96,8.75,2.25,15.52,2.25s12.6-3.98,18.37-6.25c5.76,2.26,11.93,6.25,18.37,6.25,6.86,0,12.37-1.28,15.53-2.23l8.06,8.81c-7.06,11.68-4.08,21.29-1.19,30.61,2.62,8.45,5.1,16.42,1.91,27.63-2.81,9.88-11.17,18.8-24.18,25.8-8.3,4.46-15.83,6.78-18.5,7.53Z"/>
              <path class="cls-1" d="M51.26,121.17c-3.16-.93-9.83-3.13-17.16-7.08-12.32-6.63-20.2-14.96-22.8-24.08-2.96-10.4-.71-17.63,1.89-26.01,2.79-8.98,5.93-19.1-.41-31.06l5.5-6.01c3.6.94,8.66,1.88,14.6,1.88,6.4,0,12.57-3.91,18.37-6.05,5.79,2.13,11.97,6.05,18.37,6.05,6.02,0,11.06-.93,14.62-1.87l5.49,6c-6.34,11.96-3.2,22.08-.41,31.05,2.6,8.38,4.85,15.62,1.89,26.01-2.59,9.12-10.48,17.45-22.8,24.08-7.33,3.94-14,6.15-17.16,7.08Z"/>
            </g>
          </g>
          <g>
            <path class="cls-7" d="M27.7,97.9l-.6.8,1.14.85.6-.8-.06-.04c-.12-.09-.2-.2-.21-.31s.02-.23.11-.36c.1-.14.21-.21.32-.22.11,0,.25.04.41.16l.9.67c.16.12.25.23.27.34.02.11-.02.23-.12.37-.09.12-.2.2-.31.21s-.23-.02-.35-.11l-.06-.04-1.93,2.59.06.04c.12.09.2.2.21.31.02.11-.02.23-.11.35-.1.14-.21.21-.32.22-.11.01-.25-.04-.41-.16l-.9-.67c-.16-.12-.25-.23-.27-.34-.02-.11.02-.23.12-.37.09-.12.19-.19.31-.21.11-.01.23.03.36.12l.06.04.76-1.03-1.14-.85-.76,1.03.06.04c.12.09.2.2.22.31.02.11-.02.23-.11.35-.1.14-.21.21-.32.22-.11,0-.25-.04-.41-.16l-.9-.67c-.16-.12-.25-.23-.27-.34-.02-.11.02-.23.12-.37.09-.12.19-.19.31-.21s.23.02.36.12l.06.04,1.93-2.59-.06-.04c-.12-.09-.19-.19-.21-.31-.02-.11.02-.23.12-.36.1-.14.21-.21.32-.22.11-.01.25.04.4.16l.9.67c.16.12.25.23.27.34.02.11-.01.24-.12.37-.09.12-.2.2-.31.21-.11.02-.23-.02-.36-.12l-.05-.04Z"/>
            <path class="cls-7" d="M33.03,101.37l-1.57,2.83.64.35c.17.1.28.2.32.3.04.11.02.23-.06.38-.08.15-.18.23-.29.26-.11.02-.25-.01-.42-.1l-2.25-1.25c-.17-.1-.28-.2-.31-.3-.04-.11-.01-.23.07-.38.08-.15.18-.23.28-.25s.25.01.42.11l.64.35,1.57-2.83-.64-.35c-.17-.1-.28-.2-.31-.3s-.02-.23.07-.38c.08-.15.18-.23.29-.26s.25.02.42.11l2.25,1.25c.18.1.29.2.32.3.04.1.01.23-.07.38-.08.15-.18.23-.29.26-.11.03-.25-.01-.43-.11l-.64-.35Z"/>
            <path class="cls-7" d="M38.69,103c.09-.08.17-.12.24-.14.07-.02.15,0,.24.02.13.05.21.12.24.21.03.09,0,.22-.06.39l-.41,1.05c-.07.19-.15.3-.24.34-.09.04-.21.03-.37-.03-.11-.04-.19-.11-.23-.19-.04-.08-.05-.2-.04-.36.03-.29,0-.52-.12-.69-.11-.17-.3-.31-.57-.42-.41-.16-.79-.15-1.12.05-.33.19-.6.56-.81,1.09-.21.53-.25.99-.14,1.37s.39.65.81.82c.1.04.21.07.34.1.13.03.29.05.48.06l.25-.64-.46-.18c-.18-.07-.3-.16-.35-.25-.05-.1-.04-.22.02-.38.06-.16.15-.26.25-.3.1-.04.25-.02.43.05l1.46.57c.19.07.31.16.36.26.05.1.04.23-.02.38-.06.14-.14.24-.25.28-.11.05-.23.04-.38-.02l-.06-.03-.38.96-.02.05c-.03.09-.07.14-.1.17-.03.03-.08.05-.15.06-.19.03-.46.02-.83-.04-.36-.06-.71-.16-1.05-.29-.7-.28-1.18-.73-1.44-1.37-.25-.64-.23-1.33.06-2.08.29-.72.74-1.24,1.37-1.54.63-.3,1.28-.32,1.96-.06.19.07.37.17.54.29.17.12.34.26.52.44Z"/>
            <path class="cls-7" d="M41.35,104.66l-.24.97,1.38.34.24-.97-.07-.02c-.15-.04-.26-.11-.32-.2-.06-.1-.07-.22-.04-.38.04-.17.11-.27.21-.33s.25-.06.44,0l1.09.27c.19.05.32.12.38.21.06.09.07.22.03.39-.04.15-.1.26-.2.32s-.22.07-.37.04l-.07-.02-.77,3.14.07.02c.15.04.26.1.32.2.06.1.07.22.03.37-.04.17-.11.27-.21.33-.1.05-.25.06-.44,0l-1.09-.27c-.19-.05-.32-.12-.39-.21-.06-.09-.08-.22-.03-.39.04-.15.1-.25.2-.31s.22-.07.38-.03l.07.02.3-1.24-1.38-.34-.31,1.24.07.02c.15.04.26.1.32.2.06.1.07.22.04.37-.04.17-.11.27-.21.33s-.25.06-.44,0l-1.09-.27c-.19-.05-.32-.12-.39-.21-.06-.09-.08-.22-.03-.39.04-.15.1-.25.2-.31s.22-.07.37-.03l.07.02.77-3.14-.07-.02c-.15-.04-.25-.1-.31-.2s-.07-.22-.03-.37c.04-.17.11-.28.21-.33.1-.05.24-.06.43,0l1.09.27c.19.05.32.12.38.21.07.09.08.22.04.39-.04.15-.11.26-.21.32-.1.06-.22.07-.38.03l-.07-.02Z"/>
            <path class="cls-7" d="M53.25,105.05c.04-.09.09-.16.14-.19.05-.04.14-.06.25-.06.17,0,.28.03.33.09.05.06.08.18.09.37l.04.83v.05c0,.17-.03.29-.09.36s-.18.11-.34.11c-.21,0-.36-.1-.47-.32-.01-.03-.03-.06-.04-.08-.09-.18-.22-.31-.37-.4-.16-.09-.34-.13-.54-.12-.26,0-.47.07-.63.2-.16.12-.23.28-.23.47,0,.27.38.47,1.12.6.12.02.22.04.3.05.56.11.96.28,1.22.53.25.24.39.58.4,1.01.01.53-.16.95-.51,1.24s-.87.45-1.54.47c-.26,0-.5,0-.71-.04-.21-.03-.41-.08-.6-.15-.04.08-.1.13-.16.17-.06.03-.14.05-.25.06-.18,0-.31-.03-.38-.09-.07-.07-.11-.19-.12-.37l-.04-1.02v-.05c0-.19.03-.32.1-.4.07-.08.19-.12.37-.12.19,0,.35.13.48.4.03.07.05.12.07.15.12.22.28.38.48.49s.45.15.74.15c.27,0,.47-.07.62-.18.15-.11.21-.27.21-.47,0-.31-.35-.54-1.02-.68-.2-.04-.36-.08-.47-.11-.56-.13-.96-.31-1.18-.53-.22-.22-.34-.52-.35-.9-.01-.49.17-.9.53-1.22.36-.32.84-.49,1.43-.5.2,0,.39.01.58.05.19.04.38.09.57.17Z"/>
            <path class="cls-7" d="M58.49,104.46c.04-.11.09-.19.14-.25.05-.05.12-.08.22-.1.14-.02.25,0,.31.06.07.07.12.19.15.37l.18,1.11c.03.2.02.33-.03.41-.05.08-.16.13-.33.16-.12.02-.22,0-.29-.04-.07-.05-.15-.14-.21-.29-.12-.26-.27-.44-.45-.53-.18-.09-.42-.12-.71-.07-.44.07-.75.27-.94.6s-.24.78-.15,1.35c.09.56.27.97.56,1.24.28.26.65.36,1.08.29.3-.05.62-.2.94-.46.33-.26.54-.39.64-.41.11-.02.21.02.3.1.09.08.15.19.17.33.04.25-.14.52-.55.82-.41.29-.89.48-1.44.57-.75.12-1.39-.04-1.93-.46-.54-.42-.87-1.03-1-1.83-.12-.77.01-1.44.4-2.02.39-.58.94-.93,1.66-1.04.2-.03.41-.04.61-.03s.42.05.66.12Z"/>
            <path class="cls-7" d="M61.58,104.55l.28.96,1.36-.4-.28-.96-.07.02c-.15.04-.28.04-.38-.01-.1-.05-.17-.16-.22-.31-.05-.16-.04-.29.02-.39.06-.1.18-.17.37-.23l1.07-.32c.19-.06.33-.06.43-.01.1.05.17.15.22.32.04.15.04.28-.01.38-.05.1-.15.17-.3.22l-.07.02.92,3.1.07-.02c.15-.04.27-.04.38.01.1.05.17.15.22.3.05.16.04.29-.02.39-.06.1-.18.17-.38.23l-1.07.32c-.19.06-.34.06-.44.02s-.18-.15-.23-.32c-.04-.15-.04-.27.02-.37s.16-.17.31-.22l.07-.02-.36-1.23-1.36.4.37,1.23.07-.02c.15-.04.28-.04.38.01s.17.15.22.3c.05.16.04.29-.02.39-.06.1-.18.17-.37.23l-1.07.32c-.19.06-.34.06-.44.01s-.18-.15-.23-.32c-.04-.15-.04-.27.02-.37.05-.1.16-.17.31-.22l.07-.02-.92-3.1-.07.02c-.15.04-.27.04-.37-.02-.1-.05-.17-.16-.21-.31-.05-.16-.04-.29.01-.39s.18-.17.37-.23l1.07-.32c.19-.06.33-.06.43-.01.11.05.18.15.23.32.04.15.04.28-.02.38-.06.1-.16.17-.31.22l-.07.02Z"/>
            <path class="cls-7" d="M66.6,101.56c.65-.29,1.29-.3,1.92-.03s1.1.77,1.43,1.49c.33.73.38,1.41.18,2.06-.21.65-.64,1.12-1.29,1.41-.65.29-1.28.3-1.92.02s-1.11-.77-1.43-1.49c-.33-.72-.38-1.41-.17-2.06.21-.65.64-1.12,1.29-1.42ZM67.01,102.48c-.34.15-.54.41-.62.77s0,.79.22,1.27c.22.49.49.83.81,1.01.32.19.65.21.99.05.34-.15.54-.41.62-.77s0-.79-.22-1.28c-.22-.49-.49-.83-.8-1.01-.32-.19-.65-.2-.99-.05Z"/>
            <path class="cls-7" d="M70.97,99.23c.6-.38,1.24-.47,1.89-.28.66.19,1.2.62,1.61,1.29.42.67.57,1.35.45,2.02s-.49,1.2-1.09,1.57c-.6.37-1.23.47-1.9.28-.66-.19-1.2-.62-1.61-1.29-.42-.67-.57-1.34-.45-2.02.12-.67.49-1.2,1.1-1.58ZM71.5,100.09c-.32.2-.49.48-.51.85-.02.37.11.78.39,1.23.28.45.59.75.94.9.34.14.67.12.98-.08.32-.2.49-.48.51-.85s-.11-.78-.39-1.24c-.28-.45-.59-.75-.93-.9-.34-.14-.67-.12-.99.08Z"/>
            <path class="cls-7" d="M75.35,97.48l2.05,2.5,1.52-1.25-.49-.6c-.13-.15-.19-.29-.19-.4,0-.11.07-.22.19-.32s.25-.15.36-.13c.11.02.23.1.36.25l.85,1.03c.1.12.14.22.13.3-.01.08-.09.18-.23.29l-3.04,2.5c-.14.12-.27.18-.38.17-.11,0-.22-.08-.33-.21-.11-.13-.15-.25-.14-.35.01-.11.1-.22.24-.34l.29-.24-2.05-2.5-.29.24c-.15.12-.27.18-.38.17-.11,0-.22-.07-.32-.2-.11-.13-.15-.25-.13-.36.02-.11.1-.23.24-.35l1.43-1.17c.14-.12.27-.17.39-.17s.22.07.33.2c.11.13.15.25.13.36-.02.11-.1.23-.24.35l-.29.24Z"/>
          </g>
          <g>
            <path class="cls-6" d="M92.1,63.25c-2.89-9.32-5.88-18.92,1.19-30.61l-8.06-8.81c-3.17.96-8.68,2.23-15.53,2.23-6.43,0-12.6-3.98-18.37-6.25-5.77,2.26-11.94,6.25-18.37,6.25-6.77,0-12.33-1.29-15.52-2.25l-8.07,8.82c7.06,11.68,4.08,21.29,1.19,30.61-.61,1.97-1.21,3.92-1.74,5.88,6.89,7.64,15.83,13.39,25.94,16.41,5.17,1.54,10.64,2.38,16.3,2.38s10.98-.82,16.08-2.32c10.4-3.06,19.56-9.01,26.56-16.93-.5-1.81-1.03-3.62-1.6-5.44Z"/>
            <path class="cls-4" d="M69.59,76.88c-.22,0-.44,0-.66,0,0-1.17,0-2.33,0-3.5,1.18-.63,1.68-1.76,1.36-3.16-.34-1.51-.67-3.02-1.01-4.53-.33-1.51-1.37-2.34-2.91-2.34h-.98c-.66,0-1.33,0-2,0,.02-.02.04-.05.05-.08.25-.36.33-.79.25-1.2-.06-.31-.26-.75-.81-1.11-1.49-.95-2.99-1.9-4.48-2.85l-2.29-1.45c-.98-.62-1.95-1.23-2.92-1.86-1.25-.81-2.59-.81-3.87,0-2.26,1.45-4.53,2.89-6.79,4.32l-2.79,1.77c-.1.07-.21.13-.3.21-.69.54-.85,1.42-.39,2.13.03.04.05.08.08.11h-1.6c-.5,0-1,0-1.5,0-1.41.01-2.43.82-2.75,2.17-.37,1.6-.74,3.21-1.08,4.82-.29,1.33.23,2.44,1.38,3.05,0,1.16,0,2.33,0,3.49-.21,0-.42,0-.62.01-1.32.06-2.34.77-2.87,1.98l-.24.55v8.58l.05.3c.42,1.3,1.2,1.92,1.91,2.21-.3.74-.42,1.56-.36,2.45.02.3.02.57,0,.81-.12,1.52.6,2.63,2.02,3.13l.16.06h24.97l.27-.2c.28-.21.47-.42.59-.63.13.23.29.41.39.51l.3.32h8.74l.16-.06c.93-.33,1.56-.91,1.86-1.72.11-.3.17-.61.16-.94,0-.33,0-.67,0-1v-.99c0-.67-.1-1.13-.38-1.73,1.16-.47,1.97-1.59,1.97-2.9,0-2.54,0-5.08,0-7.62,0-1.67-1.38-3.08-3.07-3.13Z"/>
            <g id="vkE5K1">
              <g>
                <path class="cls-6" d="M68.71,95.97h-8.13c-.22-.24-.44-.48-.29-.83.16-.38.5-.37.85-.36,2.32,0,4.65,0,6.97,0,.58,0,.75-.18.76-.76,0-.11-.01-.21,0-.32.07-.41-.09-.52-.51-.52-11.34.01-22.69,0-34.03,0q-.69,0-.69.68c0,.79.12.91.93.91,7.76,0,15.52,0,23.27,0,.34,0,.65.03.78.4.14.37-.08.6-.35.8h-24.47c-1-.35-1.44-1.06-1.36-2.11.03-.32.02-.64,0-.96-.07-1.13.18-2.16.91-3.05.01-.01,0-.05,0-.07-.28-.03-.56-.02-.83-.09-.9-.22-1.4-.85-1.67-1.7,0-2.79,0-5.58,0-8.37.05-.12.1-.24.15-.36.38-.87,1.05-1.34,2.01-1.39.41-.02.82-.02,1.23,0,.25.01.35-.05.35-.33-.01-1.53,0-3.05,0-4.58,0-.18-.04-.28-.23-.35-.97-.37-1.39-1.1-1.18-2.09.34-1.61.71-3.21,1.08-4.81.21-.9.85-1.39,1.78-1.39.72,0,1.43,0,2.15,0,.94,0,1.89,0,2.83,0,.14,0,.34.07.34-.2,0-.52,0-1.05,0-1.64-.26.16-.46.29-.67.4-.31.16-.63.07-.8-.2-.18-.28-.12-.59.16-.81.08-.07.18-.12.27-.18,3.18-2.02,6.37-4.03,9.54-6.07.95-.61,1.84-.62,2.78-.01,1.42.93,2.86,1.82,4.3,2.73,1.8,1.15,3.61,2.29,5.4,3.44.39.25.48.59.27.91-.2.3-.53.35-.91.12-.17-.1-.33-.2-.55-.33,0,.53.02,1,0,1.46-.02.32.08.4.4.4,1.61-.02,3.21,0,4.82,0,1.09,0,1.71.5,1.94,1.56.33,1.51.67,3.03,1.01,4.54.24,1.07-.14,1.8-1.17,2.2-.16.06-.22.14-.22.31,0,1.55,0,3.11,0,4.66,0,.21.07.28.28.27.45-.01.9-.01,1.35,0,1.15.03,2.1.99,2.1,2.13,0,2.54,0,5.07,0,7.61,0,1.15-.94,2.09-2.1,2.13-.14,0-.28.01-.43.02.79,1.31.93,1.67.94,2.48,0,.66,0,1.33,0,1.99,0,.2-.03.4-.1.58-.22.59-.68.92-1.26,1.13ZM51.25,88.56c5.99,0,11.98,0,17.97,0,.89,0,1.25-.36,1.25-1.25,0-2.31,0-4.62,0-6.93,0-.92-.36-1.29-1.27-1.29-11.97,0-23.93,0-35.9,0-.89,0-1.25.37-1.25,1.26,0,2.31,0,4.62,0,6.93,0,.92.35,1.28,1.27,1.28,5.98,0,11.95,0,17.93,0ZM51.23,71.98c1.67,0,3.35,0,5.02,0,.64,0,.82.19.82.83,0,1.57,0,3.13,0,4.7,0,.3.08.38.38.37.72-.02,1.43-.02,2.15,0,.26,0,.37-.04.37-.34-.01-2.78,0-5.55,0-8.33,0-.46-.17-.83-.56-1.08-2.53-1.61-5.06-3.22-7.59-4.83-.36-.23-.73-.23-1.09,0-2.53,1.61-5.06,3.21-7.59,4.83-.39.25-.57.61-.57,1.08,0,.72,0,1.43,0,2.15,0,.61,0,1.22,0,1.83,0,.37-.26.61-.59.61-.34,0-.57-.23-.6-.6,0-.08-.01-.16,0-.24.02-.22-.09-.27-.28-.27-1.67,0-3.35,0-5.02,0-.21,0-.28.06-.27.27,0,1.55,0,3.11,0,4.66,0,.19.06.25.25.25,1.69,0,3.37,0,5.06,0,.21,0,.27-.08.27-.28-.01-.5,0-1.01,0-1.51,0-.44.24-.69.6-.68.36,0,.59.26.6.7,0,.49.02.98,0,1.47,0,.25.08.31.32.31.73-.01,1.46-.02,2.19,0,.33.01.39-.11.38-.41-.01-1.58,0-3.16,0-4.74,0-.56.2-.76.77-.76,1.67,0,3.35,0,5.02,0ZM57.47,64.33c.89,0,1.48-.02,2.08,0,.35.02.42-.1.41-.42-.03-.64-.01-1.27,0-1.91,0-.21-.05-.34-.23-.45-2.62-1.66-5.24-3.32-7.86-4.99-.42-.27-.81-.25-1.22.02-2.6,1.66-5.21,3.32-7.83,4.97-.18.11-.25.23-.25.44.02.66.02,1.33,0,1.99,0,.28.07.36.35.36,1.22-.02,2.44,0,3.67,0,.2,0,.35-.05.52-.16.98-.63,1.97-1.26,2.96-1.88.79-.5,1.6-.49,2.4,0,.5.3,1.01.59,1.47.94,1.14.87,2.36,1.42,3.54,1.1ZM51.26,91.98c5.72,0,11.45,0,17.17,0,.36,0,.45-.11.31-.42-.03-.07-.05-.15-.08-.22-.52-1.14-1.45-1.59-2.66-1.59-9.83,0-19.66,0-29.49,0-.11,0-.21,0-.32,0-1.16.06-2.06.73-2.41,1.77q-.15.45.34.45c5.71,0,11.42,0,17.13,0ZM44.83,65.62c-.19-.1-.34-.06-.48-.06-2.03,0-4.06,0-6.09,0-.73,0-1.46,0-2.19,0-.31,0-.55.1-.62.43-.36,1.61-.73,3.23-1.08,4.84-.09.43.12.67.56.67,2.04,0,4.09,0,6.13,0,.25,0,.32-.07.31-.32-.01-.64,0-1.27,0-1.91-.02-.99.4-1.73,1.24-2.25.73-.45,1.45-.92,2.22-1.41ZM57.76,65.55s-.02.05-.04.08c.09.06.17.12.26.17.66.42,1.32.83,1.98,1.26.77.49,1.19,1.19,1.19,2.12,0,.65.02,1.3,0,1.95,0,.29.07.38.37.38,1.98-.01,3.96,0,5.93,0,.63,0,.81-.22.67-.85-.33-1.47-.66-2.94-.99-4.42-.14-.62-.21-.69-.85-.69-2.19,0-4.38,0-6.57,0-.65,0-1.3,0-1.95,0ZM63.93,77.88c.84,0,1.67,0,2.51,0,.22,0,.29-.06.29-.29,0-1.53,0-3.05,0-4.58,0-.23-.06-.32-.31-.32-1.64.01-3.29.01-4.93,0-.26,0-.34.07-.34.34.01,1.51.01,3.02,0,4.54,0,.24.07.32.31.32.82-.01,1.64,0,2.47,0ZM46.65,75.52c0,.68.01,1.35,0,2.03,0,.26.07.34.34.34,1.11-.01,2.23-.01,3.34,0,.23,0,.33-.05.33-.3-.01-1.37-.01-2.73,0-4.1,0-.24-.07-.32-.31-.31-1.13.01-2.26.01-3.38,0-.26,0-.31.09-.31.32.01.68,0,1.35,0,2.03ZM55.87,75.53c0-.69,0-1.38,0-2.07,0-.22-.06-.3-.29-.3-1.14.01-2.28.01-3.42,0-.23,0-.29.08-.29.3,0,1.37,0,2.73,0,4.1,0,.23.06.32.31.32,1.13-.01,2.26-.01,3.39,0,.25,0,.32-.08.31-.32-.01-.68,0-1.35,0-2.03Z"/>
                <path class="cls-5" d="M60.77,86.57c-1.54,0-2.76-1.21-2.75-2.75,0-1.51,1.22-2.74,2.72-2.75,1.52,0,2.78,1.23,2.79,2.74.01,1.51-1.23,2.76-2.75,2.76ZM59.22,83.84c0,.85.7,1.54,1.55,1.53.85,0,1.53-.71,1.53-1.56,0-.85-.71-1.55-1.55-1.54-.85.01-1.53.7-1.52,1.56Z"/>
                <path class="cls-5" d="M54.07,86.57c-1.53,0-2.74-1.23-2.73-2.77,0-1.51,1.26-2.74,2.79-2.73,1.51.02,2.72,1.27,2.71,2.8-.01,1.5-1.25,2.7-2.77,2.7ZM54.09,85.37c.84,0,1.55-.71,1.55-1.55,0-.84-.72-1.55-1.56-1.55-.84,0-1.55.72-1.55,1.55,0,.84.71,1.54,1.55,1.54Z"/>
                <path class="cls-5" d="M50.14,83.83c0,.68,0,1.35,0,2.03,0,.45-.21.69-.58.7-.39,0-.61-.24-.61-.71,0-.4-.01-.8,0-1.19.01-.25-.08-.32-.32-.31-.38.02-.77.01-1.15,0-.22,0-.31.06-.3.29.01.4,0,.8,0,1.19,0,.47-.23.72-.61.73-.39,0-.61-.24-.61-.72,0-1.35,0-2.71,0-4.06,0-.45.26-.73.63-.71.35.01.58.29.59.72,0,.34.02.69,0,1.03-.02.27.09.34.34.33.36-.02.72-.02,1.07,0,.27.02.38-.06.36-.35-.02-.36-.01-.72,0-1.07,0-.39.25-.66.59-.66.34,0,.59.26.6.66,0,.7,0,1.41,0,2.11Z"/>
                <path class="cls-5" d="M37.29,86.57c-.9,0-1.5-.25-2-.73-.3-.29-.33-.66-.08-.92.25-.25.58-.26.88.02.32.29.69.45,1.12.42.26-.02.52-.11.58-.4.07-.31-.2-.41-.41-.5-.4-.18-.81-.32-1.21-.5-1.02-.45-1.2-1.77-.33-2.48.77-.63,2.23-.51,2.89.23.21.24.24.51.04.76-.2.26-.48.34-.77.16-.24-.14-.47-.29-.76-.34-.18-.03-.35,0-.51.05-.13.05-.22.14-.23.29,0,.15.11.2.22.25.36.14.72.28,1.07.43.92.38,1.38,1.09,1.21,1.86-.18.86-.94,1.41-1.72,1.4Z"/>
                <path class="cls-5" d="M42.87,86.57c-1.16-.01-2.16-.72-2.56-1.81-.4-1.1-.06-2.31.85-3.06.89-.74,2.13-.83,3.13-.25.27.16.47.36.41.7-.05.27-.24.44-.51.49-.23.04-.4-.1-.59-.19-.72-.35-1.57-.12-1.99.55-.42.66-.29,1.5.32,2.01.58.49,1.31.48,1.87-.03.31-.28.63-.29.88-.04.26.25.26.58-.03.89-.48.52-1.07.76-1.78.74Z"/>
                <path class="cls-5" d="M65.98,83.46c0,.52.01,1.03,0,1.55,0,.27.06.39.35.36.2-.02.4-.02.6,0,.33.03.56.3.55.62-.01.33-.24.56-.59.57-.49.01-.98.01-1.47,0-.4,0-.64-.21-.64-.61-.02-1.42-.01-2.84,0-4.26,0-.37.27-.62.59-.63.34,0,.61.25.62.64.02.58,0,1.17,0,1.75h0Z"/>
              </g>
            </g>
          </g>
        </g>
      </g>
    </g>
  </g>
</svg>