<?xml version="1.0" encoding="UTF-8"?>
<svg id="Layer_2" data-name="Layer 2" xmlns="http://www.w3.org/2000/svg" viewBox="0 0 144.11 195.31">
  <defs>
    <style>
      .cls-1 {
        fill: #fff;
      }

      .cls-2 {
        fill: #0f8745;
      }

      .cls-3 {
        fill: #faed14;
      }
    </style>
  </defs>
  <g id="Layer_1-2" data-name="Layer 1">
    <g>
      <path class="cls-3" d="M71.61,42.53c-23.31.36-37.33,27.04-24.1,46.37,11.8,17.24,37.3,17.22,49.09,0,13.48-19.69-1.28-46.73-24.99-46.37Z"/>
      <path class="cls-1" d="M71.61,8.62c-26.04.21-49.65,16.78-58.9,40.97-8.56,22.36-2.99,42.13,9.04,61.65,14.75,23.92,31.53,48.24,47.25,71.64.52.77,2.45,4.14,3.21,3.98l50.16-75.62c10.99-17.83,16.69-35.58,10.76-56.51-7.66-27.07-33.3-46.34-61.52-46.11ZM105.28,91.1c-14.59,25.75-52.18,25.61-66.57-.25-13.3-23.9,2.34-54.06,29.46-56.68,30.71-2.97,52.43,29.89,37.11,56.93Z"/>
      <path class="cls-2" d="M77.01.14c-2.9-.19-7.01-.19-9.91,0C40.52,1.91,15.97,19.57,5.68,44.09-5.07,69.7.33,92.82,14.35,115.58c15.7,25.49,33.72,49.64,49.54,75.07,5.04,6.22,11.26,6.19,16.32,0,15.83-25.42,33.84-49.59,49.54-75.07,14.02-22.76,19.42-45.88,8.67-71.49C128.14,19.57,103.59,1.91,77.01.14ZM122.37,111.24l-50.16,75.62c-.76.16-2.69-3.21-3.21-3.98-15.73-23.4-32.51-47.72-47.25-71.64-12.03-19.52-17.6-39.28-9.04-61.65C21.96,25.4,45.56,8.82,71.61,8.62c28.22-.22,53.86,19.04,61.52,46.11,5.92,20.93.22,38.68-10.76,56.51Z"/>
      <path class="cls-2" d="M68.17,34.17c-27.12,2.62-42.76,32.78-29.46,56.68,14.39,25.86,51.98,25.99,66.57.25,15.32-27.04-6.39-59.89-37.11-56.93ZM96.6,88.9c-11.79,17.22-37.29,17.24-49.09,0-13.23-19.33.78-46.01,24.1-46.37,23.71-.36,38.48,26.68,24.99,46.37Z"/>
    </g>
  </g>
</svg>