<?xml version="1.0" encoding="UTF-8"?>
<svg id="Layer_2" xmlns="http://www.w3.org/2000/svg" viewBox="0 0 157.12 157.32">
  <g id="Layer_1-2" data-name="Layer_1">
    <g>
      <path d="M128.93,78.62c.09,27.71-22.5,50.34-50.31,50.4-27.75.06-50.3-22.45-50.4-50.31-.1-27.7,22.5-50.33,50.31-50.39,27.75-.06,50.31,22.46,50.4,50.31ZM124,78.65c-.04-25.12-20.43-45.47-45.48-45.41-25.06.06-45.32,20.31-45.37,45.36-.05,25.06,20.3,45.46,45.4,45.49,25.06.03,45.5-20.4,45.45-45.44Z"/>
      <path d="M136.36,131.94c3.02-.23,5.72-.45,8.42-.62,1.86-.12,2.98.72,3.1,2.2.11,1.46-.93,2.54-2.73,2.69-4.91.41-9.82.8-14.73,1.18-1.85.14-3.03-.88-2.91-2.7.35-5.12.77-10.23,1.22-15.35.14-1.58,1.3-2.52,2.66-2.36,1.44.16,2.31,1.35,2.19,3-.19,2.59-.4,5.17-.64,8.23,2.64-2.73,4.63-5.37,6.49-8.1,16.92-24.94,17.05-57.18.37-82.33-1.48-2.23-1.48-3.59,0-4.53,1.41-.9,2.66-.37,4.07,1.76,9.51,14.31,13.96,30.08,13.17,47.2-.85,18.31-7.38,34.44-19.45,48.28-.33.38-.65.78-1.22,1.45Z"/>
      <path d="M29.49,133.08c8.66,8.21,18.66,13.81,30.05,16.7,21.56,5.47,41.69,2.1,60.3-10.15.78-.51,1.54-1.07,2.55-.84,1.04.24,1.73.9,1.94,1.96.23,1.15-.3,1.98-1.21,2.62-3.76,2.61-7.68,4.98-11.89,6.74-29.81,12.46-57.49,8.77-82.97-11.12-.92-.72-1.78-1.53-2.94-2.55.14,2,.26,3.69.38,5.38.08,1.13.21,2.25.24,3.38.05,1.61-.84,2.68-2.23,2.78-1.37.1-2.48-.84-2.64-2.43-.28-2.7-.46-5.42-.68-8.13-.18-2.25-.35-4.5-.53-6.75-.16-2.04.84-3.19,2.85-3.05,5.02.35,10.03.76,15.04,1.2,1.7.15,2.67,1.28,2.51,2.69-.17,1.43-1.35,2.3-3.01,2.18-2.59-.19-5.17-.4-7.75-.6Z"/>
      <path d="M127.63,24.26c-5.16-5.14-10.95-9.19-17.45-12.08C85,.98,60.74,2.76,37.47,17.59c-.26.17-.51.35-.77.5-1.38.81-2.73.57-3.52-.61-.79-1.18-.51-2.55.81-3.47,3.32-2.33,6.78-4.48,10.49-6.11,30.3-13.3,58.53-9.82,84.61,10.62.87.68,1.68,1.45,2.75,2.37-.23-3.11-.47-5.9-.63-8.69-.1-1.69.87-2.79,2.32-2.84,1.33-.04,2.39.85,2.53,2.38.46,5.11.87,10.23,1.23,15.35.12,1.66-.99,2.77-2.67,2.65-5.17-.36-10.34-.78-15.5-1.24-1.46-.13-2.39-1.31-2.26-2.61.13-1.38,1.28-2.34,2.82-2.24,2.65.18,5.3.41,7.95.62Z"/>
      <path d="M24.17,29.6c-4.98,4.96-8.92,10.53-11.75,16.76C.86,71.72,2.49,96.22,17.5,119.77c.19.3.41.59.58.9.72,1.31.44,2.63-.7,3.39-1.13.76-2.49.53-3.38-.7-1.75-2.41-3.27-4.97-4.68-7.59C-6.17,87.09-2.06,51.34,19.53,26.87c.36-.41.85-.74.99-1.44-2.95.21-5.84.46-8.74.61-1.39.07-2.44-.9-2.51-2.18-.08-1.36.61-2.23,1.92-2.6.25-.07.5-.11.76-.13,4.96-.4,9.92-.81,14.89-1.18,1.76-.13,2.92.92,2.8,2.67-.35,5.17-.78,10.34-1.24,15.5-.13,1.45-1.33,2.39-2.61,2.26-1.38-.14-2.34-1.29-2.24-2.82.18-2.65.41-5.3.62-7.94Z"/>
      <path d="M88.62,75.47c6.16,2.4,10.97,6.25,14.46,11.69,2.92,4.55,4.44,9.55,4.56,14.96.05,2.23-.78,3.11-3,3.12-17.35.01-34.7.01-52.04,0-2.32,0-3.19-.88-3.07-3.2.67-12.13,6.59-20.74,17.52-25.94.37-.18.75-.32,1.13-.49.08-.04.15-.12.32-.26-4.52-3.7-6.99-8.41-6.74-14.3.19-4.61,2.02-8.55,5.45-11.67,6.76-6.15,17.04-5.84,23.37.56,5.93,5.99,7.58,17.55-1.96,25.55ZM78.47,100.31c7.6,0,15.2-.02,22.8.02,1.07,0,1.39-.19,1.19-1.37-2.04-11.77-11.96-20.28-23.78-20.31-11.87-.03-21.82,8.36-23.95,20.11-.27,1.47.19,1.58,1.41,1.58,7.44-.04,14.89-.02,22.33-.02ZM78.57,73.7c6.54,0,11.97-5.45,11.94-11.99-.03-6.5-5.35-11.82-11.87-11.89-6.53-.07-11.99,5.34-12.02,11.9-.03,6.53,5.41,11.98,11.95,11.98Z"/>
    </g>
  </g>
</svg>