<?xml version="1.0" encoding="UTF-8"?>
<svg id="Layer_2" xmlns="http://www.w3.org/2000/svg" viewBox="0 0 155.95 155.85">
  <g id="Layer_1-2" data-name="Layer_1">
    <g>
      <path d="M51.71,137.15c-.46-1.38-1.34-2.15-2.15-2.95-9.04-9.05-18.14-18.05-27.12-27.16-6.94-7.04-4.1-18.45,5.2-21.04,4.62-1.29,8.76-.16,12.2,3.18,2.22,2.15,4.31,4.43,6.46,6.66.16-.08.32-.15.48-.23,0-.68,0-1.36,0-2.05,0-12.47-.04-24.94.02-37.41.03-7.26,5.94-12.83,13.08-12.5,1.9.09,3.64.8,5.57,1.57-.15-4.49,1.12-8.31,4.56-11.16,2.44-2.03,5.28-2.98,8.47-2.88,6.99.24,11.35,5.25,12.07,14.03,4.49-2.19,8.92-2.23,13.09.59,4.11,2.79,5.69,6.89,5.52,11.91,2.99-1.36,5.89-2.03,9.01-1.28,5.41,1.3,9.46,6,9.62,11.56.12,4.22.06,8.44.03,12.66-.02,2.14-1.28,3.49-3.11,3.49-1.83,0-3.08-1.36-3.1-3.5-.03-3.83,0-7.66-.02-11.49-.02-3.97-2.6-6.79-6.2-6.8-3.62-.02-6.25,2.78-6.26,6.74-.02,6.88-.02,13.77,0,20.65,0,1.39-.32,2.58-1.58,3.33-1.88,1.12-4.24,0-4.6-2.22-.1-.63-.06-1.3-.06-1.94,0-10.85.01-21.69-.01-32.54,0-3.44-2.35-6.1-5.54-6.46-3.07-.34-5.95,1.64-6.71,4.71-.2.8-.2,1.67-.2,2.51-.01,10.78-.01,21.56,0,32.34,0,1.06-.02,2.09-.78,2.93-.86.94-1.92,1.34-3.16.98-1.22-.36-2-1.2-2.23-2.46-.11-.63-.07-1.29-.07-1.94,0-15,0-30,0-45,0-2.65-1.11-4.65-3.45-5.87-2.14-1.12-4.28-.93-6.27.41-1.99,1.35-2.76,3.31-2.76,5.69.02,13.9.01,27.8.01,41.69,0,1.23,0,2.47,0,3.7-.02,2.46-1.16,3.89-3.09,3.91-1.94.02-3.13-1.42-3.13-3.86,0-10.78,0-21.56-.01-32.34,0-.84.02-1.71-.16-2.52-.69-3.13-3.66-5.24-6.79-4.87-3.14.37-5.49,2.96-5.5,6.29-.04,9.48-.01,18.96-.02,28.44,0,6.04-.01,12.08,0,18.12,0,1.6-.3,2.99-1.92,3.71-1.66.74-2.85-.07-3.97-1.19-3.76-3.77-7.52-7.55-11.3-11.29-2.85-2.82-6.62-2.99-9.19-.46-2.59,2.55-2.43,6.48.43,9.35,8.85,8.87,17.67,17.78,26.61,26.57,3.84,3.78,5.71,8.18,5.59,13.58-.14,6.5.06,6.59,6.62,6.59,15,0,30,0,45,0,3.49,0,4.66-.95,4.41-4.32-.68-9.27,2.39-17.93,4.11-26.82.75-3.88,1.99-7.66,2.21-11.64.1-1.83,1.54-2.96,3.29-2.85,1.71.1,2.88,1.36,2.88,3.28,0,4-1.29,7.79-2.1,11.66-1.14,5.46-2.39,10.89-3.66,16.32-.36,1.54-.05,2,1.61,1.88,14.32-1.07,25.77-13.14,25.98-27.5.03-2.27-.04-4.55.04-6.82.07-1.76,1.33-2.97,2.95-3.04,1.61-.07,3.12,1.1,3.2,2.78.34,7.58.08,15.09-3.64,21.99-6.23,11.55-15.9,17.84-28.98,18.78-1.43.1-1.64.57-1.64,1.83-.01,7.19-3.6,10.71-10.82,10.71-15.78,0-31.56,0-47.34,0-6.62,0-10.43-3.75-10.35-10.38.02-1.7-.37-2.17-2.12-2.14-5.71.12-11.43.09-17.14.03C15.4,143.16.21,128.05.05,109.68c-.11-12.4-.01-24.81-.04-37.21,0-1.82.52-3.22,2.36-3.78,2.02-.61,3.86.98,3.87,3.39.04,5.52.01,11.04.01,16.56,0,6.75-.02,13.51,0,20.26.06,15.78,12.41,28.16,28.18,28.24,5.69.03,11.38,0,17.26,0Z"/>
      <path d="M97.14,24.92c-8.18,0-16.36,0-24.54,0-9.42.01-15.77,5.94-16.46,15.35-.15,2.03-1.33,3.31-3.08,3.34-1.7.02-2.95-1.2-3.15-3.07-1.22-11.66-9.57-17.58-21.23-15.05-12.96,2.81-21.96,13.59-22.42,26.85-.08,2.39-1.34,3.83-3.27,3.74-1.87-.09-2.96-1.51-2.96-3.84.01-16.3,13.27-31.26,29.44-33.18,2.51-.3,5.07-.26,7.55-.69,7.28-1.26,12.45-7.2,12.86-14.57.01-.19,0-.39.02-.58.16-1.99,1.43-3.27,3.19-3.22,1.68.04,2.94,1.28,3.02,3.18.09,2.17.44,4.28,1.38,6.23,2.94,6.07,7.82,9.24,14.56,9.26,16.36.06,32.73,0,49.09.03,17.04.03,30.89,11.42,34.17,28.08.4,2.04.59,4.11.58,6.19-.01,10.06,0,20.13,0,30.19,0,.32.01.65-.01.97-.15,1.85-1.4,3.11-3.1,3.12-1.7,0-2.98-1.25-3.11-3.09-.05-.78-.02-1.56-.02-2.34,0-9.29,0-18.57,0-27.86,0-16.91-12.17-29.04-29.14-29.04-7.79,0-15.58,0-23.38,0ZM60.16,21.68c-.11-.1-.24-.25-.39-.35-2.5-1.68-4.59-3.77-6.27-6.28-.55-.82-.83-.2-1.1.2-1.58,2.33-3.52,4.3-5.86,5.86-.74.5-.83.84-.02,1.37,2.35,1.54,4.29,3.52,5.86,5.86.4.6.72.88,1.24.08,1.58-2.41,3.59-4.4,5.98-6.02.25-.17.61-.28.57-.74Z"/>
      <path d="M21.92,40.53c1.81.05,2.94,1.35,3.05,3.57.23,4.66,2.09,8.53,5.66,11.52,2.67,2.24,5.79,3.39,9.27,3.58,2.39.13,3.71,1.21,3.75,3.07.04,1.92-1.32,3.07-3.81,3.21-8.15.45-14.41,6.75-14.86,14.96-.13,2.36-1.25,3.69-3.11,3.71-1.87.01-3.02-1.32-3.15-3.67-.47-8.33-6.68-14.53-15.02-15.01-2.34-.13-3.67-1.28-3.66-3.16.02-1.87,1.34-2.97,3.71-3.1,8.29-.47,14.48-6.7,14.96-15.07.13-2.31,1.33-3.66,3.21-3.61ZM21.88,55.03c-.24.27-.43.43-.56.62-1.62,2.39-3.61,4.42-6.01,6.03-.68.46-.7.81,0,1.27,2.34,1.58,4.33,3.52,5.88,5.89.54.82.87.71,1.36-.04,1.52-2.3,3.44-4.23,5.74-5.75.86-.57.88-.9,0-1.47-2.3-1.51-4.2-3.46-5.76-5.74-.17-.25-.38-.48-.65-.83Z"/>
      <path d="M133.98,71.7c1.87-.05,3.08,1.3,3.21,3.6.4,6.94,4.62,12.4,11.13,14.41,1.37.42,2.77.62,4.21.69,2.04.1,3.31,1.32,3.33,3.07.02,1.76-1.25,2.99-3.26,3.15-9.17.74-14.71,6.27-15.42,15.4-.16,2.02-1.37,3.29-3.13,3.28-1.76,0-2.95-1.29-3.11-3.31-.69-9.1-6.22-14.61-15.45-15.38-2-.17-3.27-1.42-3.23-3.18.04-1.69,1.27-3.01,3.16-3.03,8.44-.09,15.41-6.91,15.55-15.53.03-1.9,1.33-3.14,3.01-3.19ZM134.26,86.39c-.44-.07-.56.19-.7.4-1.66,2.45-3.7,4.51-6.15,6.17-.9.61-.24.94.22,1.26,2.27,1.56,4.2,3.47,5.73,5.76.47.71.8.91,1.36.06,1.55-2.37,3.52-4.33,5.88-5.88.87-.57.62-.89-.07-1.35-2.3-1.53-4.2-3.46-5.77-5.73-.18-.26-.38-.5-.52-.69Z"/>
    </g>
  </g>
</svg>