<?xml version="1.0" encoding="UTF-8"?>
<svg id="Layer_2" xmlns="http://www.w3.org/2000/svg" viewBox="0 0 157.42 157.5">
  <g id="Layer_1-2" data-name="Layer_1">
    <g>
      <path d="M72.96,157.5c-4.02-.9-8.16-1.07-12.17-2.1-27.35-7.05-46.51-23.63-56.05-50.14C-10.41,63.15,11.99,18.11,54.42,3.95c43.5-14.52,91.01,12.49,101.07,57.46,9.69,43.3-17.88,85.78-61.41,94.58-3.17.64-6.38,1.02-9.58,1.52h-11.54ZM78.84,151.16c40.05-.18,72.37-32.66,72.23-72.58-.14-39.93-32.54-72.16-72.44-72.07C38.58,6.6,6.27,39.04,6.39,79.02c.13,39.85,32.72,72.32,72.44,72.14Z"/>
      <path d="M78.79,13.36c36.16.06,65.46,29.49,65.31,65.6-.15,36.17-29.35,65.28-65.43,65.23-36.19-.04-65.46-29.44-65.31-65.57.15-36.14,29.41-65.32,65.43-65.26ZM78.7,19.8c-32.71.02-59.04,26.41-59.01,59.14.03,32.48,26.57,58.98,59.06,58.95,32.52-.03,59-26.5,59.01-59,.01-32.72-26.36-59.1-59.07-59.09Z"/>
      <path d="M42.34,86.26c0-7.32-.07-14.64.02-21.97.08-6.66,4.71-10.96,10.87-10.28,2.83.31,5.14,1.65,6.5,4.1,1,1.8,2.45,1.19,3.83,1.33,1.4.14,1.67-.91,2.07-1.87,2.56-6.13,5.1-12.27,7.71-18.38,3.2-7.49,11.39-9.02,17.17-3.34,4.62,4.53,5.17,9.89,3.56,15.76-.56,2.06-1.21,4.11-1.92,6.13-.45,1.29-.12,1.65,1.23,1.63,4.88-.06,9.76-.05,14.64-.02,8.94.05,14.24,6.48,12.49,15.24-1.89,9.41-3.85,18.81-5.78,28.22-1.42,6.93-5.83,10.58-12.94,10.59-13.02.03-26.03.03-39.05-.02-1.56,0-2.5.38-3.39,1.77-2.28,3.56-6.18,4.9-10.03,3.76-4.07-1.2-6.88-4.98-6.94-9.79-.1-7.62-.03-15.24-.03-22.85h0ZM82.95,106.98c6.43,0,12.87.02,19.3,0,3.6-.02,5.49-1.57,6.21-5.06,1.96-9.47,3.9-18.95,5.81-28.43,1.01-5.03-1.31-7.81-6.46-7.82-6.58-.02-13.16,0-19.74,0-3.47,0-4.67-1.71-3.6-4.99,1.14-3.51,2.36-7,3.34-10.55.87-3.15.93-6.29-1.25-9.08-2.6-3.33-5.85-2.96-7.49.91-2.5,5.91-5.13,11.78-7.39,17.79-1.53,4.08-4.15,6.15-8.46,6.05-1.38-.03-1.91.36-1.9,1.87.08,12.49.08,24.99.05,37.49,0,1.43.37,1.89,1.84,1.88,6.58-.07,13.16-.03,19.74-.03ZM55.07,86.26h-.08c0-3.62,0-7.25,0-10.87,0-3.92-.02-7.84-.04-11.75,0-1.89-.89-3.15-2.82-3.33-2.02-.18-2.93,1.11-3.24,2.91-.15.87-.21,1.76-.21,2.64-.01,13.75-.01,27.5,0,41.25,0,.74,0,1.48.11,2.21.33,2.34,1.57,3.72,3.18,3.6,1.63-.12,2.98-1.88,3.1-4.04.03-.52,0-1.03,0-1.55,0-7.02,0-14.05,0-21.07Z"/>
    </g>
  </g>
</svg>