<?xml version="1.0" encoding="UTF-8"?>
<svg xmlns="http://www.w3.org/2000/svg" viewBox="0 0 102.52 146.25">
  <defs>
    <style>
      .cls-1 {
        fill: none;
      }

      .cls-2 {
        fill: #fff;
      }

      .cls-2, .cls-3, .cls-4 {
        fill-rule: evenodd;
      }

      .cls-5, .cls-3 {
        fill: #faed10;
      }

      .cls-6, .cls-4 {
        fill: #007236;
      }

      .cls-7 {
        fill: #231f20;
      }

      .cls-8 {
        isolation: isolate;
      }

      .cls-9 {
        mix-blend-mode: multiply;
      }

      .cls-10 {
        fill: #00481a;
      }
    </style>
  </defs>
  <g class="cls-8">
    <g id="Layer_2" data-name="Layer 2">
      <g id="Layer_1-2" data-name="Layer 1">
        <g>
          <path class="cls-10" d="M38.58,145.46l9.91-6.14c1.7-1.05,3.85-1.05,5.55,0l9.9,6.14c3.51,2.17,8.04-.35,8.04-4.48v-55.31c0-2.91-2.36-5.27-5.27-5.27h-30.91c-2.91,0-5.27,2.36-5.27,5.27v55.31c0,4.13,4.53,6.65,8.04,4.48Z"/>
          <path class="cls-10" d="M63.65.83l-9.52,5.9c-1.76,1.09-3.99,1.09-5.75,0L38.87.83c-3.64-2.25-8.33.36-8.33,4.64v54.78c0,3.01,2.44,5.46,5.46,5.46h30.53c3.01,0,5.46-2.44,5.46-5.46V5.47c0-4.28-4.69-6.89-8.33-4.64Z"/>
          <g>
            <path class="cls-3" d="M50.58,131.5c-.41-.1-10.26-2.56-21.18-8.44-14.74-7.93-24.3-18.34-27.64-30.11-3.76-13.24-.72-23.03,1.96-31.67,2.97-9.56,5.31-17.11-2.09-27.25l-1.37-1.87L15.36,15.66l1.84.77c.06.03,6.64,2.69,15.69,2.69,6.09,0,11.88-4.02,17.23-6.36l1.14-.5,1.13.5c5.35,2.34,11.14,6.36,17.23,6.36,9.12,0,15.63-2.67,15.7-2.69l1.84-.77,15.1,16.5-1.37,1.87c-7.4,10.15-5.06,17.7-2.09,27.25,2.68,8.64,5.72,18.43,1.96,31.67-3.34,11.77-12.9,22.18-27.64,30.11-10.93,5.88-20.77,8.34-21.18,8.44l-.68.17-.68-.17Z"/>
            <g class="cls-9">
              <path class="cls-6" d="M51.26,129.95l-.1-.02c-.4-.1-10.03-2.48-20.92-8.35-14.36-7.73-23.65-17.78-26.86-29.07-3.62-12.73-.78-21.89,1.97-30.74,3.09-9.95,5.76-18.54-2.48-29.84l-.2-.28,12.81-14,.28.12c.07.03,7.09,2.92,16.87,2.92,4.88,0,9.59-2.33,14.14-4.59,1.5-.74,2.92-1.45,4.34-2.07l.17-.07.17.07c1.42.62,2.84,1.33,4.34,2.07,4.55,2.26,9.26,4.59,14.13,4.59,9.69,0,16.59-2.8,16.87-2.92l.27-.11,12.81,14-.2.28c-8.24,11.29-5.58,19.88-2.49,29.83,2.75,8.86,5.6,18.02,1.98,30.75-3.21,11.29-12.5,21.34-26.86,29.07-10.86,5.84-20.52,8.25-20.92,8.35l-.1.02ZM3.76,31.72c8.25,11.5,5.54,20.22,2.4,30.31-2.71,8.74-5.52,17.77-1.97,30.26,3.14,11.06,12.29,20.94,26.44,28.55,10.34,5.56,19.51,7.96,20.62,8.24,1.12-.28,10.32-2.7,20.62-8.24,14.16-7.62,23.3-17.49,26.44-28.55,3.55-12.49.74-21.52-1.97-30.25-3.13-10.09-5.84-18.81,2.41-30.31l-11.94-13.05c-1.43.55-8.03,2.88-16.92,2.88-5.07,0-9.87-2.38-14.51-4.68-1.43-.71-2.79-1.38-4.13-1.98-1.35.6-2.7,1.27-4.13,1.98-4.64,2.3-9.44,4.68-14.51,4.68-8.81,0-15.49-2.34-16.92-2.88L3.76,31.72Z"/>
            </g>
            <path class="cls-4" d="M51.26,124.16c-2.67-.75-10.2-3.06-18.5-7.53-13.01-7-21.38-15.92-24.18-25.8-3.19-11.21-.71-19.18,1.91-27.62,2.89-9.32,5.88-18.93-1.19-30.61l8.07-8.82c3.19.96,8.75,2.25,15.52,2.25s12.6-3.98,18.37-6.25c5.76,2.26,11.93,6.25,18.37,6.25,6.86,0,12.37-1.28,15.53-2.23l8.06,8.81c-7.06,11.68-4.08,21.29-1.19,30.61,2.62,8.45,5.1,16.42,1.91,27.63-2.81,9.88-11.17,18.8-24.18,25.8-8.3,4.46-15.83,6.78-18.5,7.53Z"/>
            <path class="cls-2" d="M51.26,121.17c-3.16-.93-9.83-3.13-17.16-7.08-12.32-6.63-20.2-14.96-22.8-24.08-2.96-10.4-.71-17.63,1.89-26.01,2.79-8.98,5.93-19.1-.41-31.06l5.5-6.01c3.6.94,8.66,1.88,14.6,1.88,6.4,0,12.57-3.91,18.37-6.05,5.79,2.13,11.97,6.05,18.37,6.05,6.02,0,11.06-.93,14.62-1.87l5.49,6c-6.34,11.96-3.2,22.08-.41,31.05,2.6,8.38,4.85,15.62,1.89,26.01-2.59,9.12-10.48,17.45-22.8,24.08-7.33,3.94-14,6.15-17.16,7.08Z"/>
          </g>
        </g>
        <g>
          <g>
            <path class="cls-6" d="M66.1,71.55h.35c.12,0,.24,0,.36,0,.16,0,.32,0,.48,0,.97.02,1.8.54,2.24,1.32-.02-.16-.03-.32-.03-.48v-2.01c0-2.97,0-5.94,0-8.91-.98.31-1.94.6-2.9.89,0,1.01,0,2,0,3,0,1.23,0,2.46,0,3.69.01,1.08-.41,1.93-1.19,2.44,0,.02.02.03.02.05.15.01.41.01.65.01Z"/>
            <path class="cls-6" d="M34.62,85.99c.12-.43.33-.84.68-1.21.45-.48.88-.92,1.32-1.33-.04-.14-.08-.18-.08-.19,0,0-.11-.04-.4,0-.42.06-.83.05-1.19.03h-.3c-1.42-.04-2.55-1.18-2.55-2.6,0-2.19,0-4.38,0-6.56,0-1.46,1.12-2.58,2.6-2.6.63,0,1.22-.02,1.81,0,0-.02.01-.03.02-.05-.06-.04-.12-.08-.18-.13-.67-.58-1.01-1.31-1-2.18,0-1,0-2,0-2.99,0-1.28,0-2.56,0-3.85-1.58-.47-3.13-.95-4.67-1.42l-1.44-.44c-1.25-.39-2.01-1.34-2.02-2.54,0-1.24.75-2.21,2.03-2.6l3.66-1.13c5.69-1.75,11.37-3.5,17.06-5.26.69-.21,1.35-.21,2.03,0l20.66,6.37c1.45.45,2.09,1.33,2.09,2.85v14.23c0,1.59-1.09,2.76-2.6,2.77-.68-.02-1.37-.25-1.85-.73-.18-.18-.33-.38-.45-.61.01.09.02.19.02.29.01,2.21.01,4.41,0,6.62,0,1.42-1.14,2.54-2.58,2.56-.61,0-1.22.01-1.83,0-.03.07-.05.13-.07.19.09.1.22.23.35.36l.27.27c.24.23.47.46.69.71.32.35.52.74.63,1.14,11.25-2.84,20.71-8.51,26.81-15.85-.58-2.3-1.28-4.56-1.99-6.85-2.89-9.32-5.88-18.92,1.19-30.61l-8.06-8.81c-3.17.96-8.68,2.23-15.53,2.23-6.43,0-12.6-3.98-18.37-6.25-5.77,2.26-11.94,6.25-18.37,6.25-6.77,0-12.33-1.29-15.52-2.25l-8.07,8.82c7.06,11.68,4.08,21.29,1.19,30.61-.8,2.57-1.58,5.1-2.2,7.69,6.13,6.96,15.34,12.33,26.22,15.04Z"/>
          </g>
          <g>
            <path class="cls-1" d="M52.38,62.3c2.85-.94,5.73-1.79,8.6-2.67,0-.03,0-.06,0-.09h-.56c-3.08,0-6.16,0-9.24,0-.24,0-.47.01-.7-.07-.78-.27-1.24-1.02-1.12-1.83.11-.76.8-1.35,1.61-1.35,3.17,0,6.33,0,9.5,0h.52c-.06-.1-.12-.12-.18-.14-3.19-.98-6.39-1.97-9.58-2.96-.22-.07-.39-.02-.59.04-4.87,1.5-9.74,2.99-14.61,4.49-.14.04-.34.02-.41.24.16.05.3.11.44.15,4.52,1.39,9.04,2.75,13.54,4.19.96.31,1.82.31,2.78,0Z"/>
            <path class="cls-1" d="M50.17,65.88c-3.38-1.05-6.78-2.08-10.16-3.13-.36-.11-.43-.04-.43.32.01,1.56.02,3.11,0,4.67,0,.32.09.46.4.57,3.54,1.31,7.08,2.64,10.62,3.98.25.1.47.11.73.01,3.54-1.34,7.08-2.67,10.62-3.98.33-.12.43-.28.42-.62-.03-.74,0-1.49,0-2.23s-.02-1.56,0-2.34c.02-.45-.11-.49-.51-.36-3.35,1.05-6.71,2.06-10.06,3.11-.56.17-1.07.18-1.63,0Z"/>
            <path class="cls-1" d="M61.95,74.46c-.2-.65-.44-1.27-.72-1.89-.14-.32-.27-.4-.64-.26-2.93,1.12-5.88,2.2-8.82,3.31-.55.21-1.07.2-1.62,0-2.92-1.11-5.85-2.19-8.77-3.3-.38-.14-.53-.06-.67.28-.27.62-.52,1.25-.71,1.89-.27.91-.81,1.31-1.74,1.31-.52,0-1.05.01-1.57,0-.27,0-.35.08-.35.34.01.86.02,1.73,0,2.59,0,.28.11.34.36.33.54-.01,1.08,0,1.63,0,.82,0,1.41.4,1.64,1.18.31,1.04.72,2.03,1.24,2.99.4.73.27,1.4-.3,2-.39.4-.78.8-1.19,1.18-.17.16-.2.26-.01.44.63.61,1.26,1.23,1.87,1.87.17.18.27.17.44,0,.35-.37.71-.72,1.07-1.08.74-.73,1.36-.83,2.29-.32.76.41,1.54.77,2.37,1.01,1.29.37,1.62.8,1.62,2.13,0,.52-.18,1.22.09,1.52.3.35,1.02.06,1.46.11.5,0,.9-.02,1.31,0,.3.02.42-.06.41-.39-.03-.52,0-1.05,0-1.57,0-.87.42-1.45,1.25-1.69,1-.28,1.94-.68,2.85-1.18.8-.44,1.46-.32,2.12.32.39.38.77.76,1.15,1.15.15.16.24.17.4,0,.63-.64,1.26-1.28,1.9-1.9.16-.16.15-.25,0-.4-.43-.41-.85-.83-1.26-1.26-.52-.55-.64-1.2-.28-1.87.53-1,.96-2.04,1.3-3.13.22-.73.81-1.1,1.58-1.11.54,0,1.08-.01,1.63,0,.27,0,.4-.04.39-.35-.02-.86-.01-1.73,0-2.59,0-.24-.07-.33-.32-.32-.52.01-1.05,0-1.57,0-.97,0-1.49-.39-1.78-1.33ZM52.3,85.45c-.45.06-.91.12-1.27.1-4.53,0-8.21-3.67-8.19-8.06,0-.97.67-1.68,1.57-1.7.95-.02,1.63.65,1.68,1.65.11,2.63,1.91,4.56,4.51,4.84,2.38.25,4.8-1.62,5.15-4,.05-.32.08-.64.1-.96.06-.88.76-1.53,1.64-1.53.88,0,1.58.69,1.61,1.56.13,3.87-2.97,7.56-6.8,8.09Z"/>
            <path class="cls-6" d="M73.74,58.17c0-1.08-.35-1.57-1.39-1.89-6.89-2.13-13.77-4.25-20.66-6.37-.49-.15-.95-.15-1.44,0-6.9,2.13-13.81,4.26-20.72,6.38-.87.27-1.33.84-1.32,1.64,0,.77.47,1.34,1.31,1.6,2.11.65,4.23,1.3,6.35,1.94.37.11.49.28.48.67-.02,2.35,0,4.71-.01,7.06,0,.59.22,1.04.66,1.42.24.21.74.15.75.49.02.3-.23.62-.37.93-.02.05-.04.1-.05.14-.07.29-.24.4-.55.39-.69-.03-1.39-.02-2.08,0-.92.01-1.61.69-1.61,1.6,0,2.18,0,4.37,0,6.55,0,.89.69,1.57,1.58,1.59.44.01.89.06,1.32,0,.88-.13,1.43.13,1.63,1.06.06.27.11.44-.12.65-.51.47-1,.97-1.47,1.47-.65.69-.68,1.61-.02,2.28,1.53,1.56,3.07,3.11,4.63,4.64.66.64,1.55.64,2.24.03.34-.3.65-.64.98-.96.82-.81.81-.81,1.89-.38.25.1.37.23.36.52-.02.71-.02,1.42,0,2.13.02.88.7,1.58,1.58,1.58,2.18.01,4.37,0,6.55,0,.92,0,1.59-.69,1.61-1.61,0-.42,0-.85,0-1.27,0-1.21,0-1.21,1.12-1.67.22-.09.36-.08.53.1.49.51.99,1.02,1.51,1.51.69.66,1.61.7,2.28.04,1.58-1.54,3.13-3.09,4.67-4.67.65-.66.61-1.55-.02-2.24-.29-.33-.62-.63-.93-.94-.83-.83-.82-.83-.37-1.93.1-.25.23-.33.48-.32.71.02,1.42.01,2.13,0,.89-.01,1.59-.69,1.6-1.57.01-2.2.01-4.4,0-6.61,0-.88-.7-1.56-1.59-1.58-.39,0-.78,0-1.17,0-1.32,0-1.31,0-1.83-1.2-.11-.25-.14-.38.17-.49.84-.3,1.18-.92,1.18-1.8-.02-2.34,0-4.67-.02-7.01,0-.34.11-.47.42-.56,1.33-.39,2.65-.8,3.97-1.22.41-.13.52-.09.52.39-.02,3.91-.01,7.82-.01,11.74,0,1.07.67,1.79,1.64,1.78.95,0,1.6-.73,1.6-1.77,0-2.39,0-4.78,0-7.16,0-2.35,0-4.71,0-7.06ZM62.37,63.13c-.03.78,0,1.56,0,2.34s-.02,1.49,0,2.23c.01.34-.09.49-.42.62-3.55,1.31-7.09,2.65-10.62,3.98-.26.1-.47.08-.73-.01-3.54-1.34-7.07-2.67-10.62-3.98-.31-.11-.41-.25-.4-.57.02-1.56.02-3.11,0-4.67,0-.36.07-.43.43-.32,3.38,1.05,6.78,2.08,10.16,3.13.56.17,1.08.17,1.63,0,3.35-1.04,6.71-2.06,10.06-3.11.4-.12.53-.09.51.36ZM36.06,58.12c-.14-.04-.29-.1-.44-.15.07-.22.27-.2.41-.24,4.87-1.5,9.74-3,14.61-4.49.19-.06.37-.11.59-.04,3.19.99,6.39,1.97,9.58,2.96.06.02.12.04.18.14h-.52c-3.17,0-6.33,0-9.5,0-.81,0-1.49.59-1.61,1.35-.12.81.34,1.56,1.12,1.83.23.08.47.07.7.07,3.08,0,6.16,0,9.24,0h.56s0,.06,0,.09c-2.87.88-5.75,1.74-8.6,2.67-.96.32-1.81.31-2.78,0-4.5-1.43-9.03-2.8-13.54-4.19ZM65.3,75.79c.25,0,.32.08.32.32-.01.86-.02,1.73,0,2.59,0,.31-.12.36-.39.35-.54-.02-1.08,0-1.63,0-.77,0-1.36.38-1.58,1.11-.33,1.09-.76,2.13-1.3,3.13-.35.67-.24,1.32.28,1.87.41.43.83.85,1.26,1.26.15.15.17.24,0,.4-.64.63-1.28,1.26-1.9,1.9-.16.16-.25.15-.4,0-.37-.39-.76-.77-1.15-1.15-.66-.65-1.32-.76-2.12-.32-.91.5-1.85.89-2.85,1.18-.84.24-1.25.82-1.25,1.69,0,.52-.02,1.05,0,1.57.02.33-.1.41-.41.39-.41-.02-.81,0-1.31,0-.44-.05-1.16.24-1.46-.11-.26-.3-.08-1-.09-1.52,0-1.33-.33-1.76-1.62-2.13-.83-.24-1.62-.59-2.37-1.01-.93-.51-1.54-.41-2.29.32-.36.36-.73.71-1.07,1.08-.16.18-.27.18-.44,0-.61-.63-1.23-1.26-1.87-1.87-.19-.18-.15-.28.01-.44.4-.38.8-.78,1.19-1.18.58-.6.7-1.27.3-2-.52-.95-.93-1.95-1.24-2.99-.23-.78-.82-1.17-1.64-1.18-.54,0-1.08-.01-1.63,0-.25,0-.37-.05-.36-.33.02-.86.02-1.73,0-2.59,0-.27.08-.35.35-.34.52.02,1.05,0,1.57,0,.94,0,1.47-.4,1.74-1.31.2-.65.44-1.27.71-1.89.15-.34.3-.42.67-.28,2.92,1.11,5.85,2.19,8.77,3.3.55.21,1.07.22,1.62,0,2.94-1.11,5.88-2.19,8.82-3.31.36-.14.5-.05.64.26.28.62.52,1.24.72,1.89.29.94.81,1.33,1.78,1.33.52,0,1.05.01,1.57,0Z"/>
            <path class="cls-5" d="M57.5,75.8c-.89,0-1.58.65-1.64,1.53-.02.32-.05.64-.1.96-.36,2.38-2.78,4.25-5.15,4-2.6-.28-4.4-2.21-4.51-4.84-.04-.99-.73-1.67-1.68-1.65-.91.02-1.57.73-1.57,1.7-.03,4.39,3.65,8.05,8.19,8.06.37.02.82-.04,1.27-.1,3.83-.53,6.93-4.22,6.8-8.09-.03-.87-.73-1.56-1.61-1.56Z"/>
          </g>
        </g>
        <g>
          <path class="cls-7" d="M38.88,102.05l-1.1-.54-1.93,3.92.88.43c.23.12.38.24.44.38s.04.31-.06.52c-.1.21-.23.33-.37.37-.15.04-.34,0-.57-.11l-3.12-1.54c-.23-.11-.38-.24-.43-.38-.06-.14-.03-.32.07-.52s.22-.33.37-.37c.14-.04.33,0,.57.11l.88.43,1.93-3.92-1.1-.54-.56,1.05-.06.13c-.08.17-.19.28-.33.33s-.29.03-.46-.05c-.2-.1-.32-.22-.36-.36s-.01-.33.09-.54l.02-.04.83-1.54c.16-.31.3-.47.41-.5.11-.03.28.02.51.13l4.52,2.22c.23.11.37.22.41.32.04.1,0,.31-.14.63l-.72,1.6-.02.04c-.11.22-.23.36-.37.41-.14.06-.3.03-.5-.06-.19-.09-.3-.21-.34-.35-.04-.14,0-.33.12-.59l.49-1.08Z"/>
          <path class="cls-7" d="M42.58,103.31l.42,4.37,2.37-3.71-.15-.04c-.25-.06-.42-.15-.5-.27-.08-.12-.1-.3-.05-.52.05-.22.15-.37.28-.45.13-.07.33-.08.58-.02l1.44.34c.26.06.43.15.51.28.08.12.1.3.05.52-.05.2-.14.34-.27.43-.13.08-.3.1-.5.05l-.09-.02-2.91,4.54c-.15.24-.28.37-.37.41-.1.04-.25.03-.46-.02l-.7-.17c-.33-.08-.52-.31-.57-.69v-.04s-.61-5.36-.61-5.36l-.1-.02c-.19-.04-.33-.13-.4-.26-.08-.13-.09-.3-.04-.5.05-.23.14-.38.27-.45.13-.07.32-.08.57-.02l1.69.4c.25.06.41.15.5.28.09.13.1.3.05.52s-.14.37-.28.44c-.13.07-.32.08-.57.02l-.15-.04Z"/>
          <path class="cls-7" d="M52.67,104.44l-2.72-.04-.02,1.5,1.03.02v-.07c0-.22.06-.39.16-.5s.25-.16.45-.16c.18,0,.32.05.43.16s.16.23.16.38c0,0,0,.03,0,.08,0,.04,0,.09,0,.13l-.02,1.21c0,.26-.05.45-.15.56s-.25.17-.46.16c-.2,0-.35-.06-.45-.17s-.15-.26-.14-.47v-.11s-1.03-.02-1.03-.02l-.03,1.75,2.72.04v-.7c.02-.26.07-.45.17-.56s.27-.17.49-.16c.22,0,.38.06.47.17s.14.3.13.57l-.02,1.42c0,.21-.05.35-.13.42s-.25.1-.49.1l-4.8-.08c-.26,0-.44-.06-.55-.16-.11-.1-.16-.27-.16-.5,0-.21.06-.36.17-.47.11-.11.26-.16.46-.15h.1s.07-4.37.07-4.37h-.1c-.2,0-.35-.06-.46-.18-.11-.11-.16-.27-.15-.48,0-.23.06-.39.18-.49.11-.1.3-.15.55-.15l4.8.08c.24,0,.4.04.48.12s.12.22.12.43l-.02,1.31c0,.27-.06.46-.16.57-.1.11-.26.17-.48.16-.23,0-.39-.06-.49-.18-.1-.12-.14-.31-.14-.57v-.62Z"/>
          <path class="cls-7" d="M60.04,103.31l-1.2.26.93,4.27.96-.21c.26-.06.45-.05.58.03.13.08.22.22.27.45.05.22.03.4-.06.52-.09.12-.26.21-.52.27l-3.4.74c-.25.05-.44.04-.58-.03-.13-.08-.22-.23-.27-.45-.05-.23-.03-.4.06-.52s.26-.21.52-.26l.96-.21-.93-4.27-1.2.26.22,1.17.03.14c.04.18.02.34-.06.46-.08.12-.21.21-.39.25-.21.05-.38.03-.51-.06-.12-.09-.21-.25-.26-.48v-.05s-.32-1.72-.32-1.72c-.06-.34-.06-.56,0-.64s.23-.16.48-.21l4.92-1.07c.25-.05.43-.06.52,0,.1.05.19.25.28.58l.43,1.7v.05c.06.24.05.42-.02.55-.07.13-.22.21-.43.26-.21.04-.37.02-.48-.06s-.2-.26-.27-.54l-.29-1.16Z"/>
          <path class="cls-7" d="M65.73,99.77c0-.14.02-.24.07-.32.05-.07.14-.14.28-.21.21-.1.36-.12.45-.07s.2.18.31.41l.5,1.01.03.06c.1.21.12.37.08.5-.04.12-.17.23-.36.32-.25.12-.5.07-.75-.14-.04-.03-.07-.06-.09-.08-.21-.17-.44-.26-.68-.29-.24-.02-.49.02-.74.14-.32.15-.54.34-.67.58-.13.24-.14.47-.03.7.15.33.72.37,1.71.14.17-.04.3-.07.4-.1.75-.17,1.35-.17,1.79-.01.45.16.79.51,1.04,1.03.3.65.32,1.26.04,1.81-.28.56-.83,1.03-1.65,1.42-.32.15-.62.26-.89.34-.27.08-.55.13-.83.15-.01.12-.05.22-.1.29-.06.08-.15.14-.28.21-.22.11-.4.14-.53.09-.13-.04-.25-.17-.35-.39l-.61-1.24-.03-.06c-.11-.23-.14-.42-.1-.55.04-.13.17-.25.39-.35.23-.11.5-.03.81.23.07.06.13.11.17.15.27.21.55.32.86.34.31.02.64-.05,1-.22.33-.15.55-.34.66-.56s.12-.45,0-.7c-.18-.38-.72-.47-1.63-.28-.27.06-.49.1-.65.13-.77.14-1.35.14-1.74,0-.39-.15-.7-.46-.92-.92-.28-.6-.29-1.21-.01-1.8s.77-1.06,1.49-1.4c.24-.11.49-.2.74-.26s.52-.09.8-.1Z"/>
        </g>
      </g>
    </g>
  </g>
</svg>