<?xml version="1.0" encoding="UTF-8"?>
<svg xmlns="http://www.w3.org/2000/svg" viewBox="0 0 102.52 146.25">
  <defs>
    <style>
      .cls-1, .cls-2, .cls-3 {
        fill-rule: evenodd;
      }

      .cls-1, .cls-4 {
        fill: #fff;
      }

      .cls-5, .cls-3 {
        fill: #007236;
      }

      .cls-6 {
        fill: #231f20;
      }

      .cls-2 {
        fill: #faed10;
      }

      .cls-7 {
        isolation: isolate;
      }

      .cls-8 {
        mix-blend-mode: multiply;
      }

      .cls-9 {
        fill: #00481a;
      }
    </style>
  </defs>
  <g class="cls-7">
    <g id="Layer_2" data-name="Layer 2">
      <g id="Layer_1-2" data-name="Layer 1">
        <g>
          <path class="cls-9" d="M38.58,145.46l9.91-6.14c1.7-1.05,3.85-1.05,5.55,0l9.9,6.14c3.51,2.17,8.04-.35,8.04-4.48v-55.31c0-2.91-2.36-5.27-5.27-5.27h-30.91c-2.91,0-5.27,2.36-5.27,5.27v55.31c0,4.13,4.53,6.65,8.04,4.48Z"/>
          <path class="cls-9" d="M63.65.83l-9.52,5.9c-1.76,1.09-3.99,1.09-5.75,0L38.87.83c-3.64-2.25-8.33.36-8.33,4.64v54.78c0,3.01,2.44,5.46,5.46,5.46h30.53c3.01,0,5.46-2.44,5.46-5.46V5.47c0-4.28-4.69-6.89-8.33-4.64Z"/>
          <path class="cls-2" d="M50.58,131.5c-.41-.1-10.26-2.56-21.18-8.44-14.74-7.93-24.3-18.34-27.64-30.11-3.76-13.24-.72-23.03,1.96-31.67,2.97-9.56,5.31-17.11-2.09-27.25l-1.37-1.87L15.36,15.66l1.84.77c.06.03,6.64,2.69,15.69,2.69,6.09,0,11.88-4.02,17.23-6.36l1.14-.5,1.13.5c5.35,2.34,11.14,6.36,17.23,6.36,9.12,0,15.63-2.67,15.7-2.69l1.84-.77,15.1,16.5-1.37,1.87c-7.4,10.15-5.06,17.7-2.09,27.25,2.68,8.64,5.72,18.43,1.96,31.67-3.34,11.77-12.9,22.18-27.64,30.11-10.93,5.88-20.77,8.34-21.18,8.44l-.68.17-.68-.17Z"/>
          <g class="cls-8">
            <path class="cls-5" d="M51.26,129.95l-.1-.02c-.4-.1-10.03-2.48-20.92-8.35-14.36-7.73-23.65-17.78-26.86-29.07-3.62-12.73-.78-21.89,1.97-30.74,3.09-9.95,5.76-18.54-2.48-29.84l-.2-.28,12.81-14,.28.12c.07.03,7.09,2.92,16.87,2.92,4.88,0,9.59-2.33,14.14-4.59,1.5-.74,2.92-1.45,4.34-2.07l.17-.07.17.07c1.42.62,2.84,1.33,4.34,2.07,4.55,2.26,9.26,4.59,14.13,4.59,9.69,0,16.59-2.8,16.87-2.92l.27-.11,12.81,14-.2.28c-8.24,11.29-5.58,19.88-2.49,29.83,2.75,8.86,5.6,18.02,1.98,30.75-3.21,11.29-12.5,21.34-26.86,29.07-10.86,5.84-20.52,8.25-20.92,8.35l-.1.02ZM3.76,31.72c8.25,11.5,5.54,20.22,2.4,30.31-2.71,8.74-5.52,17.77-1.97,30.26,3.14,11.06,12.29,20.94,26.44,28.55,10.34,5.56,19.51,7.96,20.62,8.24,1.12-.28,10.32-2.7,20.62-8.24,14.16-7.62,23.3-17.49,26.44-28.55,3.55-12.49.74-21.52-1.97-30.25-3.13-10.09-5.84-18.81,2.41-30.31l-11.94-13.05c-1.43.55-8.03,2.88-16.92,2.88-5.07,0-9.87-2.38-14.51-4.68-1.43-.71-2.79-1.38-4.13-1.98-1.35.6-2.7,1.27-4.13,1.98-4.64,2.3-9.44,4.68-14.51,4.68-8.81,0-15.49-2.34-16.92-2.88L3.76,31.72Z"/>
          </g>
          <path class="cls-3" d="M51.26,124.16c-2.67-.75-10.2-3.06-18.5-7.53-13.01-7-21.38-15.92-24.18-25.8-3.19-11.21-.71-19.18,1.91-27.62,2.89-9.32,5.88-18.93-1.19-30.61l8.07-8.82c3.19.96,8.75,2.25,15.52,2.25s12.6-3.98,18.37-6.25c5.76,2.26,11.93,6.25,18.37,6.25,6.86,0,12.37-1.28,15.53-2.23l8.06,8.81c-7.06,11.68-4.08,21.29-1.19,30.61,2.62,8.45,5.1,16.42,1.91,27.63-2.81,9.88-11.17,18.8-24.18,25.8-8.3,4.46-15.83,6.78-18.5,7.53Z"/>
          <path class="cls-1" d="M51.26,121.17c-3.16-.93-9.83-3.13-17.16-7.08-12.32-6.63-20.2-14.96-22.8-24.08-2.96-10.4-.71-17.63,1.89-26.01,2.79-8.98,5.93-19.1-.41-31.06l5.5-6.01c3.6.94,8.66,1.88,14.6,1.88,6.4,0,12.57-3.91,18.37-6.05,5.79,2.13,11.97,6.05,18.37,6.05,6.02,0,11.06-.93,14.62-1.87l5.49,6c-6.34,11.96-3.2,22.08-.41,31.05,2.6,8.38,4.85,15.62,1.89,26.01-2.59,9.12-10.48,17.45-22.8,24.08-7.33,3.94-14,6.15-17.16,7.08Z"/>
          <path class="cls-5" d="M92.1,63.25c-2.89-9.32-5.88-18.92,1.19-30.61l-8.06-8.81c-3.17.96-8.68,2.23-15.53,2.23-6.43,0-12.6-3.98-18.37-6.25-5.77,2.26-11.94,6.25-18.37,6.25-6.77,0-12.33-1.29-15.52-2.25l-8.07,8.82c7.06,11.68,4.08,21.29,1.19,30.61-.61,1.97-1.21,3.92-1.74,5.88,6.89,7.64,15.83,13.39,25.94,16.41,5.17,1.54,10.64,2.38,16.3,2.38s10.98-.82,16.08-2.32c10.4-3.06,19.56-9.01,26.56-16.93-.5-1.81-1.03-3.62-1.6-5.44Z"/>
          <g>
            <path class="cls-4" d="M77.25,79.05c-1.14-1.06-2.53-1.3-4.02-.7-1.07.43-2.14.81-3.28,1.22-.07.02-.13.05-.2.07-.17-1.94-.4-3.78-.7-5.57.76-.24,1.51-.5,2.27-.75l2.32-.77c1.32-.44,2.65-.87,3.97-1.32,1.32-.45,2.08-1.47,2.08-2.8,0-1.31-.73-2.34-2.03-2.82-.2-.08-.41-.14-.62-.21l-6.7-2.21c-5.89-1.95-11.78-3.9-17.67-5.84-.94-.31-1.9-.31-2.85,0l-.71.23c-7.77,2.57-15.8,5.23-23.71,7.83-.88.29-1.96.79-2.5,2.09l-.08.19v1.35l.06.17c.38,1.06,1.16,1.76,2.38,2.15,2.05.65,4.13,1.35,6.14,2.02.69.23,1.38.46,2.07.69-.14.97-.42,3.47-.62,5.32-.08.7-.14,1.29-.18,1.59,0,.02,0,.04,0,.06v.06c-.15,1.73-.22,3.34-.2,4.91,0,.98.46,1.83,1.27,2.39.42.29.93.64,1.5.93-.13,1.49-.2,3.1-.19,4.94,0,1.32.69,2.21,1.95,2.51,1.68.4,3.39.41,5.09,0,1.26-.3,1.98-1.21,1.97-2.51,0-.62-.02-1.19-.04-1.73.44.1.89.18,1.35.26.27,1.71,1,3.14,2.19,4.25.8.74,1.68,1.12,2.62,1.12.48,0,.97-.1,1.47-.3.75-.3,1.53-.58,2.28-.84.35-.12.69-.25,1.04-.37l2.49-.9c1.99-.73,3.99-1.45,5.98-2.17.67-.24.8-.2,1.22.41.16.22.3.49.44.84.66,1.6,1.83,2.11,3.47,1.51l.76-.28c.78-.28,1.57-.57,2.35-.86,1.09-.4,1.52-1.07,1.69-1.57.17-.49.23-1.29-.39-2.28-.22-.35-.48-.67-.78-.97.32-.12.7-.26,1.1-.4,1.44-.53,3.41-1.25,3.83-1.39,1.33-.43,2.2-1.42,2.44-2.79.45-2.58-.35-4.91-2.31-6.73ZM40.68,94.32h0s0,0,0,0h0Z"/>
            <path class="cls-5" d="M76.55,79.81c-.83-.77-1.8-.95-2.92-.5-1.56.63-3.16,1.16-4.79,1.75-.18-2.5-.47-4.93-.89-7.35-.05-.29.06-.41.32-.49,1.18-.38,2.36-.78,3.54-1.17,1.82-.6,3.65-1.2,5.46-1.82.91-.31,1.37-.96,1.38-1.82,0-.87-.46-1.51-1.35-1.84-.23-.09-.47-.16-.71-.24-8.08-2.67-16.17-5.34-24.25-8.02-.74-.24-1.46-.23-2.2,0-8.14,2.69-16.27,5.39-24.41,8.06-.84.27-1.52.66-1.87,1.5v.96c.3.82.9,1.25,1.72,1.51,2.8.89,5.57,1.83,8.36,2.76.71.23.69.23.57.95-.18,1.12-.68,5.89-.82,7.02,0,.01,0,.03,0,.04,0,.01,0,.03,0,.04-.13,1.6-.21,3.2-.19,4.81,0,.65.29,1.18.82,1.54.48.33.97.67,1.5.92.42.2.49.47.45.89-.15,1.63-.2,3.27-.2,4.92,0,.83.35,1.31,1.16,1.5,1.53.37,3.07.37,4.61,0,.8-.19,1.18-.67,1.17-1.49,0-.86-.03-1.71-.07-2.57-.02-.35,0-.51.43-.4.79.21,1.59.37,2.4.49.42.06.53.23.59.63.2,1.49.79,2.81,1.91,3.84.86.81,1.84,1.08,3,.62,1.11-.44,2.24-.82,3.36-1.23,2.82-1.03,5.65-2.06,8.47-3.08,1.11-.4,1.75-.19,2.43.79.22.32.39.67.55,1.04.45,1.08,1.05,1.34,2.16.93,1.04-.38,2.07-.75,3.11-1.13,1.15-.42,1.43-1.28.78-2.32-.5-.8-1.21-1.37-2.12-1.82.4-.15.72-.26,1.03-.38.01,0,.02-.01.03-.02,1.03-.37,5.08-1.88,5.75-2.09.99-.32,1.56-1,1.73-1.98.4-2.28-.31-4.23-1.99-5.79ZM37.05,81.33c.25.36.35.67.19,1.07-.06.15-.08.31-.12.47-.31,1.33-.49,2.68-.68,4.08-.28-.16-.5-.31-.73-.43-.47-.23-.65-.56-.61-1.11.1-1.37.14-2.74.2-4.11,0-.03,0-.06,0-.09.14-.98.58-5.33.71-6.17.06-.38-.02-.95.25-1.08.26-.12.72.17,1.09.3,1.39.46,1.38.46,1.39,1.93,0,.36-.1.52-.43.67-1.77.78-2.37,2.92-1.26,4.48ZM39.55,78.2c.77,0,1.4.64,1.41,1.4,0,.77-.67,1.45-1.43,1.44-.75,0-1.4-.66-1.41-1.41-.01-.78.65-1.43,1.43-1.43ZM40.68,94.32c-.86.1-1.71.08-2.56-.04-.32-.04-.45-.17-.43-.52.04-.53,0-1.07,0-1.6.14-3.01.36-6.01,1.01-8.96.08-.37.14-.62.65-.57.91.09.91.04,1.09.95.59,3.03.85,6.1.89,9.19,0,.25.01.5.02.75.03.74.03.72-.69.81ZM46.58,89.99c-.09.24-.22.28-.45.23-.97-.21-1.95-.42-2.92-.62-.28-.06-.4-.2-.42-.51-.14-2.35-.44-4.68-1.03-6.96-.06-.25,0-.43.14-.63,1.26-1.72.71-3.84-1.25-4.7-.42-.18-.31-.46-.31-.74-.01-.84,0-.84.78-.58,2.95.98,5.91,1.95,8.86,2.94.87.29,1.69.3,2.56,0,1.98-.68,3.98-1.32,5.97-1.99.66-.22.92-.71.66-1.2-.22-.41-.59-.52-1.16-.33-1.94.64-3.89,1.27-5.82,1.93-.64.22-1.22.21-1.86,0-2.74-.93-5.5-1.83-8.25-2.74-.19-.06-.42-.07-.59-.28,1.18-.78,2.35-1.56,3.52-2.33,1.16-.77,2.32-1.53,3.47-2.31.23-.15.41-.18.68-.09,1.34.46,2.7.45,4.05.06.85-.24,1.5-.77,1.66-1.71.15-.89-.24-1.6-.91-2.16-1.44-1.23-4.09-1.19-5.49.08-.6.55-.93,1.22-.81,2.05.04.28-.05.41-.26.56-2.56,1.69-5.12,3.38-7.67,5.08-.22.15-.41.15-.64.08-4.35-1.45-8.71-2.89-13.06-4.33-.21-.07-.51-.08-.52-.37,0-.33.33-.33.55-.41,7.58-2.51,15.17-4.96,22.72-7.55,1.75-.6,3.28-.59,5.02,0,7.5,2.57,15.05,5.02,22.58,7.51.07.02.14.03.2.06.19.08.47.09.46.37,0,.27-.26.3-.46.36-2.23.74-4.45,1.48-6.68,2.22-2.7.89-5.4,1.79-8.1,2.68-.66.22-.91.65-.68,1.15.2.45.58.58,1.18.39,1.23-.4,2.47-.81,3.7-1.22.1-.03.2-.06.34-.09.44,2.37.66,4.71.89,7.04.06.56-.13.79-.65.98-6.11,2.2-12.2,4.43-18.31,6.64-.76.28-1.37.68-1.67,1.45ZM49.46,66.66c.74-.84,2.82-.85,3.58-.01.35.39.29.71-.2.91-.5.2-1.03.26-1.57.24-.56.02-1.11-.03-1.62-.25-.46-.2-.51-.5-.18-.88ZM50.31,95.45c-.53.19-.92-.29-1.23-.67-.87-1.05-1.27-2.26-1.14-3.62.03-.35.09-.75.47-.9.38-.15.69.1.95.35,1,.95,1.42,2.15,1.5,3.45-.05.55.01,1.19-.55,1.39ZM63.17,90.27c-.11.45-.36.69-.79.84-3.11,1.12-6.22,2.26-9.33,3.39q-.6.22-.6-.42c0-.07,0-.14,0-.28-.09-1.48-.61-2.86-1.64-4.02-.3-.34-.15-.39.15-.5,3.19-1.16,6.39-2.32,9.58-3.49.37-.14.68-.1,1,.12,1.15.79,1.96,2.99,1.62,4.35ZM65.88,89.84c-1,.32-.97.34-1.04-.69-.11-1.6-.75-2.98-1.89-4.2.44-.16.83-.29,1.2-.46.43-.2.81-.12,1.13.18,1.22,1.1,1.71,2.5,1.57,4.12-.05.59-.42.87-.98,1.05ZM70.44,92.37c.2.22.25.35-.1.47-.81.27-1.61.56-2.4.87-.3.12-.41.02-.51-.23-.27-.65-.65-1.23-1.14-1.72-.2-.2-.2-.28.08-.39.38-.15.75-.2,1.15-.18,1.12.03,2.14.33,2.93,1.18ZM76.95,85.3c-.1.37-.28.63-.67.75-.66.22-4.46,1.61-5.67,2.06-.04.01-.09.02-.13.04-.65.23-1.3.47-1.96.71-.12-2.56-.28-3.07-1.72-5.01-.28-.37.08-.33.22-.39,2.44-.9,4.88-1.77,7.31-2.67.4-.15.72-.1,1.05.14,1.14.83,1.92,3,1.57,4.37Z"/>
          </g>
          <g>
            <path class="cls-6" d="M29.61,99.29l-1.23,1.9c-.22.34-.31.62-.29.83.03.22.18.42.45.59.27.18.52.23.73.17.21-.07.43-.27.64-.6l1.23-1.9-.06-.04c-.13-.08-.2-.18-.23-.29-.02-.11,0-.23.09-.36.09-.14.19-.22.3-.24s.25.03.41.13l.91.59c.17.11.26.21.29.32.03.11,0,.23-.1.38-.08.13-.18.21-.29.23-.11.02-.23,0-.36-.09l-.06-.04-1.22,1.89c-.4.61-.81.97-1.25,1.07-.44.1-.95-.04-1.54-.41-.61-.4-.96-.81-1.05-1.25-.09-.44.06-.97.46-1.59l1.22-1.89-.06-.04c-.13-.08-.21-.18-.23-.29-.02-.11,0-.23.09-.36.09-.14.2-.22.31-.24s.25.03.42.13l.94.61c.16.11.26.21.29.32.03.11,0,.24-.09.38-.08.13-.18.21-.3.23-.11.02-.24,0-.37-.09l-.06-.04Z"/>
            <path class="cls-6" d="M34.72,104.86l1.02-2.16-.22-.1c-.17-.08-.28-.17-.32-.28-.04-.1-.03-.23.04-.38.07-.15.16-.24.27-.28.11-.03.25-.01.42.07l1.11.53c.17.08.28.17.32.28.04.1.03.23-.04.38-.07.14-.15.23-.26.27-.11.04-.23.03-.36-.03l-.07-.03-1.68,3.56c-.06.12-.11.19-.15.21-.04.02-.11,0-.2-.04l-.39-.18c-.12-.06-.21-.11-.25-.16-.04-.05-.06-.12-.07-.2l-.28-3.64-1.01,2.13.23.11c.17.08.28.17.32.27.04.1.03.23-.04.38-.07.15-.16.25-.27.28-.11.03-.24,0-.41-.07l-1.12-.53c-.17-.08-.28-.17-.32-.28-.04-.1-.03-.23.04-.39.07-.14.15-.23.25-.27.1-.04.23-.02.36.04l.06.03,1.38-2.92-.06-.03c-.13-.06-.22-.15-.26-.26s-.02-.23.04-.37c.07-.15.16-.24.27-.28.11-.03.25,0,.42.07l.64.3c.15.07.25.14.28.21.04.07.06.18.07.33l.21,3.43Z"/>
            <path class="cls-6" d="M40.11,104.31l-.98,3.08.69.22c.19.06.31.14.37.23.06.1.06.22.01.38-.05.16-.13.26-.24.31-.11.05-.25.04-.44-.02l-2.45-.78c-.19-.06-.31-.14-.37-.24-.06-.1-.06-.23-.01-.39.05-.16.13-.26.23-.3.1-.04.25-.04.44.03l.69.22.98-3.08-.69-.22c-.19-.06-.31-.14-.37-.24-.06-.1-.06-.23-.01-.39.05-.16.13-.26.23-.31.1-.04.25-.04.44.03l2.45.78c.2.06.32.14.38.23.06.09.06.22,0,.38-.05.16-.13.26-.23.31s-.25.04-.44-.02l-.69-.22Z"/>
            <path class="cls-6" d="M43.58,105.19l.49,3.21,1.59-2.84-.12-.02c-.19-.03-.32-.09-.38-.18-.07-.09-.09-.21-.06-.38s.09-.28.19-.34c.09-.06.24-.07.43-.04l1.08.19c.19.03.32.09.39.18.07.09.09.22.06.38-.03.15-.09.26-.18.33-.09.07-.22.09-.37.06h-.07s-1.95,3.46-1.95,3.46c-.1.18-.19.29-.26.32-.07.03-.18.03-.34,0l-.53-.09c-.25-.04-.4-.21-.45-.48v-.03s-.68-3.94-.68-3.94h-.07c-.15-.04-.25-.1-.31-.19-.06-.09-.08-.22-.05-.37.03-.17.09-.29.18-.34s.23-.07.42-.04l1.27.22c.18.03.31.09.38.18s.09.22.06.38-.09.28-.19.34c-.1.06-.24.07-.42.04l-.12-.02Z"/>
            <path class="cls-6" d="M50.86,105.92l-2.01-.08-.05,1.11.76.03v-.05c0-.17.05-.29.13-.36.08-.08.19-.11.33-.11.13,0,.23.05.31.12s.12.17.11.29c0,0,0,.02,0,.06,0,.03,0,.06,0,.1l-.04.9c0,.19-.05.33-.12.41-.07.08-.19.12-.34.11-.15,0-.26-.05-.33-.13-.07-.08-.1-.2-.1-.35v-.08s-.76-.03-.76-.03l-.05,1.29,2.01.08.02-.52c0-.19.05-.33.13-.41.08-.08.2-.12.37-.11.16,0,.28.05.35.14.07.08.1.23.09.42l-.04,1.05c0,.16-.04.26-.1.31s-.18.07-.36.06l-3.55-.15c-.19,0-.33-.05-.4-.13s-.12-.2-.11-.37c0-.15.05-.27.13-.34s.2-.11.35-.11h.07s.14-3.23.14-3.23h-.07c-.15,0-.26-.06-.33-.14-.08-.09-.11-.21-.1-.36,0-.17.05-.29.14-.36.09-.07.22-.11.41-.1l3.55.15c.18,0,.29.04.35.1.06.06.09.16.08.32l-.04.97c0,.2-.05.34-.13.42-.08.08-.19.12-.36.11-.17,0-.29-.06-.36-.15-.07-.09-.1-.23-.09-.42l.02-.46Z"/>
            <path class="cls-6" d="M55.98,107.5c.08.04.16.12.24.23.01.02.02.03.03.04l.8,1.05h.05s.09-.01.09-.01c.17-.01.3.01.39.08s.15.18.16.34c.01.17-.02.3-.09.38-.08.08-.21.13-.41.15l-.53.05c-.2.02-.36-.05-.48-.21h-.01s-1.2-1.54-1.2-1.54c-.05-.06-.1-.1-.15-.13s-.11-.04-.17-.04l-.41.04.1,1.14h.07c.16-.02.28,0,.36.08.09.07.14.18.15.34.01.17-.01.3-.09.38-.08.08-.21.13-.41.15l-1.11.1c-.19.02-.33,0-.42-.08-.09-.07-.14-.19-.16-.36-.01-.15.01-.27.09-.36s.18-.14.34-.15h.07s-.29-3.23-.29-3.23h-.07c-.15.02-.27-.01-.36-.08-.09-.08-.14-.19-.15-.34-.02-.17.02-.29.09-.38.08-.08.21-.13.4-.15l1.99-.18c.61-.05,1.08.02,1.42.23s.52.55.56,1.01c.03.32-.03.61-.19.86-.15.25-.39.45-.7.59ZM54.04,105.82l.11,1.22.58-.05c.36-.03.61-.1.74-.21s.19-.27.17-.49c-.02-.22-.1-.37-.24-.45-.14-.08-.35-.11-.65-.09l-.73.06Z"/>
            <path class="cls-6" d="M60.65,103.92c.02-.1.06-.17.1-.22s.12-.08.23-.11c.16-.04.28-.03.34.02.06.05.11.16.16.34l.2.81v.05c.05.17.04.29-.01.37-.05.08-.16.14-.31.18-.2.04-.37-.03-.52-.22-.02-.03-.04-.05-.05-.07-.13-.16-.28-.26-.45-.32-.17-.05-.36-.06-.56-.01-.25.06-.45.16-.58.31s-.17.32-.13.5c.06.26.46.38,1.21.37.13,0,.23,0,.3,0,.57,0,1,.09,1.3.28.3.19.49.49.59.91.12.52.03.96-.26,1.32s-.76.61-1.42.76c-.26.06-.49.09-.7.1-.21.01-.42,0-.62-.02-.03.08-.07.15-.12.19s-.13.08-.23.1c-.18.04-.31.03-.39-.02-.09-.05-.15-.16-.19-.33l-.24-.99v-.05c-.05-.19-.05-.32,0-.41s.17-.15.34-.19c.18-.04.37.06.55.29.04.06.08.1.1.13.16.19.35.32.57.38.22.06.47.06.76,0,.26-.06.45-.16.57-.3.12-.14.16-.31.11-.5-.07-.3-.45-.46-1.13-.46-.21,0-.37,0-.49-.01-.58-.02-1-.11-1.26-.28-.26-.17-.43-.44-.52-.81-.11-.48-.02-.92.28-1.3s.73-.65,1.3-.78c.19-.04.38-.07.58-.07.19,0,.39.02.59.05Z"/>
            <path class="cls-6" d="M65.19,103.35l1.13,3.03.68-.25c.18-.07.33-.08.43-.04s.19.14.24.29c.06.16.06.29,0,.39-.05.1-.17.19-.35.25l-2.41.9c-.18.07-.33.08-.44.04-.11-.04-.19-.14-.25-.3-.06-.16-.06-.28,0-.38.05-.1.17-.18.36-.25l.68-.25-1.13-3.03-.68.25c-.18.07-.33.08-.44.04-.11-.04-.19-.14-.25-.3-.06-.16-.06-.29,0-.39.05-.1.17-.18.36-.25l2.41-.9c.19-.07.34-.09.44-.05.1.04.18.14.24.3.06.16.06.29,0,.38s-.17.18-.36.25l-.68.25Z"/>
            <path class="cls-6" d="M70.62,100.75l-.8.43,1.52,2.85.64-.34c.17-.09.31-.12.42-.1.11.03.2.11.28.26.08.15.1.28.06.38-.04.11-.14.2-.31.29l-2.27,1.21c-.17.09-.31.12-.42.09s-.2-.12-.28-.27c-.08-.15-.1-.28-.06-.38s.14-.2.31-.29l.64-.34-1.52-2.85-.8.43.39.79.05.1c.07.12.08.24.05.34-.03.11-.11.19-.23.25-.14.08-.27.1-.37.06-.11-.04-.2-.13-.29-.29l-.02-.03-.57-1.17c-.11-.23-.15-.38-.12-.46s.13-.16.3-.25l3.29-1.75c.17-.09.29-.13.37-.11.08.02.18.14.32.36l.65,1.12.02.03c.09.16.12.29.09.4-.03.11-.11.2-.25.27-.14.07-.25.09-.35.05-.1-.04-.2-.15-.3-.33l-.44-.76Z"/>
            <path class="cls-6" d="M73.17,99.11l1.37.75-.3-1.53h-.01c-.11.09-.21.11-.31.08-.1-.03-.2-.1-.29-.23-.1-.14-.14-.26-.13-.36.01-.1.09-.2.23-.3l.8-.58c.16-.11.29-.16.4-.15.11.01.21.09.32.23.09.13.13.25.11.36s-.09.21-.21.3l-.06.04.32,2.44.62.87.46-.33c.16-.11.29-.17.4-.15.11.01.21.08.31.22.1.14.13.26.11.37-.03.11-.12.23-.27.34l-1.82,1.31c-.16.11-.29.16-.4.15-.11-.01-.22-.09-.32-.23-.1-.14-.14-.26-.11-.37.02-.1.12-.21.28-.33l.46-.33-.55-.76-2.34-1.14-.06.04c-.12.09-.24.12-.35.1-.11-.02-.21-.09-.3-.22-.1-.14-.14-.27-.12-.37.02-.11.11-.22.27-.33l.92-.66c.14-.1.26-.14.36-.12.1.02.21.1.3.24.09.12.13.24.12.35,0,.11-.06.2-.17.27l-.05.04Z"/>
          </g>
          <path class="cls-2" d="M49.25,67.21s-.2-1.07,1.93-1.19,2.08,1.12,2.08,1.12c0,0-.1.69-1.88.64s-2.12-.37-2.13-.58Z"/>
        </g>
      </g>
    </g>
  </g>
</svg>